<?xml version="1.0" encoding="utf-8"?>
<!-- Generator: Adobe Illustrator 19.1.0, SVG Export Plug-In . SVG Version: 6.00 Build 0)  -->
<svg version="1.1" id="Layer_1" xmlns="http://www.w3.org/2000/svg" xmlns:xlink="http://www.w3.org/1999/xlink" x="0px" y="0px"
	 viewBox="0 0 256 256" style="enable-background:new 0 0 256 256;" xml:space="preserve">
<style type="text/css">
	.st0{fill:#cc0000;}
</style>
<path class="st0" d="M205.4,99.8c-4.8-12.9-8.3-25.7-8.3-25.7c-24.8-34.2-68.6-31.2-68.6-31.2s-43.8-3.1-68.7,31.1
	c0,0-3.6,12.9-8.4,25.7c0,0-4.9,22.8,9.7,41.3c0,0,12.1,12.7,8,32.3c0,0-3,11.9,10.5,11.3c0,0,16.2,7.7,17,19.3
	c0,0,10,9.8,31.7,10.8c21.7,1,31.8-10.8,31.8-10.8c0.9-11.6,17.1-19.3,17.1-19.3c13.5,0.6,10.5-11.3,10.5-11.3
	c-4.1-19.6,8-32.2,8-32.2C210.3,122.6,205.4,99.8,205.4,99.8z M101.7,157c-3.8-2.6-11.4-1-11.4-1l-5.5,2.6c-4.4,0.9-5.6-5.3-5.6-5.3
	c-1-8.8-5.4-12.3-5.4-12.3c-7.3-8.3,4-13.3,4-13.3c14.4-6,28.3-5.8,28.3-5.8c9,1.9,13.1,7.8,13.1,7.8c5,3.6,1.3,10.3,1.3,10.3
	l-6.1,12C109.9,158.7,101.7,157,101.7,157z M136.5,177.1c0,0-4.6,2.4-5.9-1.3c0,0,1.1-9-2.3-10.2c-3.4,1.2-2.3,10.2-2.3,10.2
	c-1.4,3.7-5.9,1.3-5.9,1.3c-8.6-5.7-1.6-14.4-1.6-14.4c5.7-6.4,5.5-10.7,5.5-10.7c0.8-3.6,4.3-4.3,4.3-4.3s3.4,0.7,4.3,4.3
	c0,0-0.2,4.3,5.5,10.7C138.1,162.7,145.2,171.4,136.5,177.1z M183.2,141c0,0-4.4,3.5-5.4,12.3c0,0-1.3,6.2-5.6,5.3l-5.4-2.6
	c0,0-7.6-1.7-11.4,0.9c0,0-8.2,1.7-12.7-5l-6.1-12c0,0-3.7-6.7,1.3-10.3c0,0,4.1-6,13.1-7.8c0,0,13.9-0.2,28.3,5.8
	C179.3,127.8,190.5,132.8,183.2,141z"/>
</svg>
