<?xml version="1.0" encoding="utf-8"?>
<!-- Generator: Adobe Illustrator 21.0.2, SVG Export Plug-In . SVG Version: 6.00 Build 0)  -->
<svg version="1.1" id="Layer_1" xmlns="http://www.w3.org/2000/svg" xmlns:xlink="http://www.w3.org/1999/xlink" x="0px" y="0px"
	 viewBox="0 0 128 128" style="enable-background:new 0 0 128 128;" xml:space="preserve">
<style type="text/css">
	.st0{fill:#FFFFFF;}
</style>
<path class="st0" d="M101.4,86.5V85H87.2l-0.5-2h-4.9l-0.6,2h-15l-0.4-1.6l0,0l31.9-35.1c0.2,0.1,0.4,0.2,0.6,0.3
	c0.1-1.1,0.2-2.2,0.2-3.3c0-19-15.4-34.5-34.5-34.5S29.5,26.2,29.5,45.2c0,1.1,0.1,2.2,0.2,3.3c0.3-0.1,0.6-0.3,0.9-0.4l31.6,35.7
	L61.8,85h-15l-0.5-2h-4.9l-0.6,2H26.4v1.5h-0.9v29.2h0.9v1.5h75v-1.5h1.1V86.5H101.4z M92.6,47.1c1.2,0,2.3,0.2,3.3,0.5L68.7,77.5
	l15.6-27.1C86.4,48.4,89.3,47.1,92.6,47.1z M82.1,50.7L64.9,80.5V50.8c2.2-2.2,5.2-3.6,8.6-3.6C76.9,47.1,79.9,48.5,82.1,50.7z
	 M63.1,50.8v30.5l-17-30.7c2.2-2.1,5.1-3.5,8.4-3.5C57.9,47.1,60.9,48.5,63.1,50.8z M35.4,47.1c3.4,0,6.5,1.5,8.7,3.8L59,77.5
	l-26.6-30C33.4,47.2,34.4,47.1,35.4,47.1z"/>
</svg>
