<?xml version="1.0" encoding="utf-8"?>
<!-- Generator: Adobe Illustrator 19.1.0, SVG Export Plug-In . SVG Version: 6.00 Build 0)  -->
<svg version="1.1" id="Layer_1" xmlns="http://www.w3.org/2000/svg" xmlns:xlink="http://www.w3.org/1999/xlink" x="0px" y="0px"
	 viewBox="0 0 128.2 131.2" style="enable-background:new 0 0 128.2 131.2;" xml:space="preserve">
<style type="text/css">
	.st0{fill:#FFFFFF;}
</style>
<path class="st0" d="M64.2,17c0.4,0,0.8,0,1.2,0.1V8.1H63v8.9C63.4,17,63.8,17,64.2,17z"/>
<path class="st0" d="M113.6,64.4c0,0.4,0.1,0.8,0.1,1.2c0,0.4,0,0.8-0.1,1.2h8.2v-2.5H113.6z"/>
<path class="st0" d="M16.2,65.6c0-0.4,0-0.8,0.1-1.2H6.8v2.5h9.5C16.3,66.4,16.2,66,16.2,65.6z"/>
<path class="st0" d="M64.2,115.3c-0.4,0-0.8,0-1.2-0.1v8h2.5v-8C65,115.2,64.6,115.3,64.2,115.3z"/>
</svg>
