<?xml version="1.0" encoding="utf-8"?>
<!-- Generator: Adobe Illustrator 19.2.0, SVG Export Plug-In . SVG Version: 6.00 Build 0)  -->
<svg version="1.1" id="Layer_1" xmlns="http://www.w3.org/2000/svg" xmlns:xlink="http://www.w3.org/1999/xlink" x="0px" y="0px"
	 viewBox="0 0 776.2 781" style="enable-background:new 0 0 776.2 781;" xml:space="preserve">
<style type="text/css">
	.st0{fill-rule:evenodd;clip-rule:evenodd;fill:#E30005;}
</style>
<g>
	<path class="st0" d="M472.9,697.6c-5.8-1.2-7.8-10.1-2.1-12.9c6.1-3.1,12.1,5.9,6.6,11.9C475.9,696.9,474.4,697.9,472.9,697.6z"/>
	<path class="st0" d="M568,597.8c-8.3-4.5-5.9-10.8,0.9-13.8c7.5,0.7,9.8,6.6,3.3,12.7C570.8,597.1,569.4,597.5,568,597.8z"/>
	<path class="st0" d="M608.1,541.1c-4.8,3.5-7,7.9-12.2,8.9c-5.2,1-12.2-3.2-16.1,2.8c-1.3,0-2.6,0-3.9,0.1
		c-7.4,5.6-7.2,18.4-17.8,13c-1.3,2.4-1.7,6-5.2,8c-4.8,2.7-11.9-1.8-13.5-7.7c-0.4-1.4,0.5-2.4,1.2-3.9c3.5-6.6,9.3-6.2,14.4-3.6
		c0.5-0.2,1-0.3,1.5-0.5c0.2-1,0.4-1.9,0.6-2.9c-1.5-1.3-2.5-2.1-3.3-3.5c0.2-1.8,0.3-2.5,2-4.1c7.3-0.3,4.4-6.6,11-11.6
		c3.6-2.7,6.8-3.4,10.1-5.2c0.1-0.1,0.1-0.1,0.2-0.2c-3.5-4.9-5.2-7.7-3.7-12.9c0.6-2.1,3.2-2.8,2.8-5.2c-0.8-4.9-5-9.8-3-14.7
		c1.6-1.7,3.3-3.4,4.9-5.1c4.9-7,13.7-14.5,20.2-13.6c4,0.6,14,9.3,16.1,13.7c1.1,2.3,0.7,4.9,2.8,7.2c1.2-0.1,2.5-0.1,3.7-0.2
		c0.2,0.2,0.3,0.3,0.5,0.5c-0.2,0.5-0.3,1-0.5,1.5c-2.7,1.1-5.3,0.6-7.9,2.9c0,0.1,0,0.2,0,0.3c0.2,0.1,0.4,0.2,0.7,0.3
		c0.8,0.1,0.9,0,1.8-0.8c0.1,0.1,0.1,0.1,0.2,0.2c-0.7,1.4-0.5,2.3-0.4,3.7c0.2,0.1,0.4,0.2,0.7,0.3c1.2-0.1,2.5-0.1,3.7-0.2
		c1.2-1.8,0.6-3.3,2.5-4.6c2.3-1.3,3.9,0.4,6.2,0.2c0.1,0.2,0.2,0.4,0.3,0.6c0.5,1.7-0.3,4.7-2.5,5.9c-2.3,0.9-3.2-1.2-5.2-0.9
		c-1.6,0.2-2.4,1.3-4,1.2c-0.2,0.2-0.4,0.4-0.6,0.7c1.7,3.7,1.5,8.9-0.5,12.6c0.7,1.3,1.4,2.7,2.2,4c0.4,2.4-4.4,4.9-5.4,6.9
		c-0.1,0.2-0.2,0.4-0.3,0.7c1.9,2.5,4.4,2.1,7,4.6c-0.1,0.3-0.1,0.5-0.2,0.8c-0.3,0.4-0.6,0.9-0.9,1.3
		C614.8,542.7,611.5,540.9,608.1,541.1z"/>
	<path class="st0" d="M725.6,425.2c-2.3,1.6-4.1,2.5-6.1,3.6c-0.5-0.2-1.1-0.4-1.6-0.6c-2.9-3.5,1.4-5.5,3.1-9.1
		c0.7-2.9-4-9.3,3.7-10.1c0.9,0.4,1.7,0.8,2.6,1.3c1.8,0.4,3.5-0.3,5.5,0.9c4.8,2.9,4.2,9,1.1,12.3
		C730.8,424.6,728.9,426.4,725.6,425.2z"/>
	<path class="st0" d="M660.1,496.2c0-0.1,0-0.2,0-0.3c0.1-0.2,0.2-0.4,0.3-0.7c0.2,0,0.3-0.1,0.5-0.2c0.3,0,0.5,0.1,0.8,0.2
		c-0.1,0.8,0.1,0.6-0.5,1.5C660.9,496.5,660.5,496.3,660.1,496.2z"/>
	<path class="st0" d="M674.6,480.9c-4.4-0.7-7.6,6.4-11.9,8.6c-2.4,0.9-4.7,1.8-7.1,2.7c-0.5,1.2-0.1,1.8-1.1,3.1
		c-0.3-0.1-0.6-0.2-1-0.3c-0.9-0.4-1.1-1.1-1.6-1.9c-2.1-0.2-4.2,0.1-6.3,1.5c-1-0.8-2.1-1.6-3.1-2.4c-1.4-0.3-2.8-0.6-4.2-0.9
		c-0.8-0.7-1.5-1.5-2.3-2.2c-2.4-0.6-5,4.1-7.4,5.3c-0.4-0.3-0.9-0.6-1.3-1c0.7-2.6,4.2-5.1,5.2-7.7c-4.7-6.8-6.4-10.2-2-17.3
		c-0.7-3-8.3-12.5-11.9-14.4c0-0.2,0-0.4,0-0.6c3.8,3.6,9.7,7.4,13.7,8.2c1.6-2,2.5-6.7,5.4-8.5c2.2-1.3,5.2-1.2,7.6-2.9
		c-0.6-1-0.8-1.3-0.7-2.3c0.3-0.3,0.6-0.7,1-1c2.4-0.7,2,1.6,2.5,3c4.5,0.6,14.1,0.6,18.4-1.2c3.8-1.7,6.1-6.3,9.7-9
		c3.6-3.1,7.1-6.3,10.7-9.4c0.2,0,0.3,0.1,0.5,0.2c-5.7,6.2-11.5,12.5-17.2,18.7c4.2,8.7,0.7,8.2,0.7,16c0.6,2.7,1.3,5.5,1.9,8.2
		c0.2,2.1-1,2.6,0.1,4.9c1,0.5,2.1,0.9,3.1,1.4c-0.2,0.5-0.4,1.1-0.6,1.6C675.2,481.2,674.9,481.1,674.6,480.9z"/>
	<path class="st0" d="M716.3,430.8c0.8-0.4,1.6-0.8,2.4-1.2c0.5,0.3,1.1,0.6,1.6,0.9c0.2,0.4,0.3,0.7,0.5,1.1
		c-0.2,1-0.3,1.5-1.3,2.6C716.8,435,715.7,433.4,716.3,430.8z"/>
	<path class="st0" d="M526.1,626.4c0.3-1.3,0.6-2.6,2.1-3.1c1.1-0.4,1.8-0.2,2.9,0.9c0.2,0.8,0.3,1.4,0,2.3
		c-0.4,0.5-0.9,1.1-1.3,1.6C528.2,628.2,527.5,628.1,526.1,626.4z"/>
	<path class="st0" d="M695.5,446.3c-1.3-0.8-3.1-0.8-4.3-2.9c-2-4.5,1.7-4.3,4.1-7.5c3.5-4.7,7.6-10.7,13.3-7.5
		c4.2,2.4,4.1,9.6,2.6,12.1c-1.3,1-2.6,2-3.8,3c-0.9,1.3-1.3,2.8-3,4.4C698.8,449.4,700.7,449.5,695.5,446.3z"/>
	<path class="st0" d="M501.1,651.2c-0.2-0.2-0.3-0.3-0.5-0.5c0-0.6-0.1-0.1,0.1-0.8c0.7,0.1,1.3,0.2,2,0.3c0.9,0.3,1.8,1.3,1.8,1.8
		C503.1,651.1,502.4,651.6,501.1,651.2z"/>
	<path class="st0" d="M752.7,393.7c0.2-0.1,0.4-0.2,0.6-0.3c0.4,0.3,0.9,0.6,1.3,1c-0.2,0.2-0.3,0.3-0.5,0.5
		C753.7,394.4,753.2,394.1,752.7,393.7z"/>
	<path class="st0" d="M691.3,455.9c-1.4-1.4-1.1-2.2,0.3-3.2c0.7,0.2,1.3,0.6,2.1,1.4c-0.4,0.6-0.7,1.2-1.1,1.8
		C692.1,455.9,691.7,455.9,691.3,455.9z"/>
	<path class="st0" d="M611.2,537.6c-0.3-0.2-0.5-0.3-0.8-0.5c-0.1,0.1-0.2,0.2-0.3,0.3c0,0.2,0,0.4,0,0.6c0.2,0.1,0.3,0.1,0.5,0.2
		C610.7,538.1,610.9,537.9,611.2,537.6z"/>
	<path class="st0" d="M640.6,503.4c0-0.2,0-0.4,0-0.7c0.2-0.1,0.4-0.2,0.6-0.3c0.3,0.2,0.7,0.4,1,0.6c-0.2,0.2-0.3,0.3-0.5,0.5
		C641.4,503.5,641,503.4,640.6,503.4z"/>
	<path class="st0" d="M401.7,729.8c5.4-2.5,12.3,7.1,6.7,12.5C396.9,746.6,392.8,734,401.7,729.8z"/>
	<path class="st0" d="M638.7,503.4c0.9-0.3,0.1-0.3,1,0c-0.1,0.1-0.2,0.2-0.3,0.3C639.1,503.6,638.9,503.5,638.7,503.4z"/>
	<path class="st0" d="M392.4,748.9c-1.7-1.9-1.2-3.3-0.4-5.2c2.4-2.1,7.9-2.7,8.1,1.5c0.4,1.3-0.3,2.4-1.7,3.7
		C396,749.6,394.8,750.1,392.4,748.9z"/>
	<path class="st0" d="M502.7,630.5c-0.4-1-0.5-1.7-0.2-2.7c2.5-2.2,6-1.1,8.6,1c0.2,0.8,0.3,1.6,0.5,2.4c-0.5,0.7-0.9,1.4-1.4,2.1
		C507.2,634.1,504.8,633.6,502.7,630.5z"/>
	<path class="st0" d="M736.1,389.1c0.2-1,0-1.2,0.9-2.3c0.6,0,1.2,0.1,1.8,0.1c0.9,0.3,1.5,1.4,1.7,2.2c0.1,0.1,0.2,0.2,0.3,0.3
		c-0.3,0.3-0.5,0.5-0.8,0.8C738.5,390.4,737.7,390.6,736.1,389.1z"/>
	<path class="st0" d="M484.5,646.3c-0.6-0.5-1.2-1-1.8-1.4c0-0.6,0.1-1.2,0.1-1.8c0.6-0.3,1.3-0.7,1.9-1c1.1-0.3,1.8,0,2.9,0.9
		c0,0.7-0.1,1.4-0.1,2.1c-0.3,0.4-0.5,0.8-0.8,1.1C485.8,646.4,485.5,646.6,484.5,646.3z"/>
	<path class="st0" d="M752.5,365.7c-3.2,2.8-4.4,4.8-8.4,3.4c-3.5-3.4-2.2-6.4,0-9.9c1.7-0.3,4.9-0.9,6.5-0.4
		c0.9,0.9,1.8,1.7,2.6,2.6c0.2,1,0,0.8-1,1.6c0.5,1.3,3,2.6,2.8,4C754.2,366.5,753.3,366.1,752.5,365.7z"/>
	<path class="st0" d="M723.4,393c-0.2-0.1-0.3-0.1-0.5-0.2c1.1-0.8,2.1-1.5,3.2-2.3c0.2,0.1,0.3,0.1,0.5,0.2c-0.2,0.6-0.4,1.3-0.6,2
		C724.9,392.4,724.5,392.4,723.4,393z"/>
	<path class="st0" d="M385,728.3c0.4-3.5,1-9.3,6.4-8.5c5.8,0.8,9,6.9,4.2,11.8C391.1,733.2,389.5,733,385,728.3z"/>
	<path class="st0" d="M717.8,399.4c-0.3-0.1-0.5-0.1-0.8-0.2c0.1-0.8,0.5-1.2,1.4-1.5c0.1-0.1,0.2-0.2,0.3-0.3
		c0.1,0.9,0.2,0.9-0.5,1.8C718.1,399.2,718,399.3,717.8,399.4z"/>
	<path class="st0" d="M689.4,427.6c0.1-0.1,0.1-0.1,0.2-0.2c0.1,0.1,0.2,0.2,0.3,0.3c-0.4,0.5-0.9,1.1-1.3,1.6
		C688.9,428.8,689.1,428.2,689.4,427.6z"/>
	<path class="st0" d="M483.2,621.4c2.8-2.8,11.6-3.4,13,2.7c0.4,1.2-0.2,2.2-1.4,3.4C491.1,628.2,480.8,628.4,483.2,621.4z"/>
	<path class="st0" d="M513.5,606.2c-3.8-1.9-1.7-7.4,1.9-5.9c0.7,0.7,1.4,1.4,2.1,2.1c-0.4,1.3-0.4,2-1.7,3.4
		C515.1,606,514.3,606.1,513.5,606.2z"/>
	<path class="st0" d="M687.9,426.2c0.2-0.4,0.3-0.8,0.5-1.1c0.2-0.1,0.4-0.2,0.6-0.3c0.3,0.4,0.5,0.7,0.8,1.1
		c-0.3,0.4-0.5,0.8-0.8,1.1C688.7,426.7,688.3,426.4,687.9,426.2z"/>
	<path class="st0" d="M739.9,372.3c0.1-0.6,0-0.4,0.5-1.1c0.1,0,0.2,0,0.3,0c0.2,0.2,0.4,0.4,0.7,0.6c-0.2,0.3-0.3,0.5-0.5,0.8
		C740.6,372.5,740.3,372.4,739.9,372.3z"/>
	<path class="st0" d="M735.1,376.3c-0.8-1.1-0.9-1.7-0.5-2.7c0.2-0.3,0.4-0.7,0.6-1c0.6,0,1.2,0.1,1.8,0.1c0.3,0.3,0.5,0.5,0.8,0.8
		c0.4,1.2,0.1,1.9-1.1,3.1C736.2,376.5,735.7,376.4,735.1,376.3z"/>
	<path class="st0" d="M502.5,614c-0.3-1.2-0.7-1.5-0.2-2.7c0.3-0.8,0.9-1.2,1.6-1.3c0.3-0.1,0.5-0.1,0.8-0.2
		c0.5,0.4,1.1,0.9,1.6,1.3c0,0.2,0.1,0.3,0.2,0.5c-0.2,1.1-0.3,1.6-1.4,2.8C504,614.4,503.6,614.4,502.5,614z"/>
	<path class="st0" d="M663.6,433.5c2.6-1.9,6.3-1.7,9.1-0.4c2.1,3.8,2.3,6.5-1.8,10.4C661.7,445.6,663.3,438.8,663.6,433.5z"/>
	<path class="st0" d="M717,391c-0.7-0.8-1.4-1.6-2.1-2.4c-0.1-0.1-0.2-0.2-0.3-0.3c0.1-0.1,0.1-0.1,0.2-0.2c1.6-0.2,4,0.8,3.9,2.9
		C718.1,390.9,717.6,390.9,717,391z"/>
	<path class="st0" d="M710,396.2c-0.7-0.2-1.3-0.6-2.1-1.4c0.2-0.3,0.4-0.7,0.6-1c0.9,0.2,1.2,0.3,2.3,1.3c-0.1,0.3-0.2,0.7-0.3,1
		C710.3,396.1,710.2,396.2,710,396.2z"/>
	<path class="st0" d="M442.4,669.5c-1.1-0.4-1.4-1.4-1.6-2.2c0.2-0.4,0.4-0.9,0.6-1.3c0.8-0.2,0.8-0.3,1.6,0c0.4,0.3,0.9,0.6,1.3,1
		c-0.1,0.8-0.3,1.6-0.4,2.4C443.2,669.4,443.1,669.6,442.4,669.5z"/>
	<path class="st0" d="M623.6,481.1c0.2-0.3,0.4-0.7,0.6-1c0.4-0.1,0.7-0.1,1.1-0.2c0.2,0.2,0.3,0.3,0.5,0.5
		c-0.2,0.6-0.3,0.9-0.9,1.6C624.5,481.8,624.1,481.5,623.6,481.1z"/>
	<path class="st0" d="M721.9,366c-0.6-0.3-1.4-1.7-1.7-2.6c-0.1-0.2-0.2-0.4-0.3-0.6c4.9-3.7,17.1-8.4,15.1,1.9
		c-0.6,0.8-1.3,1.5-1.9,2.3C729.9,367.4,724.9,367.8,721.9,366z"/>
	<path class="st0" d="M544.7,555.1c-1.4-0.6-1.7-2.6-1.2-3.7c0.5-0.7,1.1-1.3,1.6-2c1.6-0.1,2.3-0.2,3.9,0.6
		c0.3,0.7,0.6,1.4,0.8,2.1c0.2,1.1-0.5,2.1-1.6,3.3C546.9,555.7,546.2,556.1,544.7,555.1z"/>
	<path class="st0" d="M650,446.1c-0.4-0.6-0.8-1.2-1.2-1.8c0.3-0.9,0.5-1.6,1.6-2.6c1.5-0.1,2.1,0,3.3,1.6c-0.2,1-0.4,1.7-1.4,2.8
		C651.4,446.2,650.8,446.2,650,446.1z"/>
	<path class="st0" d="M375.1,728.9c-1-0.2-1.5-0.3-2.1-1.4c0.5-0.5,1-1,1.4-1.5c0.6,0.2,0.9,0.3,1.6,0.9c-0.2,0.6-0.3,1.2-0.5,1.8
		C375.4,728.8,375.3,728.9,375.1,728.9z"/>
	<path class="st0" d="M490.3,607.8c0.1-0.2,0.2-0.4,0.3-0.7c0.4,0.1,0.9,0.2,1.3,0.3c0.1,0.1,0.1,0.1,0.2,0.2
		c-0.3,0.4-0.6,0.9-1,1.3C490.8,608.6,490.5,608.2,490.3,607.8z"/>
	<path class="st0" d="M520.5,570.8c-5.7-2.7-6.1-10.1-0.5-13.6c7.5-4.6,15.8,5.2,7.5,13C525,570.7,522.9,571.9,520.5,570.8z"/>
	<path class="st0" d="M705.1,380.6c0.3-0.2,0.5-0.3,0.8-0.5c0.5,0.8,0.4,0.5,0.3,1.3C705.9,381.1,705.5,380.9,705.1,380.6z"/>
	<path class="st0" d="M710.7,364.7c1.4,0.1,5.1,2.7,5.7,4c0.2,0.8,0.2,0.3-0.1,1.1C713.9,368.5,712.3,366.6,710.7,364.7z"/>
	<path class="st0" d="M571.8,515.7c0.1-0.1,0.1-0.1,0.2-0.2c0.1,0.2,0.2,0.4,0.3,0.7C572.2,516,572,515.9,571.8,515.7z"/>
	<path class="st0" d="M644.4,436.8c0.1-0.4,0.2-0.9,0.3-1.3c0.6-0.4,1.2-0.8,1.8-1.2c0.8,0.2,1.2,0.2,2.1,1.1c0,0.6-0.1,1.2-0.1,1.8
		c-0.3,0.4-0.6,0.9-1,1.3C646.1,438.7,645.4,438.4,644.4,436.8z"/>
	<path class="st0" d="M630.2,454.7c0.3-0.4,0.6-0.9,1-1.3c0.1,0.1,0.2,0.2,0.3,0.3c-0.3,0.4-0.6,0.9-1,1.3
		C630.4,454.9,630.3,454.8,630.2,454.7z"/>
	<path class="st0" d="M657.1,422.7c0.2-0.1,0.4-0.2,0.6-0.3c0.2,0.2,0.4,0.4,0.7,0.6c-0.2,0.3-0.4,0.7-0.6,1
		C657,423.5,657.1,423.6,657.1,422.7z"/>
	<path class="st0" d="M690.1,387.4c-0.2-0.8-0.1-0.7,0.1-1.5c0.5-0.3,1.1-0.7,1.6-1c0.2,0.3,0.4,0.6,0.7,1c0.2,0.9-0.3,1.3-1.3,2.3
		C690.6,388,690.5,388,690.1,387.4z"/>
	<path class="st0" d="M710,362.1c-2-0.9-0.8-2.8,0.6-3.9c1.1,0.2,1.5,0.2,2.8,1.4c0,0.5,0,1.1,0,1.6c-0.3,0.4-0.6,0.9-0.9,1.3
		C711.4,362.5,711.2,362.8,710,362.1z"/>
	<path class="st0" d="M710.4,347.8c0-0.2,0.1-0.3,0.2-0.5c2.7-0.9,6.1-0.7,8.8,1.2c0.3-0.1,0.5-0.1,0.8-0.2
		c-0.3-1.1-0.6-1.9-0.2-3.1c0.4-1.2,1.8-2,2.7-2.5c0.7,0.2,1.4,0.3,2.1,0.5c0.5,0.7,1,1.4,1.5,2.1c-0.4,2.1-1.3,3.1-3.3,4.1
		c-0.1,0.1-0.1,0.1-0.2,0.2c0.4,0.4,0.8,0.7,1.1,1.1c-0.2,0.2-0.3,0.3-0.5,0.5C719,351.3,714.9,351.7,710.4,347.8z"/>
	<path class="st0" d="M706.5,366.3c-0.5-0.5-1-1-1.5-1.4c0-1.1,0.4-1.6,1.3-2.3c0.5,0.2,1.1,0.4,1.6,0.6c0.1,0.3,0.2,0.6,0.3,1
		c-0.3,0.5-0.5,1-0.8,1.5C707.1,365.9,706.8,366.1,706.5,366.3z"/>
	<path class="st0" d="M665.5,405c-0.1-0.2-0.1-0.3-0.2-0.5c0.4-0.6,0.8-1.3,1.3-2c0.3,0,0.6,0,1,0c0.9,1,1,1.2,0.7,2.3
		c-0.2,0.3-0.4,0.7-0.6,1C666.7,405.7,666.4,405.6,665.5,405z"/>
	<path class="st0" d="M676.7,390.7c0.2-0.2,0.3-0.3,0.5-0.5c0.3,0.9,0.3,0.1,0,1C677.1,391,676.9,390.9,676.7,390.7z"/>
	<path class="st0" d="M636.5,426.2c-1.1-1.1-1.3-1.6-0.9-2.7c0.5-0.5,1-1,1.4-1.5c0.8,0.3,1.5,0.6,2.3,0.9c0.2,0.4,0.4,0.9,0.7,1.3
		c-0.4,0.6-0.8,1.3-1.3,2C638,426.2,637.2,426.2,636.5,426.2z"/>
	<path class="st0" d="M725.8,334.7c-0.3-0.1-0.7-0.2-1-0.3c-0.1-0.9-0.2-0.8,0.5-1.8c0.7,0.2,0.8,0.2,1.1,0.8
		c0.2,0.8,0.3,0.3-0.1,1.1C726.1,334.5,726,334.6,725.8,334.7z"/>
	<path class="st0" d="M444.8,618.8c-0.1-0.5-0.2-1.1-0.3-1.6c0.5-0.7,1.1-1.3,1.6-2c0.1-0.1,0.1-0.1,0.2-0.2
		c1.4,0.2,1.8,0.1,2.9,1.6c-0.2,1.2-0.4,1.8-1.7,3.1C446.3,619.6,445.9,619.8,444.8,618.8z"/>
	<path class="st0" d="M706.2,347.2c-0.1-0.1-0.1-0.1-0.2-0.2c0-0.2,0.1-0.3,0.2-0.5c0.3-0.1,0.5-0.1,0.8-0.2
		c0.6,0.7,0.5,0.5,0.5,1.1C707.1,347.4,706.7,347.3,706.2,347.2z"/>
	<path class="st0" d="M587,467.9c0.2-0.1,0.4-0.2,0.6-0.3c0.1-0.1,0.2-0.2,0.3-0.3c0.1,0.3,0.2,0.7,0.3,1c-0.2,0.2-0.3,0.3-0.5,0.5
		C587.6,468.4,587.3,468.2,587,467.9z"/>
	<path class="st0" d="M529.8,519.9c-7.4,13.1-17,2.4-24.3,7.3c-10.6,7.1-13.9,18.6-22.4,27.3c2.3-3.7,4.6-7.4,7-11.1
		c3.9-7.1,8.2-14.1,11.7-20.9c-1.1-3.5-8.2-2.5-11.3-8.1c0.9-4.7,6.7-6,9.4-9.7c1.1-2.6,2.2-5.1,3.3-7.7c2.4-4.3,8-5.5,10.9-7.6
		c3.3-2.3,4-7.9,8.3-9.8c0.2-0.1,0.4-0.2,0.6-0.3c0.6,1,1.2,2,1.8,3c1.5,0.7,5.9-3.7,7.2-5.8c4.4-6.9,5.6-13.9,10.4-20.9
		c5-7.3,11.4-6.5,15.5-11.4c5.2,2.6,7.1-1.9,10.8-1c1.1,0.7,2.2,1.5,3.3,2.2c8.3,4.4,13.2,12.5,2.7,18.6c-1.3,0.8-12.2,3.4-13.4,3.3
		c-2.6-0.2-4.4-1.4-7-1c-8.5,1.2-17.9,10.2-22.2,18.6c0.4,1.4,1.4,1.6,2.5,3c-1.6,6.3-3.7,10.6,2.8,15.8c-0.7,2.3-3.8,4.5-4.8,6.9
		c1.6,0.4,3.2,0.8,4.9,1.2c2.9,2.9,2.1,6.1-1.2,9.1C533.8,520.9,532.5,520.5,529.8,519.9z"/>
	<path class="st0" d="M432.6,625.2c0-0.5,0.1-1,0.1-1.5c0.5-0.4,1-0.8,1.4-1.2c0.2-0.1,0.4-0.2,0.6-0.3c0.2,0.2,0.3,0.3,0.5,0.5
		c-0.2,1.1-0.2,1.6-1.4,2.8C433.4,625.3,433,625.2,432.6,625.2z"/>
	<path class="st0" d="M435.7,621.9c-0.2-0.1-0.3-0.1-0.5-0.2c1.4-2.6,2.8-5.1,4.3-7.7c0.3,0,0.6,0,1,0c0.1,0.1,0.1,0.1,0.2,0.2
		c-0.1,1.1-0.3,2.3-0.4,3.4C438,617.9,437.4,619.8,435.7,621.9z"/>
	<path class="st0" d="M645.9,393.3c-0.3-3.6,0.9-11,7-10.8c7.1,0.2,8.1,6.9,4.4,11.9C652.2,396.8,650.5,398.2,645.9,393.3z"/>
	<path class="st0" d="M705.4,341.9c0.1-0.3,0.2-0.7,0.3-1c0.2-0.1,0.4-0.2,0.6-0.3c0.3,0.3,0.5,0.5,0.8,0.8c-0.2,0.3-0.4,0.7-0.6,1
		C706.1,342.2,705.7,342.1,705.4,341.9z"/>
	<path class="st0" d="M442.5,609c0.2,1.1,0.4,2.1,0.5,3.1c-0.2,0.2-0.4,0.4-0.6,0.7c-0.6,0.1-1.3,0.2-1.9,0.3
		c-1.3-1.8-0.3-3.1-0.9-4.7c-0.7-2-4.6-2.8-3.6-5.5c1.6-4.7,12.1-5.1,13.3-0.8c0.8,1.8,0.3,3.7-1.5,5.5
		C445.8,608.2,444.2,608.5,442.5,609z"/>
	<path class="st0" d="M617.9,430.2c-0.1-0.2-0.2-0.4-0.3-0.6c0.3-0.3,0.5-0.6,0.8-0.8c0.3,0.1,0.6,0.2,1,0.3
		c0.1,0.1,0.1,0.1,0.2,0.2c-0.3,0.4-0.5,0.8-0.8,1.1C618.4,430.3,618.2,430.3,617.9,430.2z"/>
	<path class="st0" d="M631.6,415.5c-0.8-0.2-0.4,0.2-0.7-0.6c-0.3-1.2,0.1-1.3,1.1-2.1c0.4,0.3,0.9,0.6,1.3,1
		c-0.2,0.6-0.3,1.2-0.5,1.8C632.3,415.5,632.3,415.6,631.6,415.5z"/>
	<path class="st0" d="M595.4,439c-10-1.3-11.2-12.4-7.1-19c2.4-3.9,9.2-4.9,11.8-3.6c2.4,1.2,2.3,2.4,4.6,2.2
		c1.2-0.8,2.3-2.1,2.9-3.3c0.8-0.8,1.6-1.6,2.4-2.5c0.2,0.2,0.4,0.4,0.7,0.6c-0.9,2-3.5,4.3-5.4,6.2c1.7,7.1,7.3,9.1-0.4,16.8
		C601.5,437.7,598.5,439.4,595.4,439z"/>
	<path class="st0" d="M660.6,374.4c-0.1-0.7,0-0.8,0.1-1.5c0.4-0.3,0.7-0.5,1.1-0.8c0.8-0.3,0.8-0.3,1.6,0c0.4,0.3,0.8,0.5,1.1,0.8
		c0,0.6-0.1,1.2-0.1,1.8c-0.3,0.4-0.6,0.9-1,1.3C662.4,376.1,661,376.1,660.6,374.4z"/>
	<path class="st0" d="M470.1,568.8c-0.6-1.7-0.6-2.2,0.9-3.6c0.8,0.1,1.5,0.2,2.3,0.3c0.1,0.1,0.1,0.1,0.2,0.2
		c0.3,1.5,0.6,1.8-0.4,3.4C471.8,569.3,471.4,569.6,470.1,568.8z"/>
	<path class="st0" d="M641.7,394c-0.2-0.5-0.5-1.1-0.7-1.6c0.4-0.6,0.9-1.1,1.3-1.6c0.4,0.1,0.8,0.1,1.1,0.1
		c0.3,0.4,0.6,0.7,0.8,1.1c-0.4,0.7-0.8,1.3-1.3,2C642.5,394,642.1,394,641.7,394z"/>
	<path class="st0" d="M479.9,558.8c1.1-1.4,2.1-2.8,3.2-4.3c0.1,0.1,0.1,0.1,0.2,0.2c-0.9,1.5-1.9,3.1-2.8,4.6
		C480.2,559.1,480,558.9,479.9,558.8z"/>
	<path class="st0" d="M612.6,411.4c-5-5.8-1.9-15.7,6.3-14.3c7.1,1.2,8,9.4,3.4,13.9C618.2,412.1,616.7,411.9,612.6,411.4z"/>
	<path class="st0" d="M696.4,324.6c-3.5-3.3-0.1-10.2,4.6-9.6c4.6,1.1,3.5,6.8,0.8,9.4C699.5,324.7,698.6,325.3,696.4,324.6z"/>
	<path class="st0" d="M479.9,549.9c-1.6,0.4-4.1-0.7-5.5-0.2c-1.1,0.4-1.4,1.2-2.2,1.3c-1-1.1-0.4-1.7-0.8-2.4
		c-0.9-1.5-3.1-2.2-3.8-4.3c-1.7-5.1,5.5-13.3,11.1-14.4c1.5-0.3,2.6,1,4.2,1.6c7.9,2.9,8.3,9.7,1.5,16.2
		C482.9,548.3,481.4,549.1,479.9,549.9z"/>
	<path class="st0" d="M691.3,334c0-0.2,0-0.4,0-0.6c0.1-0.1,0.1-0.1,0.2-0.2c0.6,0.8,0.5,0,0.3,1C691.6,334.1,691.5,334.1,691.3,334
		z"/>
	<path class="st0" d="M606.6,420.8c0.1,0.2,0.1,0.3,0.2,0.5C606.7,421.2,606.6,421,606.6,420.8z"/>
	<path class="st0" d="M628.4,394.5c0.2-0.8,0.6-1.6,1.3-2c0.7-0.2,0.9-0.1,1.6,0c1.5,1.4,1.5,2.2-0.1,3.7
		C629.6,396.2,629.3,396,628.4,394.5z"/>
	<path class="st0" d="M363.6,685.3c-1.2-0.2-1.9-1.1-2.8-1.7c-0.7-1.5-0.9-2.1-0.4-3.6c2.3-1,3.4-2.8,5.8-4.3
		c0.9,0.3,1.8,0.5,2.8,0.8c1.2,1.3,1.4,2.4,0.9,3.7c-0.1,0.8-0.8,1.6-1.7,2.5C366.4,682.8,365.3,685.3,363.6,685.3z"/>
	<path class="st0" d="M644.3,373.8c-0.1-0.1-0.1-0.1-0.2-0.2c0.2-0.4,0.4-0.9,0.6-1.3c0.3,0,0.5,0.1,0.8,0.1
		c0.1,0.8,0.2,0.8-0.3,1.6C644.9,374.1,644.6,374,644.3,373.8z"/>
	<path class="st0" d="M490.9,530.3c0-0.1,0-0.2,0-0.3c-0.1-0.1-0.2-0.2-0.3-0.3c0.3-0.3,0.5-0.5,0.8-0.8c0.7,0.3,0.8,0.2,1.3,1
		c-0.2,0.3-0.4,0.7-0.6,1C491.7,530.6,491.3,530.4,490.9,530.3z"/>
	<path class="st0" d="M457.5,558.8c-0.4-1.2-0.5-1.7,0-2.9c0.4-0.8,0.9-0.9,1.6-1.3c1,0.2,1.3,0.1,2.4,1.1c0.1,0.5,0.2,1.1,0.3,1.6
		c-0.4,0.7-0.8,1.3-1.3,2C459.3,559.4,458.8,559.6,457.5,558.8z"/>
	<path class="st0" d="M630.1,379.9c0.1,0.2,0.1,0.3,0.2,0.5C630.2,380.2,630.2,380,630.1,379.9z"/>
	<path class="st0" d="M366.8,666c-0.3-0.3-0.5-0.5-0.8-0.8c0-0.6,0.1-1.2,0.1-1.8c0.4-0.9,1.3-1.2,2.1-1.5c1.4,0.8,1.9,1.3,1.7,2.9
		c-0.3,0.4-0.5,0.8-0.8,1.1C368.2,666,367.7,666.1,366.8,666z"/>
	<path class="st0" d="M697.8,299.8c-0.4-0.6-0.8-1.2-1.2-1.8c0.2-0.7,0.3-1.4,0.5-2.1c1-1,1.5-1.4,2.4-1.5c1.1-0.2,1.9,0.5,3.1,1.7
		c0,0.6,0,1.3,0,1.9c-0.5,0.6-1,1.2-1.4,1.8C699.8,300.1,699.2,300.2,697.8,299.8z"/>
	<path class="st0" d="M443.9,557.7c-3,0.8-16.5,6.7-15.4-2.2c1.4-2.3,3.2-3,5.1-4.6c2.9,1.2,6.2-0.1,8.9,1.3
		c2.2,1.2,2.6,2.6,4.4,3.3c0.2,0.4,0.3,0.7,0.5,1.1c-0.2,1-0.3,1.6-1.3,2.6C445.4,559,444.8,558.6,443.9,557.7z"/>
	<path class="st0" d="M661,329.7c-2-0.2-5.4-1.6-4.6-4.5c-0.4-3.6,4.1-5.1,6.6-4.1c2.8,2.6,2.5,5.2-0.4,7.9
		C662.1,329.3,661.5,329.5,661,329.7z"/>
	<path class="st0" d="M496.3,497.8c-3.3,1-6.4-1.1-9.7-1.5c-8.5-10.4-3.7-19,6.4-25.3c-0.1-0.4-0.2-0.9-0.3-1.3
		c-1.1-0.2-1.2-0.1-2.3,1c-0.3-0.5-0.6-1-0.8-1.4c-3,3.8-5.7,9.9-10.9,7.9c-1.6-0.6-3.3-2-3.9-3.8c-0.9-2.8-0.6-7.6,3.4-10.4
		c0.9-0.6,1.7-1.1,2.6-1.7c0.2-1.2,0.4-2.4,0.6-3.6c1.5-4.1,4.5-7.3,7.9-10.1c0.1-1-0.3-1.5,0.3-2.6c1.1-1.9,5-4.9,7.4-5.3
		c1.4,0.8,2.3,1.7,3.1,3c-0.4,2.6-1.3,3.4-3.8,5.6c3.3,5.3,3.3,7.6-0.8,13c0.5,1.4,1.2,2.1,0.7,3.6c-0.5,0.4-1,0.8-1.4,1.2
		c-0.8-0.6-1.5-1.3-2.3-1.9c-0.1,0.1-0.1,0.1-0.2,0.2c0.2,1.6,1.2,2,2.2,3.7c0.5,1,0.6,2.6,1.8,3.7c2.3,2.2,5.5,0.6,7.8,3.8
		c4.5,6.3,2.8,13.7-3.8,20.3C499,496.4,497.6,497.1,496.3,497.8z"/>
	<path class="st0" d="M567.7,420.4c-0.2-0.4-0.4-0.9-0.7-1.3c0.3-0.2,0.6-0.4,1-0.7c0.3,0.2,0.5,0.3,0.8,0.5
		c-0.1,0.4-0.2,0.9-0.3,1.3C568.3,420.3,568,420.4,567.7,420.4z"/>
	<path class="st0" d="M389.5,601.8c0.2-0.4,0.3-0.8,0.5-1.1c0.2-0.1,0.4-0.2,0.6-0.3c0.3,0.1,0.5,0.1,0.8,0.2
		c0.1,0.4,0.2,0.9,0.3,1.3c-0.3,0.3-0.6,0.7-1,1C390.4,602.4,389.9,602.1,389.5,601.8z"/>
	<path class="st0" d="M517.6,460.1c-0.6-3.5,3.4-7.9,7-6.3c1.3,0.5,1.9,1.4,2.9,2.5c0.3,3,0.6,4.5-2.6,7.6
		C522.4,464.2,518.4,464.1,517.6,460.1z"/>
	<path class="st0" d="M344,668.7c-1.8-0.3-2.8-0.7-3.9-2.5c0.8-4.1,4.7-6.9,8.3-5.9c0.5,0.7,1,1.4,1.5,2.1c-0.2,1.7-0.3,2.7-2.2,4.6
		C346.4,667.5,345.2,668.1,344,668.7z"/>
	<path class="st0" d="M431.1,534.4c-0.2-0.2-0.3-0.3-0.5-0.5c-1.3,0.6-2,1.3-3.4,0.9c-0.5-0.4-1-0.7-1.5-1.1c0-1,0.4-2.1,0.1-3.1
		c-4.4-0.5-6.9,3.6-11.4,4.9c-2.4,0.7-4.2,0.6-6.9,2.2c-1.4-0.6-2.2-1.7-3.1-3c0.3-1.4,2.1-3,2.5-4.6c0.7-2.7,0.5-5.7,1.7-8.6
		c-0.1-0.3-0.1-0.5-0.2-0.8c-5.5-0.1-14.5,2.9-19.8,5.9c-0.2,0-0.3-0.1-0.5-0.2c0.5-2.9,8.5-5.6,10.7-7.1c6.6-4.5,1-11.3,9.3-16.2
		c4.6-2.7,13.5,0.9,18.9-4.6c10.1,5.7,13.5,16.3,11.3,24.1c-1.2,4.4-3.8,8.1-4.4,12.4c-0.6,4.5,2.5,11-0.4,15.2
		C431.3,545.8,430.5,538.9,431.1,534.4z"/>
	<path class="st0" d="M334.8,672.3c-0.1-0.2-0.1-0.3-0.2-0.5c0.3-0.4,0.5-0.8,0.8-1.1c0.1-0.1,0.1-0.1,0.2-0.2
		c0.6,0.2,0.9,0.3,1.6,1c-0.4,0.6-0.7,1.2-1.1,1.8C335.7,672.9,335.2,672.6,334.8,672.3z"/>
	<path class="st0" d="M364.8,604.9c-1.5-1.8-2.4-4.2-2.4-6.1c-1.2-0.7-2-0.5-2.8-1.7c-0.1-0.1-0.2-0.2-0.3-0.3
		c0.3-2.4,1.6-1.8,2.9-3.6c0.4-1.6,0.8-3.2,1.2-4.9c2.3-4.7,8.2-6,11.6-5c4.7,1.4,10,9.4,9.7,13c-0.2,2.8-2.6,5.8-5.5,8.7
		C373.8,606,370.2,606,364.8,604.9z"/>
	<path class="st0" d="M637.3,337.7c-1.2-0.7-1.7-1.2-2.5-2.4c0.1-0.7,0.3-1.4,0.5-2.1c0.8-0.5,1.6-1,2.4-1.5
		c0.7,0.2,1.3,0.4,1.9,0.6c1.9,1.9,1.6,3.2-0.6,5.2C638.5,337.6,637.9,337.6,637.3,337.7z"/>
	<path class="st0" d="M523.6,449c-3.7-3.5-2.6-6.1-1.4-9.7c0-0.3,0.1-0.5,0.1-0.8c-0.2-0.2-0.4-0.4-0.7-0.6
		c-2.2,0.6-4.2,1.5-6.3,1.9c-6.4-3.7-8.2-13.7,0.1-15.9c2.6-0.7,8.6,1.4,9.6,5.5c0.6,2.2-1.5,4.3-0.9,6.5c0.2,0.3,0.4,0.6,0.7,1
		c8-0.3,11.2,5.7,5,12.2C527.5,449.4,526.1,449.9,523.6,449z"/>
	<path class="st0" d="M657.5,313.3c-1.5-0.4-3.3-1.4-3.6-3.2c-0.5-2.2,2.4-4.7,4.6-6.1c0.6,0.2,1.2,0.3,1.8,0.5
		c0.4,0.4,0.9,0.9,1.3,1.3c1.2,2.5-0.1,4.6-2.8,7.2C658.4,313.1,657.9,313.2,657.5,313.3z"/>
	<path class="st0" d="M626.7,342.7c-0.9-1.2-0.7-1.6,0.5-2.8c0.2-0.1,0.3-0.1,0.5-0.2c0.4,0.2,0.8,0.3,1.1,0.5
		c0.1,0.3,0.2,0.7,0.3,1c-0.4,0.5-0.7,1-1.1,1.5C627.6,342.7,627.1,342.7,626.7,342.7z"/>
	<path class="st0" d="M297.3,678.2c-0.9,0.2-1.9-0.2-2.8-0.5c-1.5-1.5-1.8-2.3-2.5-3.7c0.7-3.9,3.3-5.7,7.1-4.3
		c1.9,1.9,1.9,3.1,2.2,5c-0.7,1-1.5,2-2.2,2.9C298.5,677.9,297.9,678,297.3,678.2z"/>
	<path class="st0" d="M541.8,419.2c-0.4-0.7-0.9-1.5-1.3-2.2c0.6-1.4,1.1-2,2.6-3c0.5,0.1,1.1,0.2,1.6,0.3c0.5,0.7,1,1.4,1.5,2.1
		c-0.3,1.1-0.4,1.7-1.6,2.9C543.7,419.2,542.7,419.2,541.8,419.2z"/>
	<path class="st0" d="M462.1,496.9c-0.9-0.3-2-1.2-2.5-2.1c-0.5-1.3-0.5-2.7,0.1-4.1c0.5-0.7,1.1-1.3,1.6-2c1.7-0.1,2.8-0.1,4.5,0.6
		c2.5,2.5,2,4.8-0.9,7.5C463.9,496.8,463.3,497.3,462.1,496.9z"/>
	<path class="st0" d="M568.9,386.4c-0.7-0.5-1.3-1.1-2-1.6c-0.1-0.7-0.1-1.4-0.2-2.1c0.7-0.7,1.4-1.4,2.1-2.1
		c1.3-0.5,2.2-0.2,3.4,0.8c0.5,1.2,0.8,2,0.4,3.2c-0.4,0.5-0.7,1-1.1,1.5C570.6,386.2,569.7,386.3,568.9,386.4z"/>
	<path class="st0" d="M650.5,298.8c1.5,0.6,1.7,2.5,1.5,3.7c-0.2,0.2-0.3,0.3-0.5,0.5C647.3,302.3,647.5,297.7,650.5,298.8z"/>
	<path class="st0" d="M570.8,359.8c6.8-1.9,9.1,7.3,3.6,12.4C563.6,374.2,562,362.3,570.8,359.8z"/>
	<path class="st0" d="M521.9,416.7c-5.9-2.5-7.7-13.3-0.9-17.1c8.4-4.8,23.1,4.3,11.9,15C528,416.9,526.7,418.8,521.9,416.7z"/>
	<path class="st0" d="M616.6,304.8c0.8-2.1,3.9-4.4,5.9-6.4c7,1.8,8.2,9,3.6,13.4C622.1,312.7,613.9,311.4,616.6,304.8z"/>
	<path class="st0" d="M469.2,471.5c-2.6,0-4.3-0.4-6.9,0.6c-5.4-3.5-9-13.1-2.5-17.5c2.5-1.7,4.6-1.3,6.8-2c1.8-0.6,1.7-1.9,3.5-1
		c1,0.6,0.4,1.9,1.7,2.6c0.7,0.3,1.1-0.4,2.1,0.8c0.1,0.1,0.2,0.2,0.3,0.3c0,0.1,0,0.2,0,0.3c-0.1,1.1-0.3,2.3-0.4,3.4
		c1,4.7,0.6,6.9-3.4,11.7C470,471,469.6,471.2,469.2,471.5z"/>
	<path class="st0" d="M395.1,543.5c-3.8-0.4-6.1-5.6-5.3-8c1.2-3.6,6.8-5.9,8.8-4.8c4.5,2.2,2,8.2,0.5,11.3
		C397.8,542.4,396.5,542.9,395.1,543.5z"/>
	<path class="st0" d="M596,334.2c0.2-0.5,0.3-1,0.5-1.5c0.6-0.4,1.2-0.8,1.8-1.2c1.2,0.5,1.5,1,2.1,2.1c-0.4,0.7-0.8,1.3-1.3,2
		C597.6,335.8,597.1,335.6,596,334.2z"/>
	<path class="st0" d="M439.7,498.3c-0.8,0.3-0.8,0.3-1.6,0c-1.2-0.4-2.2-2-2.6-2.9c0.3-1.4,0.6-2.3,2.1-3.8c1.5-0.1,2.7-0.1,4.2,0.9
		c0.2,0.6,0.3,1.2,0.5,1.8c-0.2,1.2-0.3,2.1-1.4,3.4C440.4,498,440,498.1,439.7,498.3z"/>
	<path class="st0" d="M644,281.6c-10.4-5.3,0.7-18.2,7.6-8.8c-0.3,2.9,0.2,4.5-3,7.7C647.1,280.8,645.5,281.2,644,281.6z"/>
	<path class="st0" d="M483.5,441.7c-0.5-0.4-1.1-0.8-1.6-1.3c0-0.8,0-1.5,0-2.3c0.7-0.8,1.4-1.6,2.1-2.5c1.4-0.1,2.4-0.3,3.9,0.9
		c0.3,0.7,0.6,1.4,0.8,2.1c-0.5,1.1-0.8,1.9-2.1,3.1C485.5,441.9,484.7,442.1,483.5,441.7z"/>
	<path class="st0" d="M554.9,368.3c-2.1,0.2-3.6-1.2-5.8,0.4c0.1,1.5,1.4,2.3,0.7,3.9c-1,1.9-4.6,1.3-5.7-0.4c0.5-2.5,2.4-2.9,4-5.1
		c-0.9-1.7-1.8-3.4-2.7-5.1c-1.2-4.8,2.8-9.4,7.8-10.3c8.3-1.5,10.7,8.7,5.9,14.3C557.6,366.8,556.3,367.5,554.9,368.3z"/>
	<path class="st0" d="M606.3,311.7c-0.1-0.5-0.2-1.1-0.3-1.6c0.3-0.3,0.5-0.5,0.8-0.8c0.4,0.1,0.9,0.2,1.3,0.3
		c0.1,0.3,0.1,0.5,0.2,0.8c0.1,0.5,0.1,0.1,0,0.6c-0.2,0.3-0.4,0.6-0.6,1C607.2,312,606.8,311.8,606.3,311.7z"/>
	<path class="st0" d="M614.2,296.4c-0.5-0.7-1.1-1.5-1.6-2.2c0.2-2,0.6-3.1,2.8-4.9c2.1,0.2,3.2,0.6,4.6,2.8
		c-0.2,1.6-0.2,2.5-1.9,4.2C616.6,296.7,615.8,296.9,614.2,296.4z"/>
	<path class="st0" d="M353.7,565.4c-0.1-0.5-0.1-0.1,0-0.7c0.1-0.2,0.2-0.4,0.3-0.7c0.3,0,0.5,0.1,0.8,0.2c0.2,0.1,0.4,0.2,0.7,0.3
		c0,0.3-0.1,0.5-0.1,0.8c-0.2,0.3-0.4,0.7-0.6,1C353.8,565.9,354,566.2,353.7,565.4z"/>
	<path class="st0" d="M462.8,439.7c-0.2-0.2-0.3-0.3-0.5-0.5c-1.6,1.8-1.8,3-2.7,4.7c0.8,2.5,2.5,4.4,2.2,6.9
		c-6,9.7-15.4,0.5-17.3-7.2c-1.6-6.6,4.4-8.2,8.9-11.1c1,0.2,1.3,0,2.4,1.1c0,2.2-0.7,3.5,1.7,5.8c0.2,0.1,0.3,0.1,0.5,0.2
		c2.2-1.5,5.3-2.3,6.1-4.6c0.1-0.1,0.2-0.2,0.3-0.3c-1.3-1.8-4.9-2.6-6.7-5.6c-3.9-6.4,1.8-15,9.5-16c8.5-1.2,12.7,7.5,10.4,14.3
		c-0.9,2.7-4.1,4.8-6.2,6.7c1.1,1.8,2.3,2.4,3.3,4.2c-0.2,1.4-1,2.5-2.7,4.1C468.7,443.7,464,445.4,462.8,439.7z"/>
	<path class="st0" d="M386.5,527.1c-0.1,0.1-0.2,0.2-0.3,0.3C386.3,527.3,386.4,527.2,386.5,527.1z"/>
	<path class="st0" d="M440.4,469.7c-1-0.6-1.5-0.9-2.3-1.9c0.1-1.3,0.6-3.9,2.7-3.4c2.6,0.5,2.2,3.4,1.2,4.7
		C441.5,469.2,440.9,469.4,440.4,469.7z"/>
	<path class="st0" d="M334.1,574.7c-0.1-1.4-0.5-2.4,1.1-3.4c0.8-0.3,0.8-0.3,1.6,0c0.1,0,0.2,0,0.3,0c1,1.2,1.1,1.8,1,2.9
		c-0.4,0.5-0.7,1-1.1,1.5C335.8,575.7,335.4,575.9,334.1,574.7z"/>
	<path class="st0" d="M345.7,561.5c-1.7-0.8-2.8-3.1-3.1-4c-2.5-6.4,4.1-7.8,8.3-9.5c0.7-0.2,0.3-0.2,1,0c0.1,0.2,0.1,0.3,0.2,0.5
		c-0.4,0.5-0.7,1-1.1,1.5C356.9,555.3,351.9,564.3,345.7,561.5z"/>
	<path class="st0" d="M399.8,483.2c-0.1-0.2-0.1-0.3-0.2-0.5c-3.1-0.2-10.7-2-6.6-7.4c0.8-0.7,1.6-1.4,2.4-2.1
		c0.6-1.4-0.3-2.2,1.7-3.1c2.4,1.7,4.6,6.1,5.3,8.7c0.9,0,1-0.3,1.6-0.7c0.1,0.1,0.1,0.1,0.2,0.2c-0.6,0.8-1.2,1.6-1.7,2.5
		c-0.1,0.1-0.2,0.2-0.3,0.3c2,1.3,3.5,0.2,5.4,1.1c7.7,3.5,6.7,11.1,1.5,16.2C399.1,501.7,391,492.1,399.8,483.2z"/>
	<path class="st0" d="M610,286.9c-6.5,0.2-13.6-7.7-11.7-13.9c1.7-5.5,8.4-5.7,10.2-10.8c0.6-3.4-5-7.9,0.3-12.1
		c3.5-2.8,11.3-2,12,4c0.3,2.4-0.7,4.8-0.1,7.3c-2.9,2.5-2.2,3.9,0.9,4.7c3.1-2.3,3.9-6.3,8.5-8.1c0.6-0.1,1.2-0.1,1.8-0.2
		c2,2.2,1.7,5.2-1,7.3c-1.4,1.1-3.5,1.3-4.8,3.3c-3.2,5.1-6.7,12-11.6,16.8C613,285.8,611.5,286.4,610,286.9z"/>
	<path class="st0" d="M517,382.3c0-0.3,0-0.6,0-1c0.7-0.3,1.4-0.6,2.1-0.8c0.2,0.2,0.4,0.4,0.7,0.6c0.1,0.9,0.1,1.1-0.8,2.1
		C518.1,383.1,518,383.1,517,382.3z"/>
	<path class="st0" d="M552.7,341.3c-1.8-0.6-2.3-2.1-3-3.5c0.6-3.4,2.1-5.3,5.6-5.7c2.7,1.5,3.2,3.3,3.5,5.6c-0.6,1-1.3,2-1.9,2.9
		C555.2,341.2,554.4,342,552.7,341.3z"/>
	<path class="st0" d="M565.9,322.5c-1-2.7-0.9-4.5,2-7.3c1.9-0.2,2.7-0.5,4.7,0.4c2.5,2.4,1.8,5.3-0.9,7.8
		C569.2,323.9,568.4,323.7,565.9,322.5z"/>
	<path class="st0" d="M417.7,476.6c-0.3-0.4-0.6-0.7-0.8-1.1c0.3-0.4,0.5-0.8,0.8-1.1c0.3-0.1,0.5-0.1,0.8-0.2
		c0.2,0.2,0.4,0.4,0.7,0.6c0,0.4,0,0.9,0,1.3c-0.2,0.2-0.3,0.3-0.5,0.5C418.3,476.6,418,476.6,417.7,476.6z"/>
	<path class="st0" d="M421.3,469.6c0.1,0.5,0.1,0.1,0,0.7C421.3,470,421.3,469.8,421.3,469.6z"/>
	<path class="st0" d="M311.5,581.9c-0.9,0.3-1.4,0-2.3-0.3c-0.4-0.8-0.9-1.5-1.3-2.2c0.7-0.9,1.4-1.8,2.1-2.8
		c0.1-0.1,0.1-0.1,0.2-0.2c2.2,0.2,3.9,1.2,3.4,3.7c-0.4,0.5-0.7,1-1.1,1.5C312.2,581.6,311.8,581.7,311.5,581.9z"/>
	<path class="st0" d="M617.2,265.8c-0.2,0.1-0.3,0.1-0.5,0.2c-0.1,0.1-0.1,0.1-0.2,0.2c0.4,0.3,0.8,0.5,1.1,0.8
		C617.5,266.5,617.4,266.2,617.2,265.8z"/>
	<path class="st0" d="M499.9,387.1c-1.1-0.2-1.6-0.2-2.8-1.1c-0.8-2-0.8-3.4,1.5-4.9c0.8,0.2,1.5,0.4,2.3,0.6c0.5,0.7,1,1.4,1.5,2.1
		c-0.2,1.1-0.8,1.9-2.1,3.1C500.3,387,500.1,387,499.9,387.1z"/>
	<path class="st0" d="M582.1,299.9c-0.6-0.3-1.3-0.6-2-0.9c-0.2-1.2-0.6-1.9-0.2-3.1c0.3-0.9,1.5-1.8,2.2-2c0.8,0.1,1.5,0.2,2.3,0.3
		c1.3,1.4,1.4,2.3,0.9,3.7c-0.3,0.4-0.6,0.9-1,1.3C583.6,299.5,582.8,299.7,582.1,299.9z"/>
	<path class="st0" d="M367,513.3c-1.1-2.6-1.4-4.3,1.4-7c2-0.3,4.9-1.2,6,2c0.8,2,0.2,3.6-2,5.7C370.5,514.3,369,514.5,367,513.3z"
		/>
	<path class="st0" d="M619.9,247.9c0.2-0.4,0.4-0.9,0.6-1.3c1.4-1.2,1.7-0.8,3.1-0.5c2.1,2.2,3,5.8,1.4,8.1
		C622.1,253.4,620.3,250.2,619.9,247.9z"/>
	<path class="st0" d="M503,378.3c-0.8-1-0.7-1.1-0.2-2.1c0.5-0.1,0.4-0.1,1,0c0.3,0.2,0.5,0.3,0.8,0.5c0.1,0.1,0.1,0.1,0.2,0.2
		c-0.3,0.5-0.5,1-0.8,1.5C503.7,378.3,503.4,378.3,503,378.3z"/>
	<path class="st0" d="M508.6,369.6c0.1-0.1,0.1-0.1,0.2-0.2c0.3,0.1,0.7,0.2,1,0.3c0.1,0.1,0.1,0.1,0.2,0.2
		c-0.3,0.4-0.5,0.8-0.8,1.1C508.3,370.5,508.2,370.6,508.6,369.6z"/>
	<path class="st0" d="M302.3,581.8c-1.4-0.2-2.3-0.3-3.7-1.7c-0.8-1.7-0.8-2.9-0.2-4.7c1.4-1.4,2.9-2.4,4.3-2.5
		c0.9,0.1,1.7,1.5,2.8,2.1c1.2,1.8,0.5,4.3-1.5,6.2C303.4,581.4,302.8,581.6,302.3,581.8z"/>
	<path class="st0" d="M356.2,523.4c-3.2-1.6-3.8-4-2.5-6.6c1.9-1.8,5.2-1.8,6,1c0.4,1,0.4,1.9,0,2.9c-0.6,0.7-1.2,1.4-1.8,2.1
		C357.4,523.1,356.8,523.3,356.2,523.4z"/>
	<path class="st0" d="M410.1,456.5c-0.9,0.3-1.1,0.1-1.9,0c-0.4-0.7-0.9-1.5-1.3-2.2c0.2-0.5,0.3-1,0.5-1.5c0.3-0.2,0.5-0.3,0.8-0.5
		c1.4-0.5,2.2-0.3,3.6,1.2c1.2-1.7,1.6-2.3,3.4-2.8c0.8,0.6,1.5,1.3,2.3,1.9c-0.2,1.6-0.1,2.2-1.9,3.9
		C411.8,456.2,413.6,454.8,410.1,456.5z"/>
	<path class="st0" d="M338.8,531.8c0.1-0.2,0.2-0.4,0.3-0.7c0.2-0.1,0.3-0.1,0.5-0.2c-0.1,0.3-0.2,0.7-0.3,1
		C339.1,531.9,339,531.8,338.8,531.8z"/>
	<path class="st0" d="M490.5,371.2c-0.1-0.1-0.2-0.2-0.3-0.3c0.2-0.2,0.4-0.4,0.6-0.7c0.4,0.2,0.8,0.3,1.1,0.5
		c1.3,1.2,1.6,2.1,0.9,3.4C491.6,373.5,490.7,372.2,490.5,371.2z"/>
	<path class="st0" d="M510.7,325.1c3.6-0.2,6.7,0.2,9.6,4.6c-0.1,3.6,0,7.1-3.7,10.7C507.4,342.5,503.4,332.1,510.7,325.1z"/>
	<path class="st0" d="M431.4,425.7c-2.2-0.5-3.7-1.7-4.4-4c0.4-1,0.8-2,1.3-2.9c0.9-1.8,3.5-1.7,5-1.2c0.7,0.9,1.4,1.8,2.1,2.7
		c-0.2,1.6-0.3,2.9-1.9,4.6C432.8,425.2,432.1,425.5,431.4,425.7z"/>
	<path class="st0" d="M482.2,360c0.1-0.2,0.1-0.3,0.2-0.5c0.1-0.1,0.1-0.1,0.2-0.2c1.5,2,4,5.1,2.8,7.2
		C483,365.7,483.3,361.9,482.2,360z"/>
	<path class="st0" d="M574.3,269.5c-1.1-0.7-1.8-1.2-2.8-2.4c0-1.5-0.1-2.5,0.4-4c1-0.7,2-1.4,3-2.2c1.4,0.3,3.2,0.8,3.8,2.7
		c0.4,1.1,0.4,2,0.2,3.1c-0.6,0.7-1.2,1.4-1.8,2.1C576.3,269,575.3,269.2,574.3,269.5z"/>
	<path class="st0" d="M518.5,326.6c-0.2-0.2-0.3-0.3-0.5-0.5c0-0.7,0.1-1.4,0.1-2.1c0.4-1.3,1.4-1.5,2.4-1.2c0.3,0.2,0.7,0.4,1,0.6
		c0,0.5,0,1.1,0,1.6c-0.3,0.4-0.5,0.8-0.8,1.1C520,326.3,519.3,326.5,518.5,326.6z"/>
	<path class="st0" d="M488.5,357.4c-0.4-0.7-0.8-1.4-1.2-2.1c0.5-0.5,1-1,1.4-1.5c0.1-0.1,0.2-0.2,0.3-0.3c1.4,0.3,2.5,1,2,2.6
		c-0.4,0.5-0.8,1.1-1.3,1.6C489.4,357.6,488.9,357.5,488.5,357.4z"/>
	<path class="st0" d="M298.6,546.6c-8.8-1-8.5-11.1-5.2-16.3c8.6-13.6,26.8-1.2,15.4,11.4C304.4,543.8,302.7,547.1,298.6,546.6z"/>
	<path class="st0" d="M540.2,280c-0.5-12.9,11.8-7,17.5-12.4c1.2,0.4,6.4,4.3,7,5.6c1.6,3.7-2,7.6-6,11.4
		C553.1,285.2,545.7,285.5,540.2,280z"/>
	<path class="st0" d="M366.6,480.2c-0.7-0.3-1.4-0.5-2.1-0.8c-0.1-0.1-0.1-0.1-0.2-0.2c0.2-2.1,1.1-3.4,3.4-2.8c0.3,0.3,0.7,0.6,1,1
		c-0.3,0.7-0.5,1.4-0.8,2.1C367.4,479.8,367,480,366.6,480.2z"/>
	<path class="st0" d="M471.1,372.1c-0.2-0.2-0.4-0.4-0.7-0.6c0.2-0.3,0.4-0.7,0.6-1c0.1-0.1,0.1-0.1,0.2-0.2
		c0.3,0.1,0.5,0.1,0.8,0.1c0.1,0.7,0.2,0.7-0.1,1.5C471.6,372,471.3,372,471.1,372.1z"/>
	<path class="st0" d="M289.4,554.7c-0.1-0.1-0.1-0.1-0.2-0.2c0.1-1-0.1-2,1.3-2.6c0.9-0.2,1.2,0,2.1,0.5c0.2,1.2,0.4,1.5-0.4,2.8
		C291,555.3,290.7,555.4,289.4,554.7z"/>
	<path class="st0" d="M426.6,409c-6-0.7-4-10-0.8-12.9c8-2.3,6.3,4,12.1,6.6c-0.3,0.3-0.5,0.5-0.8,0.8
		C432.5,404.8,432.5,411.3,426.6,409z"/>
	<path class="st0" d="M324.7,516.8c-0.2,0.2-0.3,0.3-0.5,0.5C324.4,517.1,324.5,516.9,324.7,516.8z"/>
	<path class="st0" d="M368.3,467.9c-0.5-0.4-1-0.7-1.5-1.1c-0.1-0.2-0.1-0.3-0.2-0.5c0.2-1,0-1.3,1.1-2.4c0.5,0.1,1,0.1,1.5,0.1
		c0.3,0.4,0.7,0.9,1,1.3c-0.2,0.9-0.3,1.4-1.1,2.4C368.9,467.8,368.6,467.9,368.3,467.9z"/>
	<path class="st0" d="M516.1,314c0.1-0.4,0.2-0.9,0.3-1.3c0.1-0.1,0.1-0.1,0.2-0.2c0.4,0.3,0.8,0.5,1.1,0.8c-0.2,0.3-0.4,0.7-0.6,1
		C516.7,314.2,516.4,314.1,516.1,314z"/>
	<path class="st0" d="M479.3,345.6c0.1-0.2,0.2-0.4,0.3-0.6c2.2,0.3,2.6,3.4,2.3,4.8c-0.2,0.2-0.3,0.3-0.5,0.5
		C480.7,348.7,480,347.1,479.3,345.6z"/>
	<path class="st0" d="M310,522c-0.4-1.3-0.6-2.7,0.9-3.6c0.6-0.1,1.2-0.1,1.8-0.2c0.2,0.1,0.4,0.2,0.6,0.3c0.9,1.1,1,1.5,0.7,2.6
		c-0.4,0.5-0.7,1-1.1,1.5C311.8,522.6,311.2,522.8,310,522z"/>
	<path class="st0" d="M524.3,301.2c-0.5-0.9-1-1.8-1.5-2.7c1-2.2,2.2-3.4,4.5-3c0.8,0.7,1.5,1.5,2.3,2.2c-0.3,1.2-0.7,2.2-1.7,3.4
		C526.4,301.5,525.8,301.5,524.3,301.2z"/>
	<path class="st0" d="M370,459c-1-0.6-2.3-1.4-3-2.5c-0.1-0.8-0.1-1.6-0.2-2.4c1.4-2.1,2.6-2,4.3-2.2c2.8,1.4,4.6,3.6,2,6.4
		C372.1,458.5,371.1,458.8,370,459z"/>
	<path class="st0" d="M385.1,441.8c0-0.2,0-0.4,0-0.7c0.2-0.2,0.4-0.4,0.6-0.7c0.1,0,0.2,0,0.3,0c0.1,0.1,0.2,0.2,0.3,0.3
		c0,0.2,0,0.4,0,0.6c-0.2,0.2-0.3,0.3-0.5,0.5C385.7,441.9,385.4,441.8,385.1,441.8z"/>
	<path class="st0" d="M478.1,343.5c-0.9-1.1-0.9-1-0.2-2.1c0-0.4,0-0.9,0-1.3c0.2,0.1,0.3,0.1,0.5,0.2c0.2,1.2,0.5,2.4,0.7,3.6
		C478.8,343.7,478.4,343.6,478.1,343.5z"/>
	<path class="st0" d="M530.7,286.1c-0.3-0.2-0.6-0.4-1-0.6c-0.1-0.6-0.1-1.2-0.2-1.8c0.2-0.1,0.4-0.2,0.6-0.3
		c0.2-0.1,0.4-0.2,0.6-0.3c1.3,0.8,1.5,1.4,0.9,2.7C531.4,285.9,531,286,530.7,286.1z"/>
	<path class="st0" d="M273.3,547c0.2-1.1,0.2-1.4,1.3-2.6c1.2,0.1,1.6,0.3,2.5,1.4c-0.3,0.7-0.5,1.4-0.8,2.1
		C274.9,548.1,274.7,548.3,273.3,547z"/>
	<path class="st0" d="M451.9,364.3c-1.7-0.3-2.8-1.5-1.3-3.2c0.6-0.1,1.2-0.1,1.8-0.2c0.2,0.3,0.4,0.6,0.7,1c0.3,1,0.2,1.3-0.6,2.3
		C452.2,364.2,452,364.2,451.9,364.3z"/>
	<path class="st0" d="M536.1,276c-0.3,0-0.5-0.1-0.8-0.1c-0.2-0.3-0.4-0.6-0.7-1c0.2-0.4,0.3-0.8,0.5-1.1c0.5-0.1,1.1-0.2,1.6-0.3
		c0.2,0.4,0.4,0.9,0.7,1.3c-0.3,0.4-0.5,0.8-0.8,1.1C536.4,275.9,536.2,275.9,536.1,276z"/>
	<path class="st0" d="M324.5,491c-2.4-0.3-3.1-2.6-5.7-1.1c-0.3,0-0.5-0.1-0.8-0.2c-0.4-0.4-0.8-0.7-1.1-1.1
		c0.7-1.2,1.9-1.3,2.6-2.3c1.4-2.3,0.9-5.6,4.8-6.2c5.4-0.8,8.4,5.6,3.7,10C326.7,490.5,325.6,490.7,324.5,491z"/>
	<path class="st0" d="M570,240.1c-0.3-1-0.5-0.9,0.3-1.9c0.3,0,0.6,0,1,0c0.2,0.2,0.4,0.4,0.7,0.6c-0.4,0.5-0.7,1-1.1,1.5
		C570.6,240.2,570.3,240.1,570,240.1z"/>
	<path class="st0" d="M333,475c-0.2-0.2-0.3-0.3-0.5-0.5c0-0.8,0.1-1.6,0.1-2.4c0.4-0.2,0.7-0.3,1.1-0.5c0.4,0.4,0.8,0.7,1.1,1.1
		c0.3,0.9,0.2,1.3-0.3,2.3C334.1,475,333.5,475,333,475z"/>
	<path class="st0" d="M415.2,391.2c-1.3-0.1-3-0.1-3.7-1.4c-1.6-1.8-1.2-3.2-0.6-5c1-0.7,1.9-1.3,2.9-2c1.1,0.5,2.3,0.9,3.4,1.4
		c1.1,2.3,1.1,4-1,6.3C415.8,390.7,415.5,391,415.2,391.2z"/>
	<path class="st0" d="M231,578.3c0.3,0.9,0.3,0.1,0,1C230.8,578.7,230.6,579.2,231,578.3z"/>
	<path class="st0" d="M465.9,314.1c-5-6.1-3.5-14.8-6-21.1c-1.3-3.2-4.1-1.8-6.2-3.2c-1-1.1-2.1-2.2-3.1-3.4
		c-6.2-4.1-6.4-2.9-12.3-0.2c-3.3,1.5-4.4,1.3-6.7,5c-0.2-0.1-0.4-0.2-0.6-0.3c-0.2-0.7-0.3-1.4-0.5-2.1c-4.6-0.3-14.4,1-14.5-6.8
		c-0.2-0.9-0.4-1.8-0.5-2.8c1.3-3.9,4.2-6.4,4.5-10.3c-0.6-0.6-1.3-1.3-2-1.9c1.1-0.3,1.3,0.3,2,1.3c2-0.6,3.3-1.4,5.2-2
		c-0.1-1-0.1-2-0.2-3.1c-1.8-2.9-8.3-2.6-10-6.2c-0.1-0.2-0.2-0.4-0.3-0.6c0.5-0.4,1-0.8,1.4-1.2c2.7,0.6,6.5,4.1,9.3,3.3
		c2.4-1.1,2.1-3.8,2.7-5.4c2.8-7.4,3.9-9.6-3.9-15c-1.7,0.7-2.7,1.9-4.3,1.5c-2.5-1.2-0.9-3-1.7-4.5c-1.5-1.3-3-2.7-4.4-4
		c0.6-1,1.3-2,1.9-2.9c0.3-2-10-9.5-12-10c-1.4-0.3-2.7,0.6-4.2,0.1c-2.1-0.8-2.2-3.1-2.3-4.5c0.8-1.3,1.7-2.6,2.5-3.9
		c1-0.1,2.1-0.1,3.1-0.2c4.8,1.1,2.1,6.9,6.8,10.1c2.1,1.4,4.4,0.8,6.2,1.9c2.4,1.4,2.5,3.7,3.3,5.1c1.6,1.6,3.3,3.2,4.9,4.8
		c5.7,5.6,9.1,9.3,14.7,7.9c1.8-0.5,4-1.9,4.8-4.3c0.3-2.2,0.6-4.3,0.9-6.5c0.4-2.5,1.5-5.2,1-7.6c-1.2,0.1-2.4,0.3-3.6,0.4
		c-0.4,1.4-0.5,2.9-2.2,3.9c-0.8,0.1-1.6,0.1-2.4,0.2c-2.6-1.8-2.9-4.1-5.4-6.6c-2.5,0-4.4,0.6-7-1.4c-1.1-5-2.2-8.7-4.1-13.9
		c0.2-0.3,0.4-0.7,0.6-1c1.5,0.1,2.9,0.3,4.4,0.4c2.6-2.7,4.6-5,7.3-7.2c0.5,0.2,1,0.3,1.5,0.5c0.6,1.2,1.2,2.5,1.8,3.7
		c3.5-1.4,6-0.7,9.4-1.8c0.4,0.8,0.8,1.6,1.2,2.4c0.2,0.1,0.3,0.1,0.5,0.2c3.1-2.9,6.4-8.8,10.4-8.4c3.4,2.2,9.6,6.6,5.5,10.8
		c-3.4-0.1-4-1.8-6.2-4.8c-0.9-0.1-1.7-0.2-2.6-0.3c-1.9,0.8-4.3,3.4-5.1,4.9c1,2.8,2.5,5.1,2.2,7.9c-0.4,3.5-2.2,4.3-3.5,7.8
		c0.1,3.3,0.2,6.6,0.3,9.9c0.5,4.7-0.3,14.9,9.1,11c2,0.5,1,2.1,2.3,2.9c1.9,1.1,2.9,0.8,4.7,1.4c1-0.8,1.9-1.5,2.9-2.3
		c0.1,0.1,0.1,0.1,0.2,0.2c0.2,2.9-1.4,6.2-1.8,9.1c0.2,0.2,0.3,0.3,0.5,0.5c2.9-1,8.9-4.6,10.1,1.1c1.3,4-3.3,5-5.4,7.8
		c-0.7,2-1.3,4-2,6c0.6,1.9,2.8,2.8,3.8,5c0.1,0.1,0.2,0.2,0.3,0.3c-1.5,0.6-2.7,0-4.2,1c-0.6,3.7-1.6,8.9,1,12.5
		c-0.6,1.5-2.7,2.7-3.7,4.7c-2.4,5-0.9,10.6,0.2,15.5c1.4,6,8.6,18.4,7,23.7C472,327.1,468.6,312.8,465.9,314.1z"/>
	<path class="st0" d="M254.4,551.3c-0.2-0.1-0.4-0.2-0.7-0.3c0.1-1,0.2-1.9,0.3-2.9c0.6-0.2,1.2-0.3,1.8-0.5
		c0.5,0.5,1.1,1.1,1.6,1.6c0.1,0.2,0.2,0.4,0.3,0.6c-0.4,0.6-0.9,1.1-1.3,1.6C255.8,551.4,255.1,551.3,254.4,551.3z"/>
	<path class="st0" d="M318,480.9c-1.5,0.7-0.9,1.4-1.9,2.9c-0.9,0.1-1.3,0.2-2.3-0.3c-0.1-0.2-0.2-0.4-0.3-0.6
		c0.3-1.6,1.1-2,2.5-2.6c-0.1-2.4-1.2-3.1,1.4-5.7c1,0.1,1.9,0.2,2.9,0.3c1.3,1.3,1.7,2.4,1.2,3.7c-0.1,0.8-0.7,1.5-1.6,2.3
		C319.1,481,318.9,481.2,318,480.9z"/>
	<path class="st0" d="M563.6,230c-0.5-0.3-1-0.5-1.5-0.8c0-0.4,0.1-0.8,0.1-1.1c1.1-0.8,1.2-0.8,2.3,0c-0.2,0.6-0.3,1.2-0.5,1.8
		C563.9,229.9,563.8,229.9,563.6,230z"/>
	<path class="st0" d="M359.8,437.9c0.1-0.2,0.1-0.3,0.2-0.5c0.4-0.1,0.8-0.1,1.1-0.2c0,0.7,0.1,0.5-0.3,1.3
		C360.5,438.3,360.1,438.1,359.8,437.9z"/>
	<path class="st0" d="M437.5,356.4c-0.7-0.6-1.4-1.2-2.1-1.8c-0.1-0.6-0.1-1.2-0.2-1.8c1.2-2.2,2.6-3.2,4.7-2.8
		c0.6,0.6,1.2,1.2,1.8,1.8c0.6,1.4,0.1,2.7-1.2,4.2C439.4,356.1,438.5,356.3,437.5,356.4z"/>
	<path class="st0" d="M266.5,524.1c-1.3-3.3,2.5-8.8,3.7-12c1.7-1.5,3.8-1.8,5.5-1c5.9,2.2,0.4,10.7-3.2,14.1
		C270.4,526,267.5,527.4,266.5,524.1z"/>
	<path class="st0" d="M534.6,250.3c-7.5-1.5-13.7-12.3-6.2-17.6c8-5.6,18.2,10.3,11.3,17C537.9,250,536.3,250.6,534.6,250.3z"/>
	<path class="st0" d="M382.8,379.8c3.1-6.4,13.4-10,17.9-3.3c1,2.6,2,5.2,3,7.7c-0.5,2.2-4.1,5.7-6.2,7.7
		C389.1,395.5,377.8,390.2,382.8,379.8z"/>
	<path class="st0" d="M369.9,407.2c-1.8-4.1,3.8-9,7.7-7.6c5.1,1.8,4.6,7.7,1.9,10.5C376.3,411.1,371.5,412.4,369.9,407.2z"/>
	<path class="st0" d="M470.2,309c-3.9-3.9,3.8-6.1,6.3-4.1c0.2,0.3,0.3,0.5,0.5,0.8c-0.3,0.9-0.6,1.7-0.9,2.6
		C473.7,309,472.5,309.7,470.2,309z"/>
	<path class="st0" d="M491.5,263c8.7-4.7,15.9,8.9,8,16.4C486.7,285,479.7,269.4,491.5,263z"/>
	<path class="st0" d="M328,452.3c-0.8-1.1-0.7-1.2-0.7-2.3c0.2-0.2,0.4-0.4,0.6-0.7c0.4,0,0.9,0,1.3,0c0.1,0.1,0.2,0.2,0.3,0.3
		c0.2,1,0.2,1.5-0.6,2.6C328.6,452.3,328.3,452.3,328,452.3z"/>
	<path class="st0" d="M466.3,310.3c0.1-0.1,0.1-0.1,0.2-0.2c-0.1-0.3-0.1-0.5-0.2-0.8c-0.2-0.2-0.4-0.4-0.7-0.6
		c-0.7,0.7-0.7,0.4-0.6,1.3c0.3,0.3,0.5,0.5,0.8,0.8C466,310.7,466.1,310.5,466.3,310.3z"/>
	<path class="st0" d="M289,488.1c-0.4-0.8-0.9-1.5-1.3-2.3c0.6-1,0.9-1.6,1.9-2c1-0.3,1.5-0.1,2.6,0.9c-0.1,0.6-0.1,1.2-0.1,1.8
		c-0.4,0.5-0.7,1-1.1,1.5C290.3,488.1,289.6,488.1,289,488.1z"/>
	<path class="st0" d="M208.1,561.5c-0.7-1.6-1.2-2.7-0.5-4.4c0.7-0.8,1.4-1.6,2.1-2.5c1.9-0.1,5-0.3,5.9,2.5
		c0.7,1.6,0.4,3.1-1.1,4.7C211.9,562.6,210.7,563.3,208.1,561.5z"/>
	<path class="st0" d="M219.5,545.1c-4.3-1-6.8-6.2-8.2-9.6c-1.8,0.2-3.6,0.4-5.3,0.6c-7.1-1.2-7.5-9.3-5-13.5
		c4.9-8.3,11.5-1.1,15.8,3.5c4.7-1.9,9.7,1.9,14.2,6.1c-0.4,2.2-3.1,8.4-4.9,10.3C224.2,543.1,220.7,544.4,219.5,545.1z"/>
	<path class="st0" d="M489.9,240.7c1.7-9.4,7.8-7.1,13-6.8c1.9,0.1,3.1-0.9,5.2,0.9c0.5,5.6,1.9,11-3.8,16.7
		C496.9,254.6,488.4,249.3,489.9,240.7z"/>
	<path class="st0" d="M376,381.2c-0.3-1.1-0.4-1.3,0.5-2.4c0.1-0.1,0.1-0.1,0.2-0.2c0.6,0.2,0.9,0.3,1.6,1c-0.4,0.6-0.8,1.3-1.3,2
		C376.7,381.4,376.3,381.3,376,381.2z"/>
	<path class="st0" d="M444.4,309.2c-0.4-1.1-0.4-1.5,0-2.6c0.3-0.1,0.5-0.1,0.8-0.2c0.6-0.1,0.7-0.1,1.3,0c0.2,0.3,0.3,0.5,0.5,0.8
		c0.3,1,0.2,1.4-0.8,2.4C445.6,309.5,445,309.3,444.4,309.2z"/>
	<path class="st0" d="M381.9,370.9c-1.1-1.1-1-1.4-1.2-2.4c0.3-0.2,0.6-0.4,1-0.7c0.8-0.2,0.8,0,1.6,0.3c0.1,0.5,0.2,1.1,0.3,1.6
		c-0.3,0.4-0.5,0.8-0.8,1.1C382.5,370.9,382.2,370.9,381.9,370.9z"/>
	<path class="st0" d="M279.1,475.6c-10.2-3.2-5.2-12.2,4.4-9.8c-0.2,3.3,1.2,5.1-2.3,8.6C280.5,474.9,279.8,475.3,279.1,475.6z"/>
	<path class="st0" d="M475.6,272.5c-0.7,0-0.5,0.1-1.3-0.3c1-1.3,1.5-1.3,2.9-0.7c0.2,0.2,0.4,0.4,0.7,0.6c-0.2,0.2-0.4,0.4-0.6,0.7
		C476.7,272.7,476.2,272.6,475.6,272.5z"/>
	<path class="st0" d="M459.8,288.4c-0.6-2.6-2.4-5.1-5.1-3.3c0.9,1.2,1.9,2.5,2.8,3.7c0.5,0.1,1.1,0.2,1.6,0.3
		C459.4,288.8,459.6,288.6,459.8,288.4z"/>
	<path class="st0" d="M208.8,543c-1.1-1.3-0.9-1.8-0.9-3.1c1.1-0.8,1.5-0.8,2.6-0.7c0.4,0.4,0.8,0.7,1.1,1.1
		c0.4,1.1,0.1,1.6-1.1,2.8C210,543.1,209.4,543.1,208.8,543z"/>
	<path class="st0" d="M336.8,411.1c-1.3-1.4-1.2-2.4,0.3-3.9c0.2,0,0.3-0.1,0.5-0.2c1,0.2,1.3,0,2.4,1.1c0,0.6,0.2,1,0,1.6
		c-0.4,0.5-0.7,1-1.1,1.5C338.2,411.1,337.5,411.1,336.8,411.1z"/>
	<path class="st0" d="M223.8,522.7c-1.1-1.1-1-1.5-0.4-2.6c0.6-0.2,1.2-0.3,1.8-0.5c0.8,0.9,0.8,1,0.8,1.8c0,0.7-0.2,0.9-0.9,1.6
		C224.6,522.9,224.2,522.8,223.8,522.7z"/>
	<path class="st0" d="M376.3,363.9c-1.1-1.2-0.9-1.5-1.3-2.6c1.1-2.1,2.2-2.8,4.2-2.3c1.8,1.7,1.5,3.3-0.1,5
		C378.1,364,377.2,363.9,376.3,363.9z"/>
	<path class="st0" d="M309,429.7c-0.1-0.1-0.1-0.1-0.2-0.2c-0.5-1.9-0.8-3.3,0.6-5.2c-0.1-0.2-0.1-0.3-0.2-0.5
		c-0.9-0.2-0.7-0.2-1.6,0.3c-0.4-1.1,0.1-2.8,0.6-3.9c0.1,0,0.2,0,0.3,0c4.5-1.1,7.8,5.4,5.9,8.7C312,429.8,311.6,430.3,309,429.7z"
		/>
	<path class="st0" d="M192.8,542.4c0.1-0.8,0.2-1.5,0.3-2.3c1.4-1.4,2.3-1.7,3.7-1.2c1.4,0.5,1.7,1.9,2,2.9c-0.5,0.7-1,1.4-1.4,2.1
		C195.5,544.4,194.7,544.5,192.8,542.4z"/>
	<path class="st0" d="M448.9,280.9c-0.1,0.5-0.1,0.1,0,0.6C448.9,281.4,448.9,281.2,448.9,280.9z"/>
	<path class="st0" d="M172.2,561.6c-0.3-0.3-0.5-0.5-0.8-0.8c0.4-0.6,0.7-1.2,1.1-1.8c0.3,0,0.6,0,1,0c0.2,0.2,0.4,0.4,0.7,0.6
		c0.1,0.9,0.1,1.2-0.5,2.1C173.2,561.7,172.7,561.7,172.2,561.6z"/>
	<path class="st0" d="M459.5,267c-0.1-0.2-0.1-0.3-0.2-0.5c-0.3,0-0.5-0.1-0.8-0.1c-0.2,0.2-0.3,0.3-0.5,0.5
		c0.3,0.3,0.5,0.5,0.8,0.8C459.1,267.5,459.3,267.3,459.5,267z"/>
	<path class="st0" d="M331.7,394.9c-0.4-0.6-0.9-1.3-1.3-1.9c0.6-0.6,1.2-1.2,1.8-1.8c0.6,0.4,1.1,0.8,1.6,1.3
		c-0.1,0.4-0.2,0.9-0.3,1.3c-0.3,0.4-0.5,0.8-0.8,1.1C332.3,394.9,332,394.9,331.7,394.9z"/>
	<path class="st0" d="M337.6,388.9c-0.6-0.5-1.2-1-1.8-1.4c0.3-2.3,1-2.9,3.2-2.3c0.3,0.6,0.6,1.2,0.8,1.8c-0.5,0.6-1,1.2-1.4,1.8
		C338.1,388.8,337.9,388.8,337.6,388.9z"/>
	<path class="st0" d="M523.7,193.1c-1.3-1.4-0.7-2.3,0.8-3.1c0.3,0.3,0.7,0.6,1,1c0.1,0.2,0.2,0.4,0.3,0.6c-0.4,0.5-0.7,1-1.1,1.5
		C524.4,193.1,524.1,193.1,523.7,193.1z"/>
	<path class="st0" d="M478.1,229.2c-0.1-0.1-0.1-0.1-0.2-0.2c-1.6,0.8-3.5,4-5.8,4.9c-11.3,4.6-8.4-8.9-14.4-12.1
		c-0.3-0.9,1.5-7.1,3.1-7.8c1.6-0.7,2.4,1.2,4.1,1.4c7.5,0.9,11.6-1.1,14.1,9.5c3.8,0.8,4.9-3.9,8.5,2.8c-0.2,1.6-0.3,2.7-2,4.4
		C482,233.4,479.9,233,478.1,229.2z"/>
	<path class="st0" d="M313.4,405.2c-0.8-0.6-1.5-1.3-2.3-1.9c0-0.7,0.1-1.4,0.1-2.1c0.5-0.6,1-1.2,1.4-1.8c0.6,0,1.3,0,1.9,0
		c1.4,1,1.8,2,1.8,3.4c-0.5,0.7-1.1,1.3-1.6,2C314.4,404.9,313.9,405.1,313.4,405.2z"/>
	<path class="st0" d="M285.4,429.8c0.2-0.3,0.4-0.7,0.6-1c0.2-0.1,0.3-0.1,0.5-0.2c0.2,0.1,0.4,0.2,0.7,0.3
		c-0.1,0.7,0.1,0.6-0.5,1.5C286.1,430.2,286.1,430.3,285.4,429.8z"/>
	<path class="st0" d="M496.4,206.1c-3.6-3.5-1.1-8.1,3.1-8.8c4,2.2,4.6,5.7,1.1,9C499,206.6,498.1,206.7,496.4,206.1z"/>
	<path class="st0" d="M188.8,525.8c-1.1,0.4-1.9,0.3-3.1-0.1c-0.6-0.8-1.2-1.6-1.8-2.4c0.3-0.9,0.5-1.8,0.8-2.8c1.2-0.6,2-1.2,3.2-1
		c1.4,0,3.1,1.2,3.1,2.7c0.3,1.1,0,1.9-1.1,3.1C189.6,525.5,189.2,525.6,188.8,525.8z"/>
	<path class="st0" d="M256.3,445.5c-0.3-0.4-0.5-0.7-0.8-1.1c0.3-0.4,0.5-0.8,0.8-1.1c0.1-0.1,0.1-0.1,0.2-0.2
		c0.9,0.2,1.1,0.2,2.1,1.1c-0.4,0.5-0.9,1.1-1.3,1.6C257,445.7,256.7,445.6,256.3,445.5z"/>
	<path class="st0" d="M184,517.9c-0.3-0.2-0.7-0.4-1-0.6c-0.4-1.2-0.5-1.7,0-2.9c1-0.3,1.4-0.3,2.4-0.2c0.4,0.6,0.8,1.2,1.2,1.8
		c-0.3,0.6-0.5,1.2-0.8,1.8C185.2,517.8,184.6,517.9,184,517.9z"/>
	<path class="st0" d="M507.7,183.6c-0.6-0.2-0.9-0.3-1.6-0.9c-0.1-0.1-0.1-0.1-0.2-0.2c0.2-0.9,0-1.1,0.8-2.1
		c0.1-0.1,0.1-0.1,0.2-0.2c1,0.1,1.2,0,2.3,0.9c0,0.4,0,0.9,0,1.3c-0.3,0.3-0.6,0.7-1,1C508.1,183.5,507.9,183.6,507.7,183.6z"/>
	<path class="st0" d="M502.6,174.5c-0.5-0.9-0.9-1.7-1.3-2.6c1.4-2.6,2.9-3.3,5.3-0.6c-0.1,0.5-0.2,1.1-0.3,1.6
		c-0.3,0.4-0.6,0.9-1,1.3C504.3,174.4,503.6,174.6,502.6,174.5z"/>
	<path class="st0" d="M242,439.3c-0.3-0.8-0.3-0.8,0-1.6c0.2-0.3,0.4-0.7,0.6-1c0.4-0.1,0.9-0.2,1.3-0.3c0.5,0.3,1,0.5,1.5,0.8
		c0.2,1.2,0.4,1.8-0.4,3.1C243.6,440.5,242.9,440.8,242,439.3z"/>
	<path class="st0" d="M291.8,389c-0.5-0.5-1-1-1.5-1.4c0.2-0.9,0.2-1.3,1.3-2.3c2,0.1,3.7,1.8,1.7,3.9
		C292.8,389.1,292.3,389.1,291.8,389z"/>
	<path class="st0" d="M164.9,513.4c-0.7-0.9-1.4-1.8-2.1-2.7c0-2.7,1.8-7.6,5.7-5.9c4.1,1.2,3.9,6.1,0.9,8.9
		C167.6,514.1,166.7,514,164.9,513.4z"/>
	<path class="st0" d="M460.9,210.5c-0.7-0.4-1.4-0.7-2.1-1.1c-0.1-0.5-0.2-1.1-0.3-1.6c0.6-0.8,1.3-1.5,1.9-2.3
		c0.5,0.1,1.1,0.2,1.6,0.3c0.7,0.7,0.9,0.9,1,1.6c0.3,1.1,0,1.6-1.1,2.8C461.5,210.3,461.2,210.4,460.9,210.5z"/>
	<path class="st0" d="M144.9,518.8c1.1-3.6,0.1-5.6,4.2-9.6c7,0.2,15.6,4.5,7.8,13C152.3,523.5,149.6,523.7,144.9,518.8z"/>
	<path class="st0" d="M400.7,269.5c-0.7-0.3-1.4-0.5-2.1-0.8c-0.2-0.5-0.3-1-0.5-1.5c0.2-0.6,0.4-1.3,0.6-1.9
		c1.5-0.6,4.7-0.2,3.8,2.4c-0.4,0.5-0.9,1.1-1.3,1.6C401,269.4,400.8,269.4,400.7,269.5z"/>
	<path class="st0" d="M384.8,282.2c0.1-0.3,0.2-0.6,0.3-1c0.4,0.8,0.4,0.3,0.2,1.1C385.1,282.3,385,282.2,384.8,282.2z"/>
	<path class="st0" d="M191,475c-0.1-0.9-0.1-1.1,0.8-2.1c0.3,0.1,0.5,0.1,0.8,0.2c0.8,0.1,0.5,0.1,1.1,0.8c-0.4,0.6-0.7,1.2-1.1,1.8
		C192.1,475.4,191.6,475.2,191,475z"/>
	<path class="st0" d="M179.2,487.4c0.3-0.3,0.5-0.5,0.8-0.8c0.4,0.9,0.4,0.4,0,1.3C179.8,487.7,179.5,487.6,179.2,487.4z"/>
	<path class="st0" d="M401.3,258c-3.8-2-4.5-5.8-1.9-8.9c1.4-0.6,2.4-0.9,3.9-0.7c2.6,1.5,3.6,4.1,2.5,6.6c-0.8,0.9-1.6,1.9-2.4,2.8
		C402.7,257.9,402,257.9,401.3,258z"/>
	<path class="st0" d="M208.5,448.2c-1.4,1.1-1.6,3.1-3.5,3.3c-2.5,0.6-18.2-10.4-22-13.5c-0.8-5.3-2.4-3.1-4.3-6.4
		c-0.3-1.1,0.5-2.5,1.3-3.6c-1.8-3-4.1-3.1-6.9-5.7c-0.1-0.1-0.1-0.1-0.2-0.2c0.6-2.6,4.3-3.1,6.6-3.5c0.9-2.9,1.9-5.8,2.8-8.8
		c0.8-1.7,2-2.6,2.2-4.2c0.7-4.5-2.9-9.8-4.3-14.3c-1.4-4.8-2.2-9.6-3.9-14.7c1.5-1.5,1.5-1.7,2.4-3.1c2.1,0.4,1.2,2.8,3,3.8
		c2.2,0.5,4.3,1,6.5,1.5c3.7,2,3.1,6.3,5.9,7.7c1.8,0.3,3.6-1.9,5.5-1.7c3.4,0.4,4.5,3.7,6.5,5.1c1.3,0.2,2.6-1.1,3.9-1
		c7.7,0.5,7.6,8.1,8.6,13.2c7.1,6.6,12.2-2.4,18.8,0.1c5.1,5.3-4.4,10.3-7.7,15.8c-0.5,1.5-1,3-1.6,4.5c0.9,2,3.4,2.9,3,5.5
		c-0.1,0.1-0.1,0.1-0.2,0.2c0,0.1,0,0.2,0,0.3c-0.1,0.1-0.2,0.2-0.3,0.3c-0.7,1.9-2.2,1.4-3.4,2.8c-2.5,3.1-3.1,8.4-6,11.4
		C218.7,442.5,210.7,446.4,208.5,448.2z"/>
	<path class="st0" d="M272.6,384.1c0.3-0.4,0.5-0.8,0.8-1.1c0.3,0.2,0.5,0.3,0.8,0.5c0,0.5,0,1.1,0,1.6c-0.2,0.2-0.3,0.3-0.5,0.5
		C273,385,273,384.9,272.6,384.1z"/>
	<path class="st0" d="M365.7,282.4c-1.1-0.7-2.3-1.4-3.4-2.1c-2.5-0.3-3.2,1-6-0.7c-5.2,1.9-1.6,14.7-12.6,12.3
		c-9.2-1.9-11.9-17.3-3.9-22c4.7-2,10.9,4.5,14.3,3.4c0.7-2.1,0.2-3,0.3-4.9c0.5-1,0.9-2.1,1.4-3.1c2.9-6.2,7.1-5.8,11.7-6.2
		c2.4-0.2,4.1-1.9,6.6-1.2c2,2,1.5,3.6,2.3,5.5c3,6.4,4.7,10.4-0.7,16.8C372,282,369.4,283.9,365.7,282.4z"/>
	<path class="st0" d="M382,252.9c0.4-1.1,0.7-2.3,1.1-3.4c6.8-3.3,10.9,3.4,12.6,9.4c-0.5,0.9-1.1,1.7-1.6,2.6
		C390,262.4,384.1,256.7,382,252.9z"/>
	<path class="st0" d="M463.7,172.4c0.3-1,0.6-1.9,0.9-2.9c0.6-0.3,1.2-0.6,1.8-0.8c0.5,0.2,1.1,0.4,1.6,0.6c1.8,0.9,1.3,3.3,0.1,4.9
		C465.9,174.9,465.2,174.6,463.7,172.4z"/>
	<path class="st0" d="M400.7,238.9c-0.9-1.9-1.2-2.8,0.9-4.9c0.2-0.1,0.3-0.1,0.5-0.2c2.8,0.3,4.5,2.9,2.2,5.3
		C402.8,239.3,402.2,239.5,400.7,238.9z"/>
	<path class="st0" d="M445.3,196c0-0.2,0-0.4,0-0.6c0.3-0.3,0.5-0.6,0.8-0.8c0.1,0.1,0.2,0.2,0.3,0.3c-0.3,0.5-0.5,1-0.8,1.5
		C445.5,196.2,445.4,196.1,445.3,196z"/>
	<path class="st0" d="M186.6,459.1c-0.1-0.1-0.1-0.1-0.2-0.2c-0.3-1.5-0.5-1.8,0.9-2.9c0.6,0.3,1.3,0.6,2,0.9
		c0.1,0.1,0.1,0.1,0.2,0.2c-0.2,0.6-0.3,1.2-0.5,1.8C188.2,459,187.4,459.1,186.6,459.1z"/>
	<path class="st0" d="M396.2,242.2c-0.3-0.3-0.7-0.6-1-1c0.2-0.8,0.2-1.2,1.1-2.1c0.8,0.2,1,0.1,1.9,0.9c0,0.3,0,0.7,0,1
		c-0.4,0.4-0.7,0.8-1.1,1.2C396.9,242.2,396.6,242.2,396.2,242.2z"/>
	<path class="st0" d="M387.8,244.3c0.1-0.1,0.1-0.1,0.2-0.2c0.3,0.1,0.5,0.1,0.8,0.2c0.1,0.2,0.2,0.4,0.3,0.6
		c-0.2,0.3-0.4,0.7-0.6,1C387.6,245.2,387.5,245.3,387.8,244.3z"/>
	<path class="st0" d="M448.3,169.9c-1.3-0.7-2.1,0.2-3.6-0.9c0-0.3,0.1-0.5,0.2-0.8c1.1-0.4,1.8-0.5,2.9,0c1.7-2.4,0.4-4.6,2.2-7.1
		c2.5-0.1,5,0.4,7.6,0c3.3,3.2,3.5,7.6,0.2,11C453.1,173.7,453.1,172.5,448.3,169.9z"/>
	<path class="st0" d="M181.8,452.9c0.2-0.4,0.4-0.9,0.6-1.3c0.9,0.3,0.9,0.4,1.6,1.3c-0.3,0.4-0.5,0.8-0.8,1.1
		C182.8,453.6,182.3,453.3,181.8,452.9z"/>
	<path class="st0" d="M319.5,307.7c-1.1-0.5-1.9-0.8-2.6-1.9c-0.9-2-0.5-3.3,1.7-5.4c1,0.1,1.9,0.2,2.9,0.3c1.7,1.6,1.9,3.1,1.2,4.7
		c-0.4,0.5-0.9,1.1-1.3,1.6C320.7,307.3,320.1,307.5,319.5,307.7z"/>
	<path class="st0" d="M362.7,254.6c-1.8-2.1-2.8-5-2-7.1c3.1-8.6,15-6.3,13,3.1c-0.4,0.5-0.8,1.1-1.3,1.6
		C366.8,254.5,368.6,255.4,362.7,254.6z"/>
	<path class="st0" d="M416.9,201.6c-0.1-0.7-0.1-1.4-0.2-2.1c0.4-0.5,0.9-1.1,1.3-1.6c0.8,0,1.5,0,2.3,0c0.4,0.5,0.8,1,1.1,1.4
		c-0.3,1-0.6,1.9-0.9,2.9C418.9,202.6,418.5,203,416.9,201.6z"/>
	<path class="st0" d="M250.1,373.8c-1.9-1.1-2.7-1.7-3.6-3.5c0.2-1.3,0.4-2.4,1.4-3.7c1.2-0.3,2.4-0.7,3.5-1c1.7,1,2.3,2,3.3,3.5
		c-0.3,1.6-0.9,2.7-2.7,4.4C251.4,373.5,250.8,373.6,250.1,373.8z"/>
	<path class="st0" d="M316.4,298.4c-1.5-1.4-1.8-2.6-1.2-4c0.4-1,1.9-2.2,2.7-2.5c0.6-0.1,6.4,1.2,7.1,1.5c0.4,1.1,0.6,1.7,0.2,2.8
		c-0.5,0.6-1,1.2-1.4,1.8C321.2,297.5,319,299.1,316.4,298.4z"/>
	<path class="st0" d="M306.8,305.9c-0.2-1.1,0.2-1.6,1.3-2.3c0.9,0.2,1.1,0.2,2.1,1.1c-0.1,0.3-0.2,0.6-0.3,1
		c-0.1,0.7-0.2,0.9-1,1.6C307.8,307.2,307.1,307.3,306.8,305.9z"/>
	<path class="st0" d="M169.9,446.8c-1.1-0.2-1.9-0.5-3.1-1.4c-0.1-0.4-0.2-0.9-0.3-1.3c-0.6-2.4,1.9-3.1,1-6
		c0.7-0.8,1.4-1.6,2.1-2.5c0.9,0.1,1.7,0.2,2.6,0.3c2.1,2.4,0.7,2.4,0.1,4.9c-0.3,1.1,1,2.1,0.5,3.4c-0.6,0.8-1.3,1.5-1.9,2.3
		C170.6,446.5,170.2,446.6,169.9,446.8z"/>
	<path class="st0" d="M214.6,399.8c-0.2-0.6-0.3-0.9-1-1.6c-0.3,0-0.6,0-1,0c-0.5,0.6-1,1.2-1.4,1.8c-1.4-0.4-2.3-1.3-3.4-2.7
		c-1.3,0.8-1.3,1.9-1.4,3.1c0.5,0.9,1,1.7,2,2.2c0.8,0,1.6,0.1,2.4,0.1c0.4-0.7,0.7-1.4,1.1-2.1c0.7,0,1.3,0,1.9,0
		C214,400.4,214.3,400.1,214.6,399.8z"/>
	<path class="st0" d="M420.5,186.7c-0.3-0.5-0.7-1.1-1-1.6c0.5-0.5,1.1-1.1,1.6-1.6c0.5,0.4,1,0.7,1.5,1.1c0,0.4,0,0.9,0,1.3
		c-0.3,0.3-0.6,0.7-1,1C421.3,186.7,420.9,186.7,420.5,186.7z"/>
	<path class="st0" d="M394.5,209.2c-1.9-0.5-3.1-2-2.3-3.9c0.4-1,1.3-1.4,2.1-1.8c2.7,0.7,3.7,3.1,1.2,5.3
		C395.1,209,394.8,209.1,394.5,209.2z"/>
	<path class="st0" d="M445.8,153.1c-0.4-0.5-0.9-1.1-1.3-1.6c0.2-1.1,0.4-2.2,0.6-3.2c1-0.1,1.9-0.2,2.9-0.4
		c0.6,0.8,1.2,1.6,1.8,2.4c-0.1,0.3-0.2,0.7-0.3,1c-0.5,0.7-1.1,1.3-1.6,2C447.2,153.2,446.5,153.2,445.8,153.1z"/>
	<path class="st0" d="M341.4,259.2c0.3,0.2,0.6,0.3,0.8,0.5c0.1,0.1,0.1,0.1,0.2,0.2c-0.3,0.4-0.5,0.8-0.8,1.1
		C340.7,260.3,340.7,260.3,341.4,259.2z"/>
	<path class="st0" d="M200.2,399.2c-2.2-1.6-4.8-0.6-6.8-3.8c-1.6-2.6,0.5-5-1.1-7.4c-0.6-0.3-1.2-0.5-1.8-0.8
		c-0.4,0.2-0.8,0.3-1.1,0.5c-1.1,4.3,2.7,10.9,5.1,15.1c1.6-0.1,3.6,0.2,5.2,1.5C200.3,402.5,200.9,401.2,200.2,399.2z"/>
	<path class="st0" d="M194.4,403.2c-5.3-0.9-4.5-6.9-6-10.3c-1.3-3-3.9-5.6-6.1-8.2c-0.2,0-0.4,0-0.6,0c-1.3,2.2,4.5,20.2,9.2,21.4
		c1.1-0.4,2.3-0.8,3.4-1.2C194.3,404.4,194.3,403.8,194.4,403.2z"/>
	<path class="st0" d="M245.9,349.5c-1.4-1.4-2.8-2.8-4.3-4.1c0-0.5,0-1.1,0-1.6c0.5-0.4,1-0.8,1.4-1.2c1.9,0.5,5,2.6,6.1,4.9
		c-0.5,0.7-0.9,1.4-1.4,2.1C247.1,349.6,246.5,349.6,245.9,349.5z"/>
	<path class="st0" d="M271.8,311.5c0.8-2.3,3-3.2,4.6-3.8c4.7,1,5.9,5.4,3.4,9C275.7,318.6,269.2,317.5,271.8,311.5z"/>
	<path class="st0" d="M364.4,221.4c-0.3-1.1-0.3-1.6,0.1-2.8c0.3-0.2,0.6-0.4,1-0.7c0.6,0.2,1.2,0.3,1.8,0.5c0.6,1.4,0.6,2-0.4,3.4
		C365.7,222.1,365.5,222.2,364.4,221.4z"/>
	<path class="st0" d="M309.6,275.8c-7.7-0.9-11.6-11.5-4.6-16.6c10.4-7.5,18.3,5.1,11,14.2C313.5,274.6,312.1,276.1,309.6,275.8z"/>
	<path class="st0" d="M288.9,299.7c-1.3-0.3-3-1.1-3.4-2.7c-0.4-1.2-0.1-2.1,0.3-3.2c3.7-4.2,8.9,1.3,5.1,4.9
		C290.2,299.1,289.6,299.4,288.9,299.7z"/>
	<path class="st0" d="M170,419.4c0-0.6,0.1-1.2,0.1-1.8c0.3-0.2,0.5-0.3,0.8-0.5c0.4,0.4,0.9,0.8,1.3,1.3c0,0.7-0.1,0.7-0.8,1.5
		C171,419.7,170.5,419.6,170,419.4z"/>
	<path class="st0" d="M400.2,180.3c-0.3-0.5-0.6-1-0.8-1.4c-0.1-0.5-0.1-1-0.2-1.5c0.5-0.5,1.1-1.1,1.6-1.6c0.6,0.2,1.3,0.4,1.9,0.6
		c0.2,0.6,0.5,1.3,0.7,1.9c-0.5,0.7-1.1,1.3-1.6,2C401.3,180.3,400.8,180.3,400.2,180.3z"/>
	<path class="st0" d="M384.1,194.6c-0.1-0.1-0.2-0.2-0.3-0.3c0.1-0.1,0.1-0.1,0.2-0.2c0.2,0,0.4,0,0.7,0c0.3,0.3,0.5,0.5,0.8,0.8
		c-0.2,0.2-0.3,0.3-0.5,0.5C384.6,195.1,384.3,194.9,384.1,194.6z"/>
	<path class="st0" d="M177.9,406c-2.3-1-4.8-2.6-3.8-5.3c0.1-1.8,2.1-2.9,3.5-3.6c0.8,0.2,1.5,0.4,2.3,0.6c3.6,1.2,2.5,5.3,0.4,7.4
		C179.5,405.5,178.7,405.7,177.9,406z"/>
	<path class="st0" d="M410.7,167.9c-1-0.2-1.7-0.5-2.3-1.6c-0.6-1.7,0.2-2.5,1.7-3.4c0.8,0.3,1.5,0.6,2.3,0.9c0.1,1.3,0.1,2-0.8,3.4
		C411.4,167.4,411,167.6,410.7,167.9z"/>
	<path class="st0" d="M171.4,412.4c-0.5-0.7-1-1.4-1.5-2.1c0.2-1,0.3-1.5,1.3-2.6c0.8,0,1.6,0.1,2.4,0.1c0.3,0.5,0.7,1.1,1,1.6
		c-0.2,1.1-0.3,1.7-1.6,2.9C172.5,412.4,171.9,412.4,171.4,412.4z"/>
	<path class="st0" d="M346.5,229.6c-1.8-0.7-2.2-2.5-2.5-3.7c0.6-1.4,1.4-2.4,2.9-3.6c1.3,0.2,2.1,0.1,3.4,1.1
		c0.3,1.2,0.7,2.4,1,3.5c-0.5,0.8-1.1,1.5-1.6,2.3C348.4,229.7,347.9,230.1,346.5,229.6z"/>
	<path class="st0" d="M355.8,220.8c-10.2-1.4-5.5-8.6-0.8-13.6c0.1,0,0.2,0,0.3,0c3.1,4.7,6.9,7.4,3.1,12.3
		C357.5,219.9,356.6,220.3,355.8,220.8z"/>
	<path class="st0" d="M479.1,93.9c-0.3-0.3-0.5-0.5-0.8-0.8c0.1-1.1,0.1-1.7,1.4-2.4c0.2-0.2,0.3-0.3,0.5-0.5c0.4,0.5,0.8,1,1.1,1.4
		c-0.1,0.3-0.2,0.6-0.3,1c-0.3,0.4-0.5,0.8-0.8,1.1C479.9,93.8,479.5,93.8,479.1,93.9z"/>
	<path class="st0" d="M418.6,155.4c-0.3-0.3-0.5-0.5-0.8-0.8c0-0.3,0-0.6,0-1c0.2-0.2,0.4-0.4,0.6-0.7c0.4-0.1,0.8-0.1,1.1-0.2
		c0.2,0.2,0.4,0.4,0.7,0.6c0.1,0.2,0.1,0.3,0.2,0.5c-0.3,0.5-0.6,1.1-1,1.6C419.2,155.5,418.9,155.5,418.6,155.4z"/>
	<path class="st0" d="M273.6,302.7c-0.2-0.2-0.3-0.3-0.5-0.5c-0.1-0.5-0.1-1-0.2-1.5c0.3-0.2,0.7-0.4,1-0.7c0.9,0.3,1.2,0.6,1.8,1.4
		c-0.3,0.4-0.5,0.8-0.8,1.1C274.4,302.7,274,302.7,273.6,302.7z"/>
	<path class="st0" d="M212.6,360.8c-2.5-1.2-1.8-5.3,0.7-6.6c1.2-0.5,2-0.2,3.2,0.3c1.6,1.7,1.3,2.4,1.5,4c-0.7,0.9-1.4,1.9-2.1,2.8
		C214.6,361.4,214,361.8,212.6,360.8z"/>
	<path class="st0" d="M454.3,110.6c-0.2-0.1-0.4-0.2-0.7-0.3c-0.1-0.3-0.1-0.5-0.2-0.8c0.2-0.2,0.4-0.4,0.6-0.7
		c0.3-0.1,0.5-0.1,0.8-0.2c0.3,0.3,0.5,0.5,0.8,0.8c0.1,0.2,0.1,0.3,0.2,0.5c-0.2,0.3-0.4,0.7-0.6,1
		C454.9,110.8,454.6,110.7,454.3,110.6z"/>
	<path class="st0" d="M267.6,300.7c-2.8-1.3-3.9-2.7-2.8-5.6c0.8-0.6,1.6-1.2,2.4-1.8c0.9,0.2,1.7,0.4,2.6,0.6
		c1.4,1.6,1.6,3,0.9,4.7c-0.3,0.4-0.6,0.9-1,1.3C269,300.1,268.3,300.4,267.6,300.7z"/>
	<path class="st0" d="M313.9,235.3c2.8-7.6,18.4,0.4,9,9.1C316.5,246.3,311.4,241.9,313.9,235.3z"/>
	<path class="st0" d="M391.2,172.2c-1.6-2.1-1.6-1.3-3.8-3c-0.1-0.2-0.1-0.3-0.2-0.5c0.2-0.9,0.3-1.4,1.4-2.4
		c2.3,0.9,1.8,2.9,3.9,3.8c0.1,0.3,0.2,0.6,0.3,1c-0.3,0.4-0.5,0.8-0.8,1.1C391.8,172.2,391.5,172.2,391.2,172.2z"/>
	<path class="st0" d="M448.3,111.8c-0.9-0.3-1.7-0.7-1.8-1.8c-0.2-0.8-0.2-0.3,0.1-1.1c0.5-0.9,1.4-0.7,2.4-0.8
		c0.3,0.4,0.6,0.8,0.8,1.1c-0.2,0.9-0.2,1.4-1.1,2.4C448.6,111.7,448.4,111.7,448.3,111.8z"/>
	<path class="st0" d="M161.6,405.4c-3.4,0.9-5.9-3.8-5.4-6.2c0.9-1.6,1.7-2.2,3.2-3c3.2,0.4,4.3,2.3,5.7,5.3
		c-0.3,1.2-0.7,2.1-2.1,3.4C162.5,405.1,162,405.3,161.6,405.4z"/>
	<path class="st0" d="M454.9,102c0-0.4,0.1-0.8,0.1-1.1c0.2-0.1,0.3-0.1,0.5-0.2c0.2,0.2,0.3,0.3,0.5,0.5c-0.1,0.3-0.2,0.6-0.3,1
		C455.5,102.1,455.2,102,454.9,102z"/>
	<path class="st0" d="M430.4,121c-4.2-2.6-3.4-10.6,1.9-11.5c5.8-1,7.1,7.2,3.7,10.6C433.9,120.8,432.6,121.3,430.4,121z"/>
	<path class="st0" d="M184.4,371.4c-0.1-0.8,1.3-6.1,1.7-7c1-1,1.9-2,2.9-3c0.6,1.2,1.2,2.5,1.8,3.7c-2.4,3.9-1.6,7.2-3.7,10.7
		C186.1,375.3,185,372.9,184.4,371.4z"/>
	<path class="st0" d="M325.3,225.9c-3,0.4-8.6-2.4-11.2-0.3c-5.6,4.5-10.9,16.9-18.6,14.5c-3.4-3.8,0.2-10.3,2.2-14.1
		c-0.2-0.4-0.4-0.9-0.7-1.3c-3.8,2.4-8.9,9.6-12.3,11.7c-0.8,0.2-0.4,0.3-1.3-0.3c0.6-2.1,3.2-3.9,4.6-6.4c2.8-4.7,5.6-9.5,8.4-14.2
		c0-0.2,0-0.4,0-0.6c-2.1-1.2-3.1-1.3-4.4-3.7c0.3-1.7,0.7-3.3,2.9-4.3c0.1-0.2,0.2-0.4,0.3-0.7c-0.2-0.2-0.3-0.3-0.5-0.5
		c-1.7,0.1-2.3,1.1-3.7-0.8c0.3-1.7,0.7-1.8,2.4-3.1c-4.8-19.8,15.8-31,31.8-28.4c3.5,1.8,7.1,3.7,10.6,5.5c1.1-0.6,0.6-4.5,3.5-5.2
		c0.8-0.2,1-0.1,1.8,0.1c0.6,0.8,1.2,1.6,1.8,2.4c0.9,2.1-0.5,4.4-2.8,5.2c0.1,2.2,3.9,4.9,4.6,7.1c0.5,2.8,0.9,5.6,1.4,8.4
		c0.7,3,2.4,5.8,2.1,8.7c-0.4,3.5-7.7,11-11.3,14.6C332.2,222.2,329.6,225.3,325.3,225.9z"/>
	<path class="st0" d="M446.8,106.2c-0.7,0-1.4-0.1-2.1-0.1c-1.2-1.3-1.5-2.2-1-3.5c0.4-0.5,0.8-1.1,1.3-1.6c0.2-0.1,0.3-0.1,0.5-0.2
		c1.3,0.2,1.7,0,3.1,1.4c0.1,1.3,0.1,2-0.8,3.4C447.4,105.7,447.1,105.9,446.8,106.2z"/>
	<path class="st0" d="M449.3,91.1c0.7-4.8,6-3.4,8.1-0.1c-0.2,1.1-0.2,1.9-1.1,3.1C453.4,94.8,451.4,94.1,449.3,91.1z"/>
	<path class="st0" d="M373.8,176c-3.4-1.6-9.3-12.2-11.5-15.4c0.2-1.2,0.5-2.5,0.8-3.7c3.1,2.1,12.5,17.4,11.8,19.4
		C374.4,176.2,374.1,176.1,373.8,176z"/>
	<path class="st0" d="M178.8,374.9c-0.3,0.7-0.2,0.2-0.1,0.8C178.9,375,178.8,375.5,178.8,374.9z"/>
	<path class="st0" d="M139.5,413.4c-0.3-0.3-0.5-0.5-0.8-0.8c0.2-0.6,0.3-0.9,1-1.6c1,0.1,0.8,0.1,1.8,1.1c-0.3,0.4-0.6,0.9-1,1.3
		C140.1,413.3,139.8,413.4,139.5,413.4z"/>
	<path class="st0" d="M263.9,285c-0.3-0.3-0.5-0.5-0.8-0.8c0.2-0.8,0.1-0.9,0.8-1.5c1.6-0.4,2,1.2,1.2,2.4
		C264.7,285.1,264.3,285.1,263.9,285z"/>
	<path class="st0" d="M285.3,259.5c-0.2-0.2-0.3-0.3-0.5-0.5c-0.1-0.6-0.2-1.3-0.3-1.9c0.2-0.2,0.4-0.4,0.6-0.7
		c0.5-0.1,1-0.1,1.5-0.2c0.2,0.2,0.4,0.4,0.7,0.6c0.1,0.1,0.1,0.1,0.2,0.2c-0.1,1.1,0.1,1.3-0.8,2.4
		C286.1,259.5,285.7,259.5,285.3,259.5z"/>
	<path class="st0" d="M405.4,135.6c-4.9,1.6-6.1-6.3-1.1-8.7c1.9,0.2,2.5,0.6,4.2,2.5c0.2,2.1,0.6,3.1-1.1,5.4
		C406.8,135,406.1,135.3,405.4,135.6z"/>
	<path class="st0" d="M122.8,423.3c-2.6-0.7-3.2-3.7-2.3-5.5c0.9-2.1,5.2-4.1,7.1-5c1,0.5,2.1,1.3,3.3,2.5c0,0.9,0,1.7,0,2.6
		c-1.4,1.8-2.9,3.6-4.3,5.4C125.2,423.5,124.2,423.9,122.8,423.3z"/>
	<path class="st0" d="M223.5,321c-1.1-1.1-1.2-1.6-0.8-2.7c0.4-0.4,0.9-0.9,1.3-1.3c0.5,0.2,1,0.3,1.5,0.5c0.3,0.3,0.5,0.5,0.8,0.8
		c-0.2,1.1-0.1,1.6-1.1,2.8C224.6,321,224,321,223.5,321z"/>
	<path class="st0" d="M190.4,347.6c0.7-0.4,1.5-0.9,2.2-1.3c0.5,0.4,1,0.7,1.5,1.1c-0.4,2.3-2.1,5.3-4.1,7.5
		C187.9,353.3,189.4,349.7,190.4,347.6z"/>
	<path class="st0" d="M82.7,463.5c-0.5-0.4-1-0.7-1.5-1.1c0-0.6,0.1-1.2,0.1-1.8c0.2-0.3,0.4-0.7,0.6-1c0.6,0,1.2,0.1,1.8,0.1
		c0.4,0.3,0.9,0.6,1.3,1c-0.1,0.4-0.1,0.8-0.1,1.1c-0.1,0.7-0.2,0.9-1,1.6C83.6,463.5,83.2,463.5,82.7,463.5z"/>
	<path class="st0" d="M243.6,297.4c-0.5-0.4-1-0.7-1.5-1.1c-0.1-0.2-0.1-0.3-0.2-0.5c0.2-0.8,0.1-1,0.9-2c0.2-0.1,0.3-0.1,0.5-0.2
		c0.8,0.2,1.3,0.1,1.8,1.1c0.3,1,0.2,1.3-0.6,2.3C244.2,297.2,243.9,297.3,243.6,297.4z"/>
	<path class="st0" d="M354.7,179.5c-3.3-0.4-4.9-3.4-1.5-6.3c1.8-0.1,3.1,1.1,3.8,3c-0.4,1.1-0.4,1.6-1.4,2.8
		C355.2,179.2,355,179.3,354.7,179.5z"/>
	<path class="st0" d="M448.1,78.8c-0.9-0.3-1.5-1.2-1.6-1.9c-0.7-1.6,0-4,2.2-4.6c1.1-0.4,1.6-0.1,2.8,0.4c1.5,1.7,1.5,3.9,0.2,5.7
		C450.3,78.7,449.7,79.4,448.1,78.8z"/>
	<path class="st0" d="M303,231c0-0.2,0-0.4,0-0.6c-0.2-0.2-0.4-0.4-0.7-0.6c-0.7,0.1-1.4,0.1-2.1,0.2c-0.3,0.3-0.5,0.5-0.8,0.8
		c0,0.5-0.1,1-0.1,1.5c0.2,0.2,0.3,0.3,0.5,0.5c0.5,0.1,1,0.1,1.5,0.2C301.8,232.3,302.4,231.7,303,231z"/>
	<path class="st0" d="M413.1,115.5c-0.1-0.4-0.1-0.8-0.2-1.1c0.2-0.1,0.4-0.2,0.6-0.3c0.3-0.1,0.5-0.1,0.8-0.2
		c0.3,0.4,0.6,0.7,0.8,1.1c-0.3,0.4-0.5,0.8-0.8,1.1C413.9,116,413.5,115.7,413.1,115.5z"/>
	<path class="st0" d="M429.3,98.2c-2.2-0.7-2.5-3.3-1.5-4.7c0.4-0.8,1.2-0.9,2.1-1.2c0.9,0.9,1.7,1.7,2.6,2.5
		c-0.1,0.5-0.2,1.1-0.3,1.6c-0.5,0.6-1,1.2-1.4,1.8C430.3,98.2,429.8,98.2,429.3,98.2z"/>
	<path class="st0" d="M217.6,306.7c0-3.2,1.7-9.2,6.5-7.7c4.1,1.3,2.2,7.2,0.1,9.4C221.7,309.2,220.3,309.4,217.6,306.7z"/>
	<path class="st0" d="M440.6,83.3c-1.4-0.6-2.8-1-3.4-2.7c-0.7-1.4-0.5-2.5-0.1-3.9c1.5-1.6,2.6-2.1,4-1.5c2,0.7,2.7,2.7,3.3,4.2
		c-0.3,1.2-0.5,2.1-1.6,3.3C442.1,82.8,441.4,83,440.6,83.3z"/>
	<path class="st0" d="M222.3,307.5c-0.1-0.2-0.1-0.3-0.2-0.5c-0.2,0.1-0.3,0.1-0.5,0.2c0,0.1,0,0.2,0,0.3c0.2,0.1,0.3,0.1,0.5,0.2
		C222.2,307.6,222.3,307.5,222.3,307.5z"/>
	<path class="st0" d="M135.2,393.2c-3.8,0.1-8.2-2.8-4.5-7.2c2-0.9,3-0.9,5-0.2c2.3,2.2,2.2,4.2,0.7,6.5
		C136,392.5,135.6,392.9,135.2,393.2z"/>
	<path class="st0" d="M180.5,335.4c-0.1-0.1-0.1-0.1-0.2-0.2c-1.4,1-2.8,2-4.2,3c-5.2,1.8-9.9-4.9-8.6-9.3
		c2.8-9.2,14.1-4.4,13.5,2.9c2.3,1.4,5.7,3.3,4.6,6.4c0,0.8-0.3,1.3-1.1,2.1C182.1,339.6,181.7,337.4,180.5,335.4z"/>
	<path class="st0" d="M67,440c2.8-3.3,7.9-6.6,11.4-6.1c5.1,3.3,5.8,8.8,1.3,13.1C71.6,448.4,69.7,448,67,440z"/>
	<path class="st0" d="M172.6,349.4c-0.9-0.8-1.7-1.7-2.6-2.5c0-1.2,0-2,0.3-3.2c0.7-0.4,1.5-0.9,2.2-1.3c0.8,0.2,1.5,0.4,2.3,0.6
		c1.4,1.4,1.7,2.8,1.3,4.2c-0.1,0.7-0.6,1.3-1.4,2.1C174,349.3,173.3,349.4,172.6,349.4z"/>
	<path class="st0" d="M123.9,400.1c-1.2-0.3-2.2-0.4-2.9-1.6c-1,0-0.5-2.9-0.2-3.7c0.8-0.5,1.6-1,2.4-1.5c1,0.4,2.1,0.7,3.1,1.1
		c0.3,0.6,0.6,1.2,0.8,1.8c-0.3,1.3-0.4,2.1-1.7,3.4C124.9,399.8,124.4,400,123.9,400.1z"/>
	<path class="st0" d="M300.5,213.3c-4.5,3-6.1,9-9.2,13.1c0,0.1,0,0.2,0,0.3c0.1,0.1,0.1,0.1,0.2,0.2c1-0.7,2-1.4,3.1-2.1
		C297,222.2,301.9,215.8,300.5,213.3z"/>
	<path class="st0" d="M148.5,373.9c-3.2,1.4-5.6-2.4-4.6-5.1c1.4-1.4,2-1.4,3.2-2c1.3,0.3,3,1.1,3.4,2.7c0.5,1.4,0.2,2.3-0.8,3.7
		C149.3,373.5,148.9,373.7,148.5,373.9z"/>
	<path class="st0" d="M440.3,60.9c0.1,0.5,0.1,0.1,0,0.6C440.3,61.4,440.3,61.1,440.3,60.9z"/>
	<path class="st0" d="M388.4,111.4c0.3-0.3,0.5-0.5,0.8-0.8c0.3-0.1,0.5-0.1,0.8-0.2c0.2,0.2,0.3,0.3,0.5,0.5
		c-0.2,0.7,0,0.8-0.6,1.6C389.4,112.1,388.9,111.7,388.4,111.4z"/>
	<path class="st0" d="M414.9,82.8c0-0.4,0.1-0.8,0.1-1.1c0.3-0.2,0.5-0.3,0.8-0.5c0.2-0.1,0.4-0.2,0.6-0.3c0.3,0.3,0.5,0.5,0.8,0.8
		c-0.2,0.6-0.3,1.2-0.5,1.8C415.8,83.5,416,83.8,414.9,82.8z"/>
	<path class="st0" d="M147.3,359.3c-0.4-0.1-0.9-0.2-1.3-0.3c-2.3-0.7-2.3-3.1-1-4.5c0.8-0.1,1.6-0.1,2.4-0.2
		c0.5,0.4,1.1,0.9,1.6,1.3c0.1,0.5,0.1,1,0.2,1.5c-0.4,0.6-0.7,1.2-1.1,1.8C147.8,359,147.6,359.2,147.3,359.3z"/>
	<path class="st0" d="M102.6,402.7c-1.1-0.6-2.3-1.4-2.8-2.7c-0.6-1.9,0.5-4.6,0.9-6.5c-0.2-0.2-0.3-0.3-0.5-0.5
		c-6.9,2.7-12.5,5.7-19.4,3.8c-3.9-1-5.5-4.2-7.4-7.2c-1.4-1.6-2.9-3.2-4.3-4.8c-2.1-3.1-2.4-8.2-1.9-11.5
		c1.8-12.6,18.1-22.7,28.2-17.6c3.6,1.9,4.9,5.8,6.6,8.3c1.6-0.3,2.2-0.8,3.9,0.9c2.6-0.9,4.9-5.4,7.7-5c0,0.4,0,0.9,0,1.3
		c-2.9,4.2-7.6,5.7-8.3,10.1c1.5,4.7,2.9,9.5,4.4,14.2c1.4,0.7,2.7,1.4,4.1,2c0.1,0.2,0.1,0.3,0.2,0.5c-0.2,0.6-0.3,0.9-0.9,1.6
		c-1.3-0.2-2.5-0.3-3.9-1.2c-0.4,0.1-0.8,0.1-1.1,0.2c0.2,3.9,0.2,9.5-3.4,13.3C104,402.4,103.3,402.5,102.6,402.7z"/>
	<path class="st0" d="M424.5,67.3c-3.8-3.2-2.3-7.8-0.6-11.5c0.2-0.1,0.3-0.1,0.5-0.2c5.1,1.2,11.4,5.6,5.5,11.4
		C427.6,67.7,426.8,68.1,424.5,67.3z"/>
	<path class="st0" d="M388.7,107.5c-0.2-0.2-0.3-0.3-0.5-0.5c0-0.5,0.1-1,0.1-1.5c0.4-0.2,0.9-0.4,1.3-0.7c0.3,0.3,0.5,0.5,0.8,0.8
		c-0.3,0.6-0.5,1.2-0.8,1.8C389.3,107.5,389,107.5,388.7,107.5z"/>
	<path class="st0" d="M354,138.6c0.1-0.1,0.1-0.1,0.2-0.2c0.4,0.3,0.9,0.6,1.3,1c-0.2,0.3-0.4,0.7-0.6,1
		C353.9,139.7,353.7,139.6,354,138.6z"/>
	<path class="st0" d="M393,93.5c-0.3-0.4-0.6-0.7-0.8-1.1c0.3-0.4,0.5-0.8,0.8-1.2c0.1-0.1,0.1-0.1,0.2-0.2c0.3,0.1,0.6,0.2,1,0.3
		c-0.1,0.8-0.2,1.5-0.3,2.3C393.5,93.6,393.3,93.5,393,93.5z"/>
	<path class="st0" d="M143.7,332.9c0.3-0.9,0.5-1.8,0.8-2.8c3.4-3.2,10.3-1.2,12.5,2.9c-0.2,1.3-0.5,2.2-1.9,3.6
		C150.6,337.7,146.4,338.1,143.7,332.9z"/>
	<path class="st0" d="M272.3,211.1c-1.5-1.8-1.6-2.9-1.8-4.7c1.4-2.5,2.9-3.3,5.1-3.6c1.5,0.8,2.9,1.9,3,3.5c0.4,1.4-0.1,3-1.4,4.4
		C275,211.4,274.4,211.4,272.3,211.1z"/>
	<path class="st0" d="M315.7,155.3c-1.2-3.6,3.4-7.6,6.7-6.9c5,1,5.6,7.2,2.4,10.3C321.7,160.1,316.5,160.5,315.7,155.3z"/>
	<path class="st0" d="M109.8,376.2c-0.4-0.2-0.9-0.4-1.3-0.6c-1.8-1.7-1.9-3-1.2-4.7c0.5-0.6,1-1.2,1.4-1.8c1.3-0.1,2.2-0.2,3.6,0.3
		c1.4,1.4,1.5,2.1,1.8,3.4c-0.7,1-1.4,2.1-2.1,3.1C111.3,376,110.6,376.1,109.8,376.2z"/>
	<path class="st0" d="M335.3,133.2c4.7,0.8,7.6,5.6,3.2,9.8C331,145.5,327.5,137.2,335.3,133.2z"/>
	<path class="st0" d="M369.7,102.7c0.5-0.5,1.1-1.1,1.6-1.6c0.9-0.3,1.1-0.3,1.9,0c0.5,0.5,1,1,1.5,1.4c0.1,0.8,0.1,1.6,0.2,2.4
		c-0.5,0.6-1,1.2-1.4,1.8C371.1,107,368.6,105.5,369.7,102.7z"/>
	<path class="st0" d="M380.2,96.1c-0.6-0.3-1.2-0.5-1.8-0.8c-4.8-4.5,3.1-12.2,7.5-8.4c0.3,2.9,0.6,4.8-1.8,7.8
		C382.8,95.2,381.5,95.6,380.2,96.1z"/>
	<path class="st0" d="M340.7,124.7c0.2-1,0-1.2,0.9-2.3c0.3,0.2,0.5,0.3,0.8,0.5c1.1,3.6,1,5.9,3.9,9.8c-0.1,0.3-0.2,0.6-0.3,1
		C343,130.6,342.6,127.8,340.7,124.7z"/>
	<path class="st0" d="M293,187.2c-0.9-0.3-1.5-0.6-1.6-1.6c-0.2-0.9-0.2-0.7,0.6-1.6c0.6,0.1,1.3,0.2,1.9,0.3
		c0.1,0.1,0.1,0.1,0.2,0.2c0,1.1,0.3,1.4-0.6,2.6C293.3,187.1,293.1,187.1,293,187.2z"/>
	<path class="st0" d="M287.4,191.6c0.1-0.2,0.2-0.4,0.3-0.7c0.3,0.1,0.6,0.2,1,0.3c-0.2,0.2-0.4,0.4-0.6,0.7
		C287.8,191.8,287.6,191.7,287.4,191.6z"/>
	<path class="st0" d="M119.8,362.6c-1.1-0.2-1.8-0.4-2.9-1.3c-0.6-1.4-0.4-2.1-0.5-3.4c0.7-0.6,1.4-1.2,2.1-1.8
		c2.2,0.2,4.2,1.4,3.8,4c-0.5,0.7-1,1.4-1.4,2.1C120.5,362.4,120.2,362.5,119.8,362.6z"/>
	<path class="st0" d="M71.6,407.7c0.5-0.1,1.1-0.2,1.6-0.3c-0.2,0.3-0.3,0.5-0.5,0.8C72.4,408,72,407.8,71.6,407.7z"/>
	<path class="st0" d="M264.5,209.3c-0.3,0-0.5-0.1-0.8-0.2c-1-1.3-0.8-1.9,0.6-3.2c0.6,0.4,1.2,0.7,1.8,1.1c0,0.3-0.1,0.5-0.2,0.8
		c-0.3,0.4-0.6,0.9-0.9,1.3C264.8,209.1,264.7,209.2,264.5,209.3z"/>
	<path class="st0" d="M152.1,319.9c-0.4-0.4-0.9-0.9-1.3-1.3c-0.2-0.8-0.1-1,0.1-1.8c0.5-0.3,1.1-0.7,1.6-1c0.4,0.1,0.9,0.2,1.3,0.3
		c0.4,0.6,0.8,1.2,1.2,1.8c-0.5,0.7-1,1.4-1.4,2.1C153.1,320,152.6,320,152.1,319.9z"/>
	<path class="st0" d="M104.1,369.7c-0.1-0.1-0.1-0.1-0.2-0.2c-0.3,0.1-0.5,0.1-0.8,0.2c0.2,0.2,0.3,0.3,0.5,0.5
		C103.8,370,103.9,369.8,104.1,369.7z"/>
	<path class="st0" d="M63,409.6c0.9-0.3,0.1-0.3,1,0c-0.1,0.1-0.2,0.2-0.3,0.3C63.5,409.8,63.3,409.7,63,409.6z"/>
	<path class="st0" d="M140.7,327.7c-1.2-0.3-2.1-0.7-3.4-2.1c0.2-1.4,0.3-3.1,2.2-3.6c0.9-0.3,1.1-0.3,1.9,0
		c0.5,0.4,1.1,0.8,1.6,1.3c-0.1,0.6-0.1,1.2-0.1,1.8c-0.1,0.8-0.8,1.6-1.7,2.5C141,327.6,140.9,327.7,140.7,327.7z"/>
	<path class="st0" d="M308.5,148.9c0.2-0.2,0.4-0.4,0.6-0.7c0.2,0.1,0.3,0.1,0.5,0.2c0.1,0.1,0.1,0.1,0.2,0.2
		c-0.2,0.4-0.3,0.8-0.5,1.1C309,149.4,308.7,149.2,308.5,148.9z"/>
	<path class="st0" d="M312,135.1c0.6-0.4,1.3-0.9,1.9-1.3c1.2-0.4,2,0,3.3,1.2c0.1,0.4,0.2,0.9,0.3,1.3c-0.2,1.1-0.4,1.8-1.3,2.9
		C313.3,139.9,311.5,138.1,312,135.1z"/>
	<path class="st0" d="M362.7,79.7c0.1-0.7,0.2-1.3,0.3-1.9c1.5-0.6,4-0.1,5.5,0.3c0.3,0.4,0.7,0.9,1,1.3c0.1,0.2,0.1,0.3,0.2,0.5
		c-0.4,0.5-0.9,1.1-1.3,1.6C366.8,81.5,364.2,81,362.7,79.7z"/>
	<path class="st0" d="M308,138.6c0-0.5,0.1-1,0.1-1.5c0.1-0.1,0.1-0.1,0.2-0.2c0.3,0.2,0.7,0.4,1,0.6c-0.1,0.4-0.1,0.8-0.1,1.1
		C308.8,138.7,308.4,138.6,308,138.6z"/>
	<path class="st0" d="M358.2,83.6c-0.4-0.4-0.9-0.9-1.3-1.3c-0.6-1.7,0.8-3.2,2.5-3c0.5,0.5,1,1,1.5,1.4c0.1,0.2,0.2,0.4,0.3,0.6
		c-0.4,0.7-0.7,1.4-1.1,2.1C359.3,83.7,359.1,83.9,358.2,83.6z"/>
	<path class="st0" d="M225.2,211.6c-0.5-0.8-1-1.6-1.5-2.4c0.5-1,0.9-2.1,1.4-3.1c1.1-0.3,1.5-0.7,2.6-0.4c0.7,0.6,1.3,1.3,2,1.9
		c0.1,0.7,0.1,1.4,0.2,2.1c-0.6,0.7-1.2,1.4-1.8,2.1C227.1,211.8,226.2,211.7,225.2,211.6z"/>
	<path class="st0" d="M48.2,389.7c-0.5-0.4-1-0.7-1.5-1.1c0.2-0.8,0.4-1.5,0.6-2.3c0.5,0,1,0.1,1.5,0.1c1.2,0.4,1.4,1.3,1,2.3
		c-0.3,0.4-0.5,0.8-0.8,1.1C48.7,389.8,48.5,389.8,48.2,389.7z"/>
	<path class="st0" d="M383.7,43.6c-2.8-1.9-4-4.2-4.5-6.9c0.6-1.1,1.3-2.4,2.5-2.6c0.7-0.2,0.7-0.1,1.5,0.1c3.8,1.3,4.2,6.6,1.9,8.9
		C384.7,43.3,384.2,43.4,383.7,43.6z"/>
	<path class="st0" d="M338.5,85.8c-0.6,0-1.2-0.1-1.8-0.1c-2.1-1.9-2.7-3.4-1.9-5.3c0.6-0.8,1.3-1.5,1.9-2.3c1,0.1,1.9,0.2,2.9,0.3
		c2,1.9,2.1,3.6,1.4,5.5c-0.4,0.6-0.8,1.1-1.3,1.6C339.4,85.6,338.9,85.7,338.5,85.8z"/>
	<path class="st0" d="M379.1,332c0.3-0.1,0.6-0.2,1-0.3c0,0.3,0,0.6,0,1C379.8,332.4,379.5,332.2,379.1,332z"/>
	<path class="st0" d="M387.9,321c-1-1-1.1-1.5-1.5-2.4c0.6-1.4,1.3-2.2,2.5-2.9c2.7,0.7,3.5,3.1,1.5,5.3
		C389.4,321.2,389,321.3,387.9,321z"/>
	<path class="st0" d="M348.8,350.4c0.1-0.9,0.2-1.7,0.3-2.6c0.9-1,1.7-2,2.5-2.9c4.1-0.5,6.7,0.6,7.4,5.2c-0.6,0.9-1.2,1.8-1.7,2.8
		C353.8,353.9,352.4,354.2,348.8,350.4z"/>
	<path class="st0" d="M45.1,377.8c-0.7-0.6-1.4-1.2-2.1-1.7c0-0.9,0.1-1.8,0.1-2.8c0.5-0.7,1.1-1.3,1.6-2c2-0.5,3.4,0.1,4.6,2.2
		c0.6,1.4,0.3,2.6-1.1,4.1C47,377.9,46.4,378.2,45.1,377.8z"/>
	<path class="st0" d="M388.6,23.1c-1.5-0.5-2.2-2.2-2.3-3.2c-0.2-1,0.3-1.8,0.8-2.8c2.9-1.4,4.6,0.1,5.4,3c-0.5,0.9-0.9,1.8-1.4,2.8
		C390,23.1,389.7,23.5,388.6,23.1z"/>
	<path class="st0" d="M350.8,339.8c-0.2-0.5-0.3-1-0.5-1.5c0.3-0.4,0.6-0.9,1-1.3c0.3,0.1,0.5,0.1,0.8,0.2c0.4,0.3,0.9,0.6,1.3,1
		c0.1,0.2,0.1,0.3,0.2,0.5c-0.3,0.5-0.5,1-0.8,1.5C352.1,340,351.4,339.9,350.8,339.8z"/>
	<path class="st0" d="M307.6,88.7c-0.5-0.5-1.1-1.1-1.6-1.6c-0.8-2.1,0.9-5.3,3.1-7.5c1,0.1,1.8,0.3,2.4,1.4
		c0.8,2.1-0.2,5.3-1.8,7.5C308.8,88.7,308.6,89,307.6,88.7z"/>
	<path class="st0" d="M20.3,377.3c0.2-0.1,0.4-0.2,0.6-0.3c0.4,0.9,0.4,0.4,0,1.3C20.3,377.8,20.5,378,20.3,377.3z"/>
	<path class="st0" d="M333.3,341c-0.3-0.9-0.6-1.8-0.8-2.7c0.6-1.2,1.4-2.4,2.7-2.8c1-0.4,1.5-0.2,2.4,0.1c0.4,0.5,0.8,1,1.2,1.4
		c0.7,1.8,0.3,3.2-1.7,5C335.7,342,334.7,341.8,333.3,341z"/>
	<path class="st0" d="M14.6,374.7c0.4-0.4,0.7-0.8,1.1-1.2c0.4,0.2,0.8,0.3,1.1,0.5c0.6,0.3,0.5,0.5,0.8,1.1c-0.3,0.4-0.6,0.9-1,1.3
		C15.3,376.3,15.1,376,14.6,374.7z"/>
	<path class="st0" d="M310.8,72.6c-1.8-0.4-2-1.3-2.6-2.9c0.6-0.8,1.2-1.6,1.7-2.5c0.6,0.3,1.3,0.6,2,0.9c0.5,1.1,0.5,1.7,0.5,2.8
		c-0.4,0.5-0.7,1-1.1,1.5C311.1,72.5,311,72.6,310.8,72.6z"/>
	<path class="st0" d="M21.1,364.4c1-0.2,1.3-0.1,2.3,0.9c0.1,0.6,0.2,1,0,1.6c-0.4,0.5-0.7,1-1.1,1.5
		C20.5,367.8,18.4,365,21.1,364.4z"/>
	<path class="st0" d="M732.6,310.3c-0.3-0.4-0.6-0.7-0.8-1.1c0.3-0.4,0.5-0.8,0.8-1.1c0.3-0.1,0.5-0.1,0.8-0.2
		c0.2,0.2,0.4,0.4,0.7,0.6c0,0.4,0,0.9,0,1.3c-0.2,0.2-0.3,0.3-0.5,0.5C733.2,310.3,732.9,310.3,732.6,310.3z"/>
	<path class="st0" d="M736.2,303.2c0.1,0.5,0.1,0.1,0,0.6C736.2,303.7,736.2,303.5,736.2,303.2z"/>
	<path class="st0" d="M725,290.1c-0.9,0.3-1.1,0.1-1.9,0c-0.4-0.7-0.9-1.5-1.3-2.2c0.2-0.5,0.3-1,0.5-1.5c0.3-0.2,0.5-0.3,0.8-0.5
		c1.4-0.5,2.2-0.3,3.6,1.2c1.2-1.7,1.6-2.3,3.4-2.8c0.8,0.6,1.5,1.3,2.3,1.9c-0.2,1.6-0.1,2.2-1.9,3.9
		C726.7,289.8,728.5,288.4,725,290.1z"/>
	<path class="st0" d="M683.3,301.6c-0.5-0.4-1-0.7-1.5-1.1c0-0.2-0.1-0.3-0.2-0.5c0.2-1,0-1.3,1.1-2.4c0.5,0,1,0.1,1.5,0.1
		c0.3,0.4,0.7,0.9,1,1.3c-0.2,0.9-0.3,1.4-1.1,2.4C683.8,301.5,683.5,301.5,683.3,301.6z"/>
	<path class="st0" d="M684.9,292.6c-1-0.6-2.3-1.3-3-2.5c-0.1-0.8-0.1-1.6-0.2-2.4c1.4-2.1,2.6-2,4.3-2.2c2.8,1.4,4.6,3.6,2,6.4
		C687.1,292.2,686,292.4,684.9,292.6z"/>
	<path class="st0" d="M700.1,275.4c0-0.2,0-0.4,0-0.6c0.2-0.2,0.4-0.4,0.6-0.7c0.1,0,0.2,0,0.3,0c0.1,0.1,0.2,0.2,0.3,0.3
		c0,0.2,0,0.4,0,0.6c-0.2,0.2-0.3,0.3-0.5,0.5C700.6,275.5,700.3,275.5,700.1,275.4z"/>
	<path class="st0" d="M674.8,271.6c0.1-0.2,0.1-0.3,0.2-0.5c0.4-0.1,0.8-0.1,1.1-0.2c0,0.7,0.1,0.5-0.3,1.3
		C675.4,272,675.1,271.8,674.8,271.6z"/>
	<path class="st0" d="M684.8,240.9c-1.8-4.1,3.8-9,7.7-7.6c5.1,1.8,4.6,7.7,1.9,10.5C691.2,244.8,686.4,246,684.8,240.9z"/>
	<path class="st0" d="M642.9,286c-0.8-1.1-0.7-1.2-0.7-2.3c0.2-0.2,0.4-0.4,0.6-0.7c0.4,0,0.9,0,1.3,0c0.1,0.1,0.2,0.2,0.3,0.3
		c0.2,1,0.2,1.5-0.6,2.6C643.6,285.9,643.2,286,642.9,286z"/>
	<path class="st0" d="M690.9,214.9c-0.3-1.1-0.4-1.3,0.5-2.4c0.1-0.1,0.1-0.1,0.2-0.2c0.6,0.2,0.9,0.3,1.6,0.9
		c-0.4,0.6-0.8,1.3-1.3,2C691.6,215.1,691.3,215,690.9,214.9z"/>
	<path class="st0" d="M221.9,236.7c-0.4,0.1-0.9,0.3-1.3,0.4c-0.3-0.4-0.5-0.8-0.8-1.2c0-0.3,0.1-0.5,0.1-0.8
		c0.3-0.1,0.6-0.3,0.8-0.4c0.4,0.2,0.8,0.3,1.2,0.4c0.1,0.2,0.2,0.4,0.3,0.6C222.1,236.1,222,236.4,221.9,236.7z"/>
	<path class="st0" d="M216.6,230.8c0.5,0.1,0.1,0,0.6,0.2C217.1,231,216.8,230.9,216.6,230.8z"/>
	<path class="st0" d="M200.4,236.6c0,0.9-0.3,1.1-0.7,1.8c-0.8,0.1-1.7,0.3-2.6,0.4c-0.4-0.3-0.8-0.6-1.2-1
		c-0.1-0.3-0.1-0.6-0.2-0.9c0-1.5,0.5-2.1,2.4-2.9c-1.1-1.7-1.5-2.3-1.4-4.1c0.9-0.5,1.7-1,2.6-1.5c1.4,0.7,2,0.9,3,3.2
		C200.7,234.9,200,232.7,200.4,236.6z"/>
	<path class="st0" d="M196.2,279.7c-0.5,0.3-1,0.7-1.6,1c-0.2,0-0.3,0-0.5,0c-0.9-0.5-1.2-0.5-1.9-1.9c0.2-0.4,0.4-0.9,0.7-1.3
		c0.5-0.1,1-0.3,1.5-0.5c0.8,0.5,1.2,0.8,1.9,1.9C196.2,279.1,196.2,279.4,196.2,279.7z"/>
	<path class="st0" d="M188.4,274.9c-0.9,0.8-2.1,1.7-3.4,1.9c-0.8-0.2-1.6-0.5-2.3-0.7c-1.5-2-0.9-3.1-0.5-4.8c2.3-2.1,5-3,6.7,0.4
		C188.7,272.8,188.6,273.8,188.4,274.9z"/>
	<path class="st0" d="M177.7,254.6c-0.2-0.1-0.4-0.1-0.6-0.2c-0.1-0.3-0.3-0.6-0.4-0.8c0-0.1,0.1-0.2,0.1-0.3
		c0.1-0.1,0.3-0.1,0.4-0.2c0.2,0.1,0.4,0.1,0.6,0.2c0.1,0.2,0.2,0.4,0.3,0.6C178,254.2,177.9,254.4,177.7,254.6z"/>
	<path class="st0" d="M165.1,276.9c-0.1-0.1-0.3-0.2-0.4-0.3c0.1-0.4,0.2-0.8,0.2-1.1c0.7,0.2,0.5,0.1,1.1,0.7
		C165.7,276.5,165.4,276.7,165.1,276.9z"/>
	<path class="st0" d="M140,256.5c-4.4,0.2-7.1-6.8-4.3-9.9c3.5-4.1,8.9-1.5,10.5,1.9C145.9,251.9,145.4,256.9,140,256.5z"/>
	<path class="st0" d="M167.1,311.8c-1.3,0.4-1.4,0.2-2.4-0.2c-0.1-0.3-0.3-0.6-0.4-0.8c0.1-0.4,0.3-0.8,0.4-1.2
		c0.1-0.1,0.3-0.1,0.4-0.2c1,0.2,1.5,0.3,2.2,1.5C167.4,311.2,167.3,311.5,167.1,311.8z"/>
	<path class="st0" d="M117.9,241.5c-1.1-0.1-1.4-0.1-2.1-1.3c0-0.1-0.1-0.1-0.1-0.2c0.4-0.5,0.6-0.7,1.5-1.2
		c0.5,0.6,0.9,1.3,1.4,1.9C118.3,241,118.1,241.2,117.9,241.5z"/>
</g>
</svg>
