<?xml version="1.0" encoding="utf-8"?>
<!-- Generator: Adobe Illustrator 19.1.0, SVG Export Plug-In . SVG Version: 6.00 Build 0)  -->
<svg version="1.1" id="Layer_1" xmlns="http://www.w3.org/2000/svg" xmlns:xlink="http://www.w3.org/1999/xlink" x="0px" y="0px"
	 viewBox="0 0 256 256" style="enable-background:new 0 0 256 256;" xml:space="preserve">
<style type="text/css">
	.st0{fill:#DCDCDC;}
	.st1{fill:#D8262E;}
	.st2{fill:#0D0D0D;}
</style>
<g>
	<polygon class="st0" points="128,230.6 35.9,138.5 25.9,148.5 128,250.6 230.1,148.5 220.1,138.5 	"/>
	<path class="st1" d="M128,214.6L23.4,110L128,5.4L232.6,110L128,214.6z"/>
	<path class="st2" d="M183.5,94.9c-3.4-9.3-6-18.5-6-18.5C159.6,51.8,128,54,128,54s-31.6-2.2-49.4,22.4c0,0-2.6,9.3-6,18.5
		c0,0-3.5,16.4,7,29.7c0,0,8.7,9.1,5.8,23.2c0,0-2.2,8.5,7.5,8.1c0,0,11.6,5.6,12.3,13.9c0,0,7.2,7.1,22.9,7.8
		c15.6,0.7,22.9-7.8,22.9-7.8c0.6-8.3,12.3-13.9,12.3-13.9c9.7,0.4,7.5-8.1,7.5-8.1c-3-14.1,5.8-23.2,5.8-23.2
		C187,111.3,183.5,94.9,183.5,94.9z M108.8,136.2c-2.8-1.9-8.2-0.7-8.2-0.7l-3.9,1.8c-3.1,0.6-4.1-3.8-4.1-3.8
		c-0.7-6.3-3.9-8.8-3.9-8.8c-5.2-6,2.9-9.6,2.9-9.6c10.4-4.3,20.4-4.2,20.4-4.2c6.5,1.3,9.5,5.6,9.5,5.6c3.6,2.6,0.9,7.5,0.9,7.5
		l-4.4,8.6C114.7,137.4,108.8,136.2,108.8,136.2z M133.9,150.7c0,0-3.3,1.7-4.3-0.9c0,0,0.8-6.5-1.6-7.3c-2.4,0.8-1.6,7.3-1.6,7.3
		c-1,2.7-4.3,0.9-4.3,0.9c-6.2-4.1-1.1-10.4-1.1-10.4c4.1-4.6,4-7.7,4-7.7c0.6-2.6,3.1-3.1,3.1-3.1s2.5,0.5,3.1,3.1
		c0,0-0.1,3.1,4,7.7C135,140.3,140.1,146.5,133.9,150.7z M167.5,124.6c0,0-3.2,2.5-3.9,8.8c0,0-0.9,4.5-4.1,3.8l-3.9-1.8
		c0,0-5.5-1.2-8.2,0.7c0,0-5.9,1.2-9.1-3.6l-4.4-8.6c0,0-2.6-4.8,0.9-7.5c0,0,3-4.3,9.5-5.6c0,0,10-0.1,20.4,4.2
		C164.6,115.1,172.7,118.7,167.5,124.6z"/>
</g>
</svg>
