<?xml version="1.0" encoding="utf-8"?>
<!-- Generator: Adobe Illustrator 19.1.0, SVG Export Plug-In . SVG Version: 6.00 Build 0)  -->
<svg version="1.1" id="Layer_1" xmlns="http://www.w3.org/2000/svg" xmlns:xlink="http://www.w3.org/1999/xlink" x="0px" y="0px"
	 viewBox="0 0 54 54.8" style="enable-background:new 0 0 54 54.8;" xml:space="preserve">
<style type="text/css">
	.st0{fill:#FFFFFF;}
</style>
<path class="st0" d="M47,40.5c0.6-0.9,1.1-1.9,1.6-2.9l4.1-0.8c0.6-1.5,1-3,1.2-4.6l-3.2-2.7c0.2-2.2,0.1-4.4-0.3-6.6l2.9-3
	c-0.4-1.5-1-3-1.7-4.4l-4.2-0.4c-1.1-1.9-2.5-3.6-4.1-5.1l0.5-4.1c-0.6-0.5-1.3-0.9-1.9-1.4c-0.7-0.4-1.4-0.8-2-1.2l-3.6,2.2
	C34.3,4.5,32.2,4,30,3.7L28,0c-1.6-0.1-3.2,0-4.7,0.2l-1.6,3.9c-2.1,0.5-4.2,1.3-6.1,2.3l-3.8-1.8c-1.3,0.9-2.5,1.9-3.7,3L9,11.7
	c-0.7,0.8-1.4,1.7-2,2.6s-1.1,1.9-1.6,2.9L1.2,18c-0.6,1.5-1,3-1.2,4.6l3.2,2.7c-0.2,2.2-0.1,4.4,0.3,6.6l-2.9,3
	c0.4,1.5,1,3,1.7,4.4l4.2,0.4c1.1,1.9,2.5,3.6,4.1,5.1L10.1,49c0.6,0.5,1.3,0.9,1.9,1.4s1.4,0.8,2,1.2l3.6-2.2
	c2.1,0.9,4.2,1.4,6.4,1.7l2,3.7c1.6,0.1,3.2,0,4.7-0.2l1.6-3.9c2.1-0.5,4.2-1.3,6.1-2.3l3.8,1.8c1.3-0.9,2.5-1.9,3.7-3L45,43.1
	C45.7,42.3,46.4,41.4,47,40.5z M15.1,45.5c-10-6.5-12.8-20-6.3-30s20-12.8,30-6.3s12.8,20,6.3,30S25.2,52.1,15.1,45.5z"/>
</svg>
