<?xml version="1.0" encoding="utf-8"?>
<!-- Generator: Adobe Illustrator 19.1.0, SVG Export Plug-In . SVG Version: 6.00 Build 0)  -->
<svg version="1.1" id="Layer_1" xmlns="http://www.w3.org/2000/svg" xmlns:xlink="http://www.w3.org/1999/xlink" x="0px" y="0px"
	 viewBox="0 0 25.4 25.8" style="enable-background:new 0 0 25.4 25.8;" xml:space="preserve">
<style type="text/css">
	.st0{fill:#FFFFFF;}
</style>
<path class="st0" d="M22.1,19.1c0.3-0.4,0.5-0.9,0.8-1.4l1.9-0.4c0.3-0.7,0.5-1.4,0.6-2.2l-1.5-1.3c0.1-1,0-2.1-0.2-3.1l1.4-1.4
	c-0.2-0.7-0.5-1.4-0.8-2.1l-2-0.2c-0.5-0.9-1.2-1.7-1.9-2.4l0.3-2c-0.3-0.2-0.6-0.4-0.9-0.7s-0.6-0.4-1-0.6l-1.7,1
	c-1-0.4-2-0.7-3-0.8L13.2,0c-0.7,0-1.5,0-2.2,0.1l-0.8,1.8c-1,0.2-2,0.6-2.9,1.1L5.5,2.2C4.9,2.6,4.3,3.1,3.8,3.6l0.4,1.9
	C3.9,5.9,3.6,6.3,3.3,6.7S2.7,7.6,2.5,8.1L0.6,8.5C0.3,9.2,0.1,9.9,0,10.6l1.5,1.3c-0.1,1,0,2.1,0.2,3.1l-1.4,1.4
	c0.2,0.7,0.5,1.4,0.8,2.1l2,0.2c0.5,0.9,1.2,1.7,1.9,2.4l-0.3,2c0.3,0.2,0.6,0.4,0.9,0.7c0.3,0.2,0.6,0.4,1,0.6l1.7-1
	c1,0.4,2,0.7,3,0.8l0.9,1.7c0.7,0,1.5,0,2.2-0.1l0.8-1.8c1-0.2,2-0.6,2.9-1.1l1.8,0.8c0.6-0.4,1.2-0.9,1.7-1.4l-0.4-1.9
	C21.5,19.9,21.8,19.5,22.1,19.1z M9.5,17.8C6.8,16.1,6,12.4,7.8,9.7s5.4-3.5,8.1-1.7s3.5,5.4,1.7,8.1S12.2,19.6,9.5,17.8z"/>
</svg>
