<?xml version="1.0" encoding="utf-8"?>
<!-- Generator: Adobe Illustrator 22.1.0, SVG Export Plug-In . SVG Version: 6.00 Build 0)  -->
<svg version="1.1" id="Layer_1" xmlns="http://www.w3.org/2000/svg" xmlns:xlink="http://www.w3.org/1999/xlink" x="0px" y="0px"
	 viewBox="0 0 256 256" style="enable-background:new 0 0 256 256;" xml:space="preserve">
<style type="text/css">
	.st0{fill:#079CD7;}
</style>
<g>
	<path class="st0" d="M5.3,81.2v31.3l113.9,84.8H6.5l6.6,19.7h145.7l3.8-13.9L44.7,112.5h27.2l8.3-31.3H5.3z"/>
	<g>
		<polygon class="st0" points="59.2,189.5 93.6,189.5 93.9,188.3 65.3,166.9 		"/>
		<polygon class="st0" points="230.3,46.8 250.7,15.1 106,15.1 90.4,73.4 90.4,73.4 87.8,83.2 79.5,114.5 77.9,120.3 77.8,120.3 
			76.1,126.7 104.5,148.6 114.2,112.5 174.9,112.5 195.2,81.2 122.6,81.2 131.8,46.8 		"/>
		<polygon class="st0" points="49.7,224.8 48.6,229 62.4,240.9 83,229 84.1,224.8 		"/>
	</g>
</g>
</svg>
