<?xml version="1.0" encoding="utf-8"?>
<!-- Generator: Adobe Illustrator 19.1.0, SVG Export Plug-In . SVG Version: 6.00 Build 0)  -->
<svg version="1.1" id="Layer_1" xmlns="http://www.w3.org/2000/svg" xmlns:xlink="http://www.w3.org/1999/xlink" x="0px" y="0px"
	 viewBox="0 0 256 256" style="enable-background:new 0 0 256 256;" xml:space="preserve">
<style type="text/css">
	.st0{fill:#DCDCDC;}
</style>
<path class="st0" d="M184.4,249H195c0-9.9,0-17.6-0.6-25.7c-0.6-8-1.8-16-4.2-26.2c-7.2-30.8-29.6-52.4-53.2-71.5c1.3-1,2.6-2,3.8-3
	c3.8-2.9,7.5-5.8,10.6-8.3C171.2,98.7,182,83.5,188,66.2c5.9-17,6.9-35.6,6.9-58.4h-10.6c0,3.6,0,7.1-0.1,10.4h-50
	c-0.9-2.3-3.2-3.9-5.9-3.9c-3.5,0-6.3,2.8-6.3,6.3c0,3.5,2.8,6.3,6.3,6.3c2.7,0,4.9-1.6,5.9-4h49.9c-0.2,5.8-0.6,11.4-1.1,16.6
	h-31.2c-0.9-2.3-3.2-3.9-5.9-3.9c-3.5,0-6.3,2.8-6.3,6.3c0,3.5,2.8,6.3,6.3,6.3c2.7,0,4.9-1.6,5.9-4h30.6c-0.9,6-2.2,11.6-3.9,17
	h-43.5c-0.9-2.3-3.2-3.9-5.9-3.9c-3.5,0-6.3,2.8-6.3,6.3c0,3.5,2.8,6.3,6.3,6.3c2.7,0,4.9-1.6,5.9-4h41.7c-2.8,7-6.7,13.7-11.9,20.3
	h-13c-0.9-2.3-3.2-3.9-5.9-3.9c-3.5,0-6.3,2.8-6.3,6.3c0,3.5,2.8,6.3,6.3,6.3c2.7,0,4.9-1.6,5.9-4h8.9c-4.4,4.9-9.7,9.8-15.9,14.7
	c-3.8,3-7.1,5.6-10.5,8.2c-2,1.5-3.9,3-5.9,4.6c-2-1.5-3.9-3.1-5.9-4.6c-3.4-2.6-6.7-5.2-10.5-8.2c-6.3-5-11.5-9.8-15.9-14.7h27
	c0.9,2.3,3.2,4,5.9,4c3.5,0,6.3-2.8,6.3-6.3c0-3.5-2.8-6.3-6.3-6.3c-2.7,0-4.9,1.6-5.9,3.9H92.1C86.9,80,83,73.3,80.2,66.3h24.6
	c0.9,2.3,3.2,4,5.9,4c3.5,0,6.3-2.8,6.3-6.3c0-3.5-2.8-6.3-6.3-6.3c-2.7,0-4.9,1.6-5.9,3.9H78.4c-1.8-5.4-3.1-11-3.9-17h48.2
	c0.9,2.3,3.2,4,5.9,4c3.5,0,6.3-2.8,6.3-6.3c0-3.5-2.8-6.3-6.3-6.3c-2.7,0-4.9,1.6-5.9,3.9H73.9c-0.6-5.3-1-10.8-1.1-16.6h32
	c0.9,2.3,3.2,4,5.9,4c3.5,0,6.3-2.8,6.3-6.3c0-3.5-2.8-6.3-6.3-6.3c-2.7,0-4.9,1.6-5.9,3.9H72.7c-0.1-3.4-0.1-6.8-0.1-10.4H62
	c0,22.8,1,41.4,6.9,58.4c6,17.2,16.9,32.5,36.7,48.2c3.1,2.5,6.8,5.3,10.6,8.3c1.3,1,2.6,2,3.8,3c-23.6,19-46.1,40.7-53.2,71.5
	c-2.4,10.1-3.6,18.2-4.2,26.2c-0.6,8-0.6,15.8-0.6,25.7h10.6c0-4.4,0-8.3,0.1-12h32.1c0.9,2.3,3.2,3.9,5.9,3.9
	c3.5,0,6.3-2.8,6.3-6.3s-2.8-6.3-6.3-6.3c-2.7,0-4.9,1.6-5.9,4h-32c0.1-2.8,0.2-5.4,0.4-8.1c0.2-2.8,0.5-5.6,0.9-8.6h48.8
	c0.9,2.3,3.2,3.9,5.9,3.9c3.5,0,6.3-2.8,6.3-6.3c0-3.5-2.8-6.3-6.3-6.3c-2.7,0-4.9,1.6-5.9,4h-48c0.6-3.5,1.3-7.1,2.3-11.2
	c0.5-2,1-3.9,1.6-5.8h26.3c0.9,2.3,3.2,3.9,5.9,3.9c3.5,0,6.3-2.8,6.3-6.3c0-3.5-2.8-6.3-6.3-6.3c-2.7,0-4.9,1.6-5.9,4H80.3
	c2.8-7.2,6.7-14,11.3-20.3h31.6c0.9,2.3,3.2,3.9,5.9,3.9c3.5,0,6.3-2.8,6.3-6.3s-2.8-6.3-6.3-6.3c-2.7,0-4.9,1.6-5.9,4H95.3
	c9.4-11.6,21.1-21.9,33.1-31.5c12,9.6,23.7,19.8,33.1,31.5h-9.8c-0.9-2.3-3.2-4-5.9-4c-3.5,0-6.3,2.8-6.3,6.3s2.8,6.3,6.3,6.3
	c2.7,0,4.9-1.6,5.9-3.9h13.5c4.6,6.3,8.4,13,11.3,20.3H135c-0.9-2.3-3.2-4-5.9-4c-3.5,0-6.3,2.8-6.3,6.3c0,3.5,2.8,6.3,6.3,6.3
	c2.7,0,4.9-1.6,5.9-3.9h43.2c0.6,1.9,1.2,3.8,1.6,5.8c0.9,4.1,1.7,7.7,2.3,11.2h-30.5c-0.9-2.3-3.2-4-5.9-4c-3.5,0-6.3,2.8-6.3,6.3
	c0,3.5,2.8,6.3,6.3,6.3c2.7,0,4.9-1.6,5.9-3.9h31.2c0.4,2.9,0.7,5.8,0.9,8.6c0.2,2.6,0.3,5.3,0.4,8.1h-50c-0.9-2.3-3.2-4-5.9-4
	c-3.5,0-6.3,2.8-6.3,6.3s2.8,6.3,6.3,6.3c2.7,0,4.9-1.6,5.9-3.9h50.1C184.4,240.7,184.4,244.6,184.4,249z"/>
</svg>
