<?xml version="1.0" encoding="utf-8"?>
<!-- Generator: Adobe Illustrator 19.2.1, SVG Export Plug-In . SVG Version: 6.00 Build 0)  -->
<svg version="1.1" id="Layer_3_copy" xmlns="http://www.w3.org/2000/svg" xmlns:xlink="http://www.w3.org/1999/xlink" x="0px"
	 y="0px" viewBox="0 0 512 512" style="enable-background:new 0 0 512 512;" xml:space="preserve">
<style type="text/css">
	.st0{fill:#FFFFFF;}
</style>
<path class="st0" d="M459.7,138.4L256,20.8l0,0l0,0L52.3,138.4v0h0v235.2L256,491.2l0,0l0,0l203.7-117.6V138.4z M449.7,144.2v4.2
	l-127.5,91.1l114.7-102.7L449.7,144.2z M439.4,176l-6.1,10.8l-25.2,7.3l14.3-8.9l8.9-12.6L439.4,176z M415.6,124.5
	c-57,61.5-124.5,134.3-129.8,140.7l-0.3,0.4c0,0,0.1-0.2,0.3-0.4L399,114.9L415.6,124.5z M335.4,346.3l11.4-5.5l6.9,5.5l-4,11.5
	L335.4,346.3z M227.5,284.9c0.1-0.4,0.5-0.9,1.6-1.3l-0.4-5.5V278h13.9l7.4,2.1l1.9-5l1,7.4l-5.4,2.6l13.9,5.8h9.2l-2,1l10.8,8.7
	l-2.2-0.5v8.4l4.8,2.3v0.4c0,0,1.9,0,1.6,1.5c-0.1,0.4-0.5,0.9-1.6,1.4v0.1l0.4,5.1v21.9c0,0,1.7,1.6,0.6,4c-1.5,3.4-8,8-26.9,8.2
	l0,0c-0.2,0-0.3,0-0.5,0c-0.2,0-0.3,0-0.5,0l0,0c-18.9-0.2-25.4-4.8-26.9-8.2c-1.1-2.4,0.6-4,0.6-4v-21.9l0.4-5.1v-0.1
	c-1.1-0.5-1.5-1-1.6-1.4c-0.3-1.5,1.6-1.5,1.6-1.5v-24.7C229.1,286.4,227.2,286.4,227.5,284.9z M260,260.3l10-15.2l3,15.1L260,260.3
	z M310.8,64l-16.4,39.3h-8.2l-4.4-8.7l15.6-31.4l9.2-1.5L310.8,64z M290.6,148l-7.8,26.8l-2.4-18.8L290.6,148z M314.7,329.2
	l-17.7-8.4v-8.4l25.2,5.8L314.7,329.2z M309.4,281.9l-4.9-0.6l-11.6,2.8l4.3-15.2l12.9-6.5L309.4,281.9z M379.3,103.6l-60,87.1
	l50.5-92.6L379.3,103.6z M339.7,113.1l12.1-15.6v14.7l-14.3,16.4L339.7,113.1z M335.4,78.2L280.6,234l38-165.4L335.4,78.2z
	 M278,45.1l-9.9,177.8l-3.5-185.5L278,45.1z M232.8,45.8l22,140.8l-30-136.2L232.8,45.8z M207,60.7l48.5,178.9L190.9,70L207,60.7z
	 M228.4,196.8v18.6l-11.3-18.6H228.4z M190.6,137.9l16.5,2.5l-1.3,17.7l-16.3-7.3L190.6,137.9z M145,96.4l90,163.9L118.5,111.8
	L145,96.4z M85.6,130.8L207,239.5l-138.4-99L85.6,130.8z M203.9,271.5l-17.2-12.7c0,0-2.7,0.4-3.8-2.3c-1.1-2.7-0.8-8.4,4.6-17.8
	l0.5,0.1l2.4-3.2l0.1,1.8l11.1,6.2l-6.4,12.7L203.9,271.5z M62.3,311.9v-15.3l83.9-1.8L62.3,311.9z M136.2,315.7l-19.1,1.3l8.2-9
	L136.2,315.7z M129.3,263.2c0.4,0,0.7,0,0.7,0L129.3,263.2c-4.6-0.1-32.4,0.8-66.9,2v-6.8L129.3,263.2z M62.3,239.6v-11.9l73.9,20.5
	C135,248.4,101.4,244.4,62.3,239.6z M143.7,287l-7.5-11l25.2-5.8v8.4L143.7,287z M62.3,206.7v-13.2l104.8,47.6L62.3,206.7z
	 M79.5,180.4l6.9-5.5l11.4,5.5l-14.3,11.5L79.5,180.4z M62.3,367.8v-17.5l150.5-55.6L73.2,374.1L62.3,367.8z M449.7,367.8l-11,6.3
	l-122.1-69.4L449.7,354V367.8z M374,315.7l11-7.7l8.2,9L374,315.7z M449.7,315.4l-101-20.7l101,2.2V315.4z M356.5,280l17.4-8.5
	l30.9,8.5l-7.7,5.8l-23.2-7.2L356.5,280z M449.7,267.8c-59.3-2.2-123.3-4.6-123.4-4.6l123.4-8.9V267.8z M449.7,239.4
	c-39.9,4.9-74.5,9-75.7,8.8l75.7-21V239.4z M449.7,206.1l-106.6,35l106.6-48.4V206.1z"/>
</svg>
