<?xml version="1.0" encoding="utf-8"?>
<!-- Generator: Adobe Illustrator 19.2.1, SVG Export Plug-In . SVG Version: 6.00 Build 0)  -->
<svg version="1.1" id="Layer_3_copy" xmlns="http://www.w3.org/2000/svg" xmlns:xlink="http://www.w3.org/1999/xlink" x="0px"
	 y="0px" viewBox="0 0 512 512" style="enable-background:new 0 0 512 512;" xml:space="preserve">
<style type="text/css">
	.st0{fill:#FFFFFF;}
</style>
<g>
	<g>
		<path class="st0" d="M246.9,259.6c0,0-5.8-8.8-18.5-11.5c0,0-19.5-0.3-39.7,8.5c0,0-15.8,7.3-5.6,19.5c0,0,6.2,5.2,7.6,18.1
			c0,0,1.8,9.2,7.9,7.9l7.7-3.8c0,0,10.7-2.4,16.1,1.4c0,0,11.5,2.5,17.8-7.3l8.6-17.6C248.7,274.8,253.8,264.9,246.9,259.6z"/>
	</g>
	<g>
		<path class="st0" d="M265.7,292.3c-1.2-5.3-6-6.3-6-6.3s-4.8,1-6,6.3c0,0,0.3,6.3-7.7,15.7c0,0-9.9,12.8,2.2,21.2
			c0,0,6.4,3.6,8.3-1.9c0,0-1.5-13.3,3.2-15c4.7,1.7,3.2,15,3.2,15c1.9,5.5,8.3,1.9,8.3,1.9c12.1-8.4,2.2-21.2,2.2-21.2
			C265.4,298.6,265.7,292.3,265.7,292.3z"/>
	</g>
	<g>
		<path class="st0" d="M256,20.8L52.3,138.4v235.2L256,491.2l203.7-117.6V138.4L256,20.8z M354.1,195.8c-0.1,0.6-0.4,0.8-0.9,0.5
			C353.3,195.8,353.6,195.7,354.1,195.8z M345.5,200.3c0.5,0,0.2,0.4,0.1,0.7C345.4,200.9,345.3,200.7,345.5,200.3z M345.3,204.5
			c1-0.1,0.3-1.8,1.4-1.6c-0.1,0.2-0.1,0.4-0.2,0.6c0.3,0.1,0.2-0.6,0.4-0.8c0.1-0.3-0.4-0.1-0.5,0c-0.2-0.2-0.2-0.5,0-1
			c-0.6-0.6-0.1-1.7,0.1-2.8c-0.4-0.3-0.2,0.4-0.7,0.1c-0.4-0.2-0.4-0.8-0.3-1.3c0.2,0.1,0.5,0.1,0.7,0.2c-0.1-0.5-0.4-0.1-0.6-0.6
			c0.1-0.3,0.2-0.6,0.2-0.9c1.1,0.2,2.3-0.6,3,0.4c0.3,0.1,0.3-0.4,0.6-0.3c0.5,0.3,1.1,0.6,1.1,1.2c-0.6,0.2-0.9,0-1.3-0.5
			c0.1,0.5-0.1,0.8-0.4,1c-1-0.2-0.7-1.1-1.8-1.3c0,0.9,0.7,1.3,1.4,1.8c0.2,0,0.2-0.2,0.3-0.4c0.2,0.6,0.8,0.4,1.4,0.5
			c-0.1,0.2,0.2,1.2-0.4,1c-0.1,0.3,0.5,0.2,0.7,0.3c0.1-0.5-0.1-0.9,0.1-1.4c0.3,0,0.2,0.2,0.2,0.4c0.1,0.3,0.2,0.6,0.2,0.8
			c0.1,0.5,0.1,0.9,0,1.6c-0.4,0.2-0.9,0.2-1.4,0.4c-0.2,0.6-0.6,0.6-0.9,0.9c-0.5,0.5-0.8,1.3-1.5,1c-0.1,0.2-0.1,0.5-0.2,0.7
			c-0.9-0.2-1,0.9-1.9,0.6c-0.1,0.4-0.2,0.6-0.5,0.6c-0.4-0.2-0.4-0.8-0.4-1.2C344.6,204.7,344.7,204.2,345.3,204.5z M349.2,203.4
			c0.2-0.8,1-0.6,1.5-0.8c0.3,0.4,0.2,1,0.2,1.6c-0.4,0.1-1.4-0.1-1.6-0.4C349.3,203.6,349.3,203.5,349.2,203.4z M344,205
			c-0.4,0.4,0.3,0.6,0.2,1c-0.1,0.6-0.8,1-1.4,0.4C343.1,205.6,343.4,205,344,205z M334.8,198.8c0.2-0.3,0.5-0.7,0.7-0.8
			c0.1-0.5,0.4-0.4,0.4-1c0.3-0.1,0.8-0.5,1.1,0c-0.1,0.3-0.2,0.4-0.6,0.3c-0.1,0.4,0.5,0.3,0.3,0.7c-0.3,0.5-0.9,0.4-1.4,0.6
			c-0.2,0.5-0.5,0.7-0.7,1.2C334.1,199.7,334.6,199.1,334.8,198.8z M334.4,200.1c0.1,0.1-0.2,0.2-0.2,0.1
			C334.2,200.1,334.4,200.1,334.4,200.1z M327,150.1c0.1,0,0.2-0.1,0.2-0.3c0.2,0.1,0.2,0.3,0.2,0.5c0.8,0.2,0.8,0.2,1.3,0.2
			c0,0,0,0,0,0c0.1,0.2,0.1,0.4-0.2,0.6c0.1,0.2,0.9,0.4,0.8,1c-0.2,0.1-0.4,0.1-0.8-0.1c0.4-0.4-0.5-0.3-0.8-0.5
			c-0.2-0.1-0.3-0.5-0.5-0.6c-0.2-0.1-0.5-0.1-0.7-0.2c-0.5-0.3-0.6-0.9-1.1-0.9C325.8,149.4,326.8,149.6,327,150.1z M321.2,146.1
			c1.5,0.8,3,1.7,4.6,2.6c-0.1,0.3-0.4,0.7-0.6,0.7c-0.5,0-0.1-0.5-0.5-0.6c-0.7-0.3-1-0.1-1.6-0.3c-0.6-0.6-1.3-1.2-1.4-2.1
			c-0.4,0-0.6-0.2-0.7-0.3C321,146.1,321.1,146.1,321.2,146.1z M319.8,145.6c0.6,0.1,0.7,0.4,0.9,0.7c-0.2,0.5-0.9,0.1-1.4,0.1
			C319.3,145.8,319.6,145.8,319.8,145.6z M318.2,148.8c0.5-0.2,1.2,0.6,1.9,0.4c0-0.9-1.2-1-2.1-1.4c0.5,0,0.5-0.9,0.5-1.3
			c1.1,0.3,1.3,1.2,1.7,1.9c0.9,0.5,2.2-0.6,2.1,0.8c-1.3-0.5-1.2,1.4-2.4,0.9c-0.3,0.5,0.2,0.6,0.2,1c-0.1,0.8-0.5,1.2-1,1.4
			c-0.4-0.4-1-0.8-1.2-1.4C318.2,150.3,319.2,149.3,318.2,148.8z M318.7,152.7c-0.3,0.7-1.3,0.8-1.9,0.2c-0.6,0-0.9,0.4-1.7,0
			c-0.3-0.4-0.5-0.9-1.1-1.1c0.3-0.6,0.7,0.1,1.2,0.2c0.4,0.1,0.4-0.5,0.6-0.6c0.4,0.2,0.6,0.4,0.8,0.7c0.5-0.1,0.9-0.1,1.3-0.3
			C318.2,152.1,318.5,152.3,318.7,152.7z M318.1,166.9c-0.2,0.5-0.7,1.1-1.1,0.6C317.3,167.3,317.5,166.7,318.1,166.9z M315.4,153.4
			c-0.1,0.4-0.4,0.4-0.5,0.6C314.6,153.9,315,153.2,315.4,153.4z M314.4,156c-0.1,0.2-0.3,0.3-0.5,0.5c-0.6,0-0.1-0.7-0.8-0.7
			C313.4,155.5,314,156,314.4,156z M315.9,147.5c-0.3-0.1-0.4-0.2-0.3-0.6c0.1,0,0.3,0.1,0.4,0.1C316,147.2,316,147.3,315.9,147.5z
			 M354.3,276.1c0,0-17,18.7-11.2,47.5c0,0,4.3,17.4-14.7,16.6c0,0-22.7,11.4-24,28.4c0,0-14.1,17.4-44.6,15.9
			c-30.5-1.5-44.6-15.9-44.6-15.9c-1.2-17-24-28.4-24-28.4c-19,0.8-14.7-16.6-14.7-16.6c5.8-28.8-11.2-47.5-11.2-47.5
			c-20.5-27.2-13.7-60.7-13.7-60.7c6.7-18.9,11.8-37.9,11.8-37.9c34.9-50.3,96.5-45.9,96.5-45.9s27.2-2,55.8,11.5
			c-0.1,0.2-0.2,0.4-0.2,0.7c0.4,0.4,0.7,0.8,1.6,0.9c0,0.4,0.3,0.6,0.2,1c-1.2-0.1-2.4-0.2-3.8-0.6c-0.4,1.3,1.4,1.2,2,1.8
			c0.2,0.2,0.4,0.7,0.3,1c0,0.3-0.4,0.3-0.4,0.8c-0.4,0-0.8,0-1.1,0.2c0.7,0.3,1.5,0.1,1.7,0.5c-0.6,0.7-1.3,1-2.5,0.6
			c0-0.1,0.1-0.3,0.1-0.4c-0.6-0.1-1.2,0.3-1.5-0.4c0.5-0.4,1.5,0.1,2.1-0.2c-0.7-0.3-1.5,0-2.3-0.2c-0.6-0.1-1.2-0.4-1.9-0.5
			c-0.3-0.1-0.7,0.1-1.1,0c-0.9-0.2-1.8-0.1-2.6-0.1c-0.5,0-1-0.5-1.3,0.1c0.4,0.6,1,0.2,1.5,0.3c1.1,0.2,2.2,0.6,3.5,1
			c0.1,0.3,0.4,0.4,0.2,0.8c0.4,0.1,0.7,0.3,0.8,0.7c-0.2,0.3,0.2,0.4-0.1,0.8c-0.2,0-0.3,0.2-0.5,0.2c-0.5-0.1-0.3-0.6-0.9-0.6
			c-0.5,0.8,0.5,0.7,0.3,1.3c-0.2,0.3-0.5,0.4-0.6,0.9c0.9,0.7,2.8,0.9,2.3,2.4c0.9,0.3,1.1,0.2,1.7,0.5c0.3,0.8,1.6,0.9,1.9,1.8
			c-0.3,0.6,0.3,0.9-0.2,1.2c1.2,0.1,0.9,1,0.6,1.9c-0.7,0.1-1.5,0.3-2.1,0.7c-0.5-0.1-1.8-0.2-2.7-0.4c-0.6-0.2-1-0.5-1.6-0.6
			c-0.3,0-0.5,0-0.8-0.1c-0.3-0.1-0.6-0.4-1-0.4c-0.2,0-0.5,0.1-0.8,0.1c-0.2,0-0.7-0.4-0.7,0.1c0.6,0.1,0.8,0.5,1.6,0.6
			c0.8-0.5,2,0.1,3,0.5c0.3,1,0.7,2.4,2.3,1.9c0.3,1-0.3,1.4-1,1.4c-0.3,0-0.7-0.4-1.4-0.7c-0.6-0.2-1.3-0.4-1.9-0.5
			c-0.3,0-0.6,0.1-0.8,0.1c-0.5,0-1-0.4-1.3,0.1c0.6,0.5,2.1,0.3,2.1,1.4c-0.4-0.3-0.3,0.4-0.7,0.3c-0.2,0.1-0.6,0-0.8,0.1
			c-0.4,0.9,0.6,0.9,0.1,1.8c-1.5-0.3-2.8-0.2-4.1,0c-0.2,0.9,0.1,1.5,0.9,1.8c-0.1,0.3-0.3,0.3-0.3,0.5c1,0.3,1.6-0.2,2.6,0.1
			c0.1,0.3,0.3,0.6,0.5,0.9c0.3,0.1,0.7,0.2,1,0.3c0.6,1.5,3,1.7,4.6,1.6c0.2,0.7,1.1,1,1.1,1.9c0.8,0.1,1,0.8,1.5,0.9
			c0.3,0.1,0.7-0.3,1.1,0c0.3-0.2,0.5-0.6,0.9-0.5c0.6,0.4,1.4,0.7,1.7,1.4c-0.2,0.4-0.2,0.9-0.5,1.1c0,0.1-0.4-0.2-0.4-0.1
			c-0.3,0.1-0.3,0.9-0.6,0.6c-0.3-0.4-1.1,0-1.1-0.6c0.5-0.7,1.5-0.5,1.7-1.6c-0.3-0.2-0.6-0.4-1.1-0.5c-0.6,0.4-0.7,1.6-1.3,1.8
			c-0.4-0.3-1.7-1-1.9,0c0.3,0.5,1.1,0.2,1.6,0.4c0.2,0.2,0.4,0.4,0.5,0.6c0,0.4-0.5,1.1-0.2,1.4c0.5-0.2,1.1,0.6,1.1,1.1
			c0,0.5-0.5,0.2-0.5,0.6c0.7,0.3,0.7-0.6,1.5-0.2c-0.1,0.4-0.7,0.3-0.4,0.8c0.6,0.4,0.7-0.6,1,0c-0.4,1.8-3-0.2-3.7,1.3
			c0.8,0.4,3,0,2.3,1.7c-0.9,0.7-3.2,0.1-4.2-0.7c0.3-0.2,0.9,0.2,1.1-0.2c-0.4-0.1-0.8-0.2-1.2-0.3c-0.2,0.2-0.3,0.5-0.6,0.5
			c-0.9-0.3-1.6,0-2.4,0.1c-0.2,0-0.4,0-0.6,0c-0.7,0-1.9,0.2-3.1-0.1c-0.9-0.2-2.4-1.1-3.2,0.1c0.9,1,2.4,0.2,4.2,0.5
			c1.1,0.2,2.4,0.7,3.5,1c1.9,0.4,3.8,0.3,5.3,0.7c-0.1,0.8,0.3,1.2,0.2,1.9c-0.4,1-0.3,1.6-0.8,2.4c-0.2,0.4-1,1-1.5,1.3
			c-0.7,0.5-1.2,0.7-1.8,1.4c-0.5,0.5-1.1,0.9-1.9,1.2c-0.1,0-0.3,0.2-0.4,0.2c-0.1,0-0.3-0.2-0.4-0.1c-0.2,0.1-0.5,0.3-0.7,0.4
			c-0.8,0.3-1.9,1-1.8,2.5c1.3,1.5,2.1,3.2,1.2,6c0.6,1,0.9,2.4,0.4,3.7c-0.1,0.3-0.5,0.5-0.7,0.8c-0.2,0.3-0.2,0.7-0.4,1
			c-0.1,0.1-0.5,0.3-0.6,0.6c0.5,1.1-0.1,3.3-0.8,5.1c-0.3,0.7-0.8,1.5-1.2,2.5c-0.5,1.4-0.7,2.8-1.2,4.2c-0.2,0.4-0.7,0.4-0.9,0.9
			c0.3,0.4,0.4,0.9,0.5,1.6c0.2,1.1,0.1,2.6-0.2,4.2c-0.1,0.6-0.4,1.1-0.5,1.7c-0.2,1.1-0.2,2.5-0.5,3.5c-0.1,0.3-0.4,0.6-0.6,0.9
			c-0.5,1.2-0.5,2.9-1.1,4.6c-0.2,0.5-0.5,0.9-0.7,1.4c-0.2,0.6-0.3,1.3-0.5,1.9c-0.4,0.9-1,1.4-1.2,2.6c-0.1,0.5,0.1,1.2,0,1.7
			c0,0.2-0.2,0-0.2,0.1c-0.1,0.2,0.1,0.1,0.1,0.2c-0.1,0.4,0,0.8,0.1,1.3c-3.7-0.3-5.9-0.3-5.9-0.3c-12.7,2.7-18.5,11.5-18.5,11.5
			c-7,5.3-1.8,15.2-1.8,15.2l8.6,17.6c6.3,9.8,17.8,7.3,17.8,7.3c5.4-3.8,16.1-1.4,16.1-1.4l7.7,3.8c6.1,1.3,7.9-7.9,7.9-7.9
			c1.4-12.9,7.6-18.1,7.6-18.1c10.2-12.2-5.6-19.5-5.6-19.5c-10.6-4.6-21-6.7-28.5-7.7c0.2-0.5,0.1-1.1,0.3-1.7
			c0.1-0.2,0.3-0.5,0.3-0.7c0.3-1.3,0.4-2.5,0.9-3.7c0.2-0.6,0.6-1,0.7-1.5c0.7-2.3,0.3-5,1.2-7.3c0.1-0.3,0.3-0.4,0.3-0.7
			c0.1-0.3,0-0.8,0-1.1c0.1-1.6,0.7-3.7,1.1-5.7c0.6-0.4,0.9-1.5,0.9-2c-0.7,0.2-1.1-0.8-1.4-1.3c0.7-1.9,0.5-4.6,1.8-5.4
			c-0.3-0.9,0.3-2.2,0.6-3.4c0.3-1,0.5-2.2,0.9-3.3c0.5-1.3,1.4-2.6,1.9-3.9c0.6-1.5,1.4-3.1,2.5-3.5c0.9-1.5-0.3-2.7-0.2-3.8
			c0.1-0.7,0.6-1.2,0.9-2.1c0.6-0.2,1-0.6,1.3-1.2c0.8-0.1,0.9-0.7,1.4-1c0.9-0.5,2.1-0.8,3.3-0.6c1,0.1,2,0.7,3,0.7
			c0.8-0.1,1.4-0.8,2.1-1c0.6-0.1,1-0.1,1.7,0.2c0.2,0.3,0.4,0.5,0.4,0.9c0.5,0,0.5,0,0.9,0.2c-0.2,0.7,0.4,1.3,0.3,2.1
			c0,0.9-0.6,1.9-0.5,2.8c-0.6-0.3-0.7,0.2-0.8,0.7c0.5,0.3,0.4-0.6,0.8-0.6c-0.5,1.3-0.4,2.6-0.7,4.1c-0.1,0.6-0.5,1.2-0.5,1.9
			c-0.1,1.2,0.7,2.3-0.2,4c-0.2,0.3-0.5,0.5-0.7,0.8c0.4,0.5,1,0.9,1.1,1.6c-0.5,1.1-0.4,2.5-1,3.8c-0.1,0.3-0.4,0.5-0.5,0.8
			c-0.4,1-0.7,2-1,3c-0.1,0.2,0,0.6-0.1,0.8c-0.2,0.8-0.7,1.4-0.8,2.1c0,0.2,0.1,0.4,0.1,0.7c0,0.2-0.1,0.7-0.1,0.8
			c0.3,0.9,1.3,1.4,2.3,2c0.5-0.3,1-0.2,1.4-0.4c0.1-0.1,0.1-0.3,0.3-0.4c0.1-0.1,0.6-0.3,0.8-0.6c0.8-1.1,1.1-3.5,1.7-4.9
			c0.6-1.4,0.4-2.5,0.8-3.9c0-0.1,0.2-0.2,0.3-0.4c0.1-0.8,0.1-1.7-0.1-2.5c0-0.3-0.1-0.6-0.1-0.8c0.2-1.2,1.1-1.9,1.1-3
			c0.3-0.5,0.9-0.6,1-1.4c0-0.6-0.9-0.6-0.6-1.4c-0.8-0.1-1.2-0.5-1.1-1.1c0-0.5,0.4-0.4,0.4-0.8c0.1-0.4-0.4-0.4-0.2-0.8
			c0.1-0.9,0.5-2.3,0.9-3.7c0.3,0,0.3-0.5,0.7-0.3c0.6,0.4,0.9,0.9,1.9,1c1.1-0.4,2-1.3,1.6-2.9c0.3-0.4,1.3-0.5,1.1-1.1
			c-0.3,0.1-0.7,0.2-1.1,0.2c0-0.1,0.1-0.3,0.1-0.4c-0.3,0-0.2,0.9-0.7,0.4c-0.1-0.3-0.1-0.8,0-1.2c0.3,0,0.6-0.1,1,0
			c-0.2-2.1,1.9-1.7,1.8-0.3c0,0.6-0.7,1.1-0.6,1.6c0.1-0.3,0.5,0.1,0.8,0.1c0.2,0.2-0.2,0.7,0.1,0.8c0.3-0.3,0.2,0.6,0,1
			c-0.4,0.2-0.7-0.1-0.9-0.1c-0.1,0-0.2,0.2-0.4,0.2c0,0-0.5,0.2-0.6,0.3c-0.5,0.6-0.3,1.6-0.6,2.3c-0.1,0.1-0.2,0.6-0.3,0.7
			c-0.2,0.2-1,0-0.8,0.7c0.1,0.3,0.4,0.2,0.6,0.5c0,0.1-0.1,0.2-0.1,0.3c0,0.1,0.3,0,0.3,0.1c0.1,0.2,0.1,0.4,0.1,0.7
			c0.2,0.5,0.3,0.7-0.1,1.1c0.6,0.2-0.2,1.3,0.4,1.5c0.4-0.9-0.2-1.2,0.1-2c1.2,0.2,1.1,1.2,0.8,2.3c0.3,0.4,0.5,0.8,0.7,1.3
			c-0.3,2.1-1.6,4.7-2,7.1c-0.2,1.2-0.9,5-2.6,4.4c0-0.4,0.2-0.9-0.2-1c0.1,0.7-0.3,1.4-0.4,2.1c-0.1,0.6,0.1,1.3,0,1.9
			c-0.2,1.1-0.8,2.2-1,3.5c-0.1,0.4,0,0.9-0.1,1.4c-0.1,0.4-0.3,0.8-0.2,1.2c0.1,0.2,0.3,0.3,0.5,0.6c0.1,0.1-0.1,0.4,0,0.5
			c0.2,0.2,0.5,0.1,0.5,0.5c2.9,1.2,4.1-0.7,4.8-3.4c0.3-0.1,0.3-0.7,0.6-0.6c0.2-0.5-0.4-0.5-0.2-1c0.1-1.3,0.2-2.6,0.8-3.9
			c0.3-0.2,0.6-0.5,0.8-0.7c0.3-1.6,0.9-3.3,1.2-5c0.1-0.7,0.1-1.2,0.3-1.8c0.2-0.5,0.8-1,1-1.8c0.1-0.4,0-0.8,0.2-1.2
			c0.1-0.2,0.5-0.6,0.7-0.9c0.4-0.5,0.6-0.8,0.9-1.1c0.3-0.3,0.3-0.9,0.4-1.6c0.1-0.8,0.4-1.6,0.2-2.3c-0.4,0.6,0.1,1.3-0.4,1.6
			c-0.1-0.3-0.2-0.6-0.2-1c-0.6-0.3-0.6-0.3-1.1-0.6c0.9,0,1.1-1.2,2-1.2c-0.2-0.1,0.1-0.3,0.2-0.3c0.5,0,0.2,0.5,0.5,0.6
			c0-0.6,0.1-1.2,0.7-1.2c0.3,0.2,0.2,0.6,0.8,0.7c0.7,0,1.5,0.2,2.2,0.1c0.2-0.3,0.3-0.7,0.8-0.6c0.6,0.1,0.5,0.6,0.3,1.2
			c0.5,0.2,0.5-0.6,1-0.3c0.4,0.1,0.8,0.2,1.2,0.3c0.4-0.3,0.8-0.5,1.3-0.7c0.2,0.2,1.2,0.1,1.6,0.6c0.3-0.8,2.6,0.9,3.1,0.2
			c-1.1-0.5-2.2-0.3-3.1-0.7c-0.3-0.1-0.3-0.5-0.5-0.6c-0.3-0.2-0.5,0.2-0.6-0.2c0.6-0.2-0.1-1.2,0.6-1.1c0.3,0.3-0.2,1.2,0.4,1.4
			c0.1-0.2,0.1-0.5,0.2-0.7c-0.5-0.1-0.3-0.6-0.2-1c-0.3-0.1-0.5-0.2-0.5-0.5c0.3-0.3,0.7-0.4,1.1-0.5c0.1-0.4,0.2-0.7,0.5-0.6
			c1,0.1,1,0.7,1.4,1.2c0.3,0.1,0.4-0.1,0.6,0c0.9,1,1.5,2.5,3.5,2.5c0.3-0.2,0.6-0.4,0.9-0.5c1.1,3.5,2.4,7.1,3.6,10.7
			C367.9,215.4,374.8,248.9,354.3,276.1z M313,155.3c-0.1,0.2-0.2,0-0.1,0C312.9,155.1,313,155.2,313,155.3z M311.5,165.7
			c-0.4,0.1-2.1,0.2-1.9-0.7C310.3,164.9,311.2,165.2,311.5,165.7z"/>
	</g>
</g>
</svg>
