<?xml version="1.0" encoding="utf-8"?>
<!-- Generator: Adobe Illustrator 19.2.1, SVG Export Plug-In . SVG Version: 6.00 Build 0)  -->
<svg version="1.1" id="Layer_3_copy" xmlns="http://www.w3.org/2000/svg" xmlns:xlink="http://www.w3.org/1999/xlink" x="0px"
	 y="0px" viewBox="0 0 512 512" style="enable-background:new 0 0 512 512;" xml:space="preserve">
<style type="text/css">
	.st0{fill:#FFFFFF;}
</style>
<g>
	<path class="st0" d="M256,20.8L52.3,138.4v235.2L256,491.2l203.7-117.6V138.4L256,20.8z M411.6,204l-48.1,48.1c-2,2-5.4,2-7.4,0
		l-12.3-12.3c-1-1-2.7-0.3-2.7,1.1v137.4c0,4.2-3.6,7.6-7.8,7.3c-16.4-1.2-54.7-3.8-77.3-3.8c-22.6,0-61,2.6-77.5,3.8
		c-4.2,0.3-7.8-3-7.8-7.3V241c0-1.4-1.7-2.1-2.7-1.1l-12.2,12.2c-2,2-5.4,2-7.4,0L100.4,204c-2-2-2-5.4,0-7.4l60.2-60.1
		c6.5-6.5,15.3-10.1,24.5-10.1h23c3.8,0,7.2,2,9.1,5.2c5.3,9.1,20.7,15.7,38.9,15.7c18.2,0,33.6-6.6,38.9-15.7
		c1.9-3.2,5.4-5.2,9.1-5.2h22.8c9.2,0,18,3.6,24.5,10.1l60.3,60.1C413.6,198.7,413.7,202,411.6,204z"/>
</g>
</svg>
