<?xml version="1.0" encoding="utf-8"?>
<!-- Generator: Adobe Illustrator 19.2.1, SVG Export Plug-In . SVG Version: 6.00 Build 0)  -->
<svg version="1.1" id="Layer_3_copy" xmlns="http://www.w3.org/2000/svg" xmlns:xlink="http://www.w3.org/1999/xlink" x="0px"
	 y="0px" viewBox="0 0 512 512" style="enable-background:new 0 0 512 512;" xml:space="preserve">
<style type="text/css">
	.st0{fill:#FFFFFF;}
</style>
<g>
	<g>
		<path class="st0" d="M172.8,200.4c5,7.6,12.1,14.6,17,19v-56.1c-12.4-1.7-20.4-3.2-20.4-3.2S164.5,187.7,172.8,200.4z"/>
	</g>
	<g>
		<path class="st0" d="M321.3,163.3v56.8c4.9-4.3,12.5-11.7,17.8-19.7c8.3-12.7,3.4-40.3,3.4-40.3S334.2,161.6,321.3,163.3z"/>
	</g>
	<g>
		<path class="st0" d="M256,20.8L52.3,138.4v235.2L256,491.2l203.7-117.6V138.4L256,20.8z M349.3,208.3c-9.1,12.2-21.4,17.2-28,19.1
			v9.4c0,25.3-20.5,45.7-45.7,45.7h-10.2l7.9,70.2h2.8c4.2,0,7.8,2.7,9.2,6.5h13c11.5,0,20.8,9.3,20.8,20.8v6.7h-127v-6.7
			c0-11.5,9.3-20.8,20.8-20.8h13c1.3-3.8,4.9-6.5,9.2-6.5h2.8l7.9-70.2h-10.2c-25.3,0-45.7-20.5-45.7-45.7v-9.6
			c-6.8-2.1-18.4-7.2-27.1-18.8c-11.6-15.6-11-30.1-11-30.1V146c0-4.2,3.5-7.4,7.7-7.1c6.2,0.5,16.3,3.4,30.4,6.3v-13
			c0-3.9,3.1-7,7-7c0,0,9,3.8,58.8,3.8c49.8,0,58.8-3.8,58.8-3.8c3.9,0,7,3.1,7,7v13.1c14.6-3,24.9-5.9,31.3-6.5
			c4.1-0.3,7.7,2.9,7.7,7.1v32.2C360.3,178.2,360.9,192.8,349.3,208.3z"/>
	</g>
</g>
</svg>
