<?xml version="1.0" encoding="utf-8"?>
<!-- Generator: Adobe Illustrator 19.2.1, SVG Export Plug-In . SVG Version: 6.00 Build 0)  -->
<svg version="1.1" id="Layer_3_copy" xmlns="http://www.w3.org/2000/svg" xmlns:xlink="http://www.w3.org/1999/xlink" x="0px"
	 y="0px" viewBox="0 0 512 512" style="enable-background:new 0 0 512 512;" xml:space="preserve">
<style type="text/css">
	.st0{fill:#FFFFFF;}
</style>
<g>
	<path class="st0" d="M222.2,293.2l0.6,0.4l-0.5-0.8l-0.7-1.1l21.9-13.6l11.6-7.2l0.7,0.2l0.1,0.1l0.2,0.3l0.2,0.4l0.3,0.5l0,0.1
		l0.1,0.1l0.2,0.3l0.1,0.2l0.1,0.2l0.3,0.5l0.1,0.1l0.3,0.4l0.2,0.4l0.2,0.4l0.4,0.7l0,0.1l0.6,0.9l0,0l0.6,0.9l0.2,0.3l0.5,0.8
		l0.2,0.3l0.5,0.8l0.4,0.6l0.4,0.6l0.4,0.7l0.3,0.5l0.1,0.1l0.1,0.2l0.1,0.2l0.4,0.6l0.1,0.2l0.1,0.2l0,0l1.7-1.1l0.1,0.2l0.1,0.1
		l0.4,0.6l0.2,0.2l0.6,1l0.2,0.3l0.7,1.2l0.2,0.4l0.4,0.6l0.4,0.6l0.2,0.4l0.7,1.2l0.2,0.3l0.6,1l0.2,0.2l0.4,0.6l0.1,0.1l0.1,0.2
		l-1.7,1.1l0,0l0.1,0.2l0.1,0.2l0.4,0.6l0.1,0.2l0.1,0.2l0.1,0.1l0.3,0.5l0.4,0.7l0.4,0.6l0.4,0.6l0.5,0.8l0.2,0.3l0.5,0.8l0.2,0.3
		l0.6,0.9l0,0l0.6,0.9l0,0.1l0.4,0.7l0.2,0.4l0.2,0.4l0.3,0.4l0.1,0.1l0.3,0.5l0.1,0.2l0.1,0.2l0.2,0.3l0.1,0.1l0,0.1l0.3,0.5
		l0.2,0.4l0.2,0.3l0.1,0.1l-0.2,0.8l-11.6,7.2l-21.9,13.5l-0.7-1.1l-0.6-0.9l-0.2-0.3l-1.3-2l-0.3-0.4l-0.6-1l-0.1-0.2l-0.2-0.4
		l0-0.1l-0.3-0.5l-0.1-0.2l-3.1-5.1l-0.3-0.5l-1.6,1l-0.4-0.6l-0.1-0.2l-1-1.6l-0.2-0.4l0-0.1l-0.8,0.5l6.2,10l1.9,3l1.6,2.6
		l2.9,4.1l14.2-8.9c0,0,0.1,0,0.1,0l21.4-13.3l1.3-1.7l-0.4-1.8l-1.7-2.8l-21.5-34.7l-1-0.4l-1.2,0l-35.6,22.1l-0.8,1.3l0.7,1.1
		L222.2,293.2z"/>
	<polygon class="st0" points="229.4,307.9 228.4,306.3 228.3,306.1 227.9,305.5 229.5,304.5 229.2,304 228.6,303 228.7,303.7 
		226.9,305.6 227.9,307.2 228.2,307.5 228.7,308.6 228.8,308.8 229.7,308.3 229.6,308.2 	"/>
	<polygon class="st0" points="273.4,329.2 272.9,328.5 270.7,329.9 265.3,333.8 263.8,338.5 264.1,342.1 265,345.1 266.6,347.5 
		270.6,352.5 274.9,355.1 279.7,355.8 286.8,355.1 295.4,352.1 301.2,348.2 303.4,345.5 304.8,341.6 304.9,338.3 303.8,333.2 
		299.3,327.1 296.6,324.7 292.6,322.9 287.7,321.7 288,326.2 293.2,334.6 291.1,340.2 289.3,344.8 286.5,348.8 283.3,352.2 
		282.1,350.8 284.5,347.3 286,343.6 286.3,339.6 284.4,335.7 279.3,331.7 	"/>
	<path class="st0" d="M459.7,138.4l-52.8-30.5h0L256,20.8L52.3,138.4v235.2v0L256,491.2l203.7-117.6v0h0V138.4z M110.5,354.6
		l3.4-6.8l2.4-1.5l0.4-1.5l3-4.2l10-6.2l2.5,0.8l0,1.2l21-13l23.8-14.8l17.8-6.3l3.3-2.1l0.1-0.6l6.7-4.2l1.4-2.3l10.3-6.4l-0.2-0.3
		l37.9-23.5l4.6-3.9l7.1-4.4l1.5-1.2l-0.6-1l-1.4-2.2l0.8-0.5l1.4,2.2l0.6,1l1.2-0.6l1.4-0.1l1.4,0.7l1.1,1l0.5,1.5l-0.2,1.6
		l2.3,1.7l2.1,1.8l0.2,0.7l0.2,0.1l1.4-0.9l1.2-0.1l1.8,0.4l3.9,0.1l4.5-2.8l-4.5,2.8l4.3-2.9l1.6-1.3l1.4-1.1l0.2-0.5l3.8-3.1
		l0.2-0.1l3.6-2.3l0.1,0l3.4-0.7l0.6,0.1l0.2,2l-0.1,0.1l-1,0.5l-2,1l-2.7,1.7l-3.4,3l-0.7,1.6l-0.8,1.8l0.5,4.1l1.8,1.6l2.7,1
		l3.7,0.3l1.1,0l0.8,0.3l0,0.1l1.7-0.4l11-2.6l1.1,1l1.4-1l1.3,0.5l7.2,9.4l4,5l7.7,4.7l7.9,3.2l10.8,5.4l11.7,7.3l10.9,7.8
		l12.3,10.5l4.1,4.1l2.8,3.7l2.1,4l0.8,4.3l0.2,5.5l-2.2,1.9l-3.3,2.1l-7.2,4.5l-7.5,4.7l-6.1,3.8l-7,4.3l-5.5,3l-5.7-4.1
		c-1.3-0.9-2.2-2.4-2.4-4l-0.3-2.1c-0.1-1-0.5-1.9-1.1-2.7l-0.5-0.7c-0.6-0.8-1.4-1.5-2.4-1.9l-3-1.3l-2.2-1
		c-1.7-0.8-2.9-2.3-3.3-4.2l-0.2-0.9c0-0.1,0-0.2-0.1-0.3l-0.4-2.5c-0.2-1.6-1.1-3.1-2.5-4l-1.6-1.1c-0.2-0.1-0.4-0.3-0.6-0.4
		l-2.5-1.3c-1-0.5-1.8-1.2-2.3-2.1l-2.5-4l-1.3-1.6l-3.1-1.7l-6.9-1.3l-3.3,0.8l-3.6,2.4L311,331l-0.9,0.1l0.6,6.1l-0.1,5.5
		l-2.1,5.4l-4.2,4.1l-25.8,16l-9.3,5.8l-3.2-3l2.2-3.1l0.3-3l-4.6-7.4l-3.8-6.1l-2.1-3.1l-1.7-1.1l-2.9-0.6l-3.2,0.7l-5.1,3l-3.8-1
		l-6,3.7l-0.9-1.4l0-0.1l0-0.1l0,0l0,0l0,0l-0.2-0.3l0,0l-0.1-0.2l0,0l-0.2-0.4l0-0.1l-0.1-0.2l-0.1-0.2l-0.2-0.4l-0.1-0.1l-0.3-0.5
		l-0.8-1.3l-0.1-0.2l-0.6-0.9l-0.5-0.8l-1.1-1.7l-1.1-1.7l0,0l-3-4l-2.4-2.1l-4.2-1.3l0,0l-0.3-0.5L192.7,351l-7,4.4l-2.2-3.5
		l-4.4-1.2l-5-0.1l-3.8,0.7l-7,3l-3.9,2.4l-6.3,3.9l-1.8-2.8l-2.3,1.4l1.8,2.8l-6.1,3.8l-1.8-2.8l-2.3,1.4l1.8,2.8l-6.2,3.9
		l-1.8-2.8l-2.3,1.4l1.8,2.8l-4,2.5l-4.5-1.2l-0.8-0.2l-2.9,1.8l-0.3-0.4l-0.8-1.3l-0.5-0.7l-0.2-0.3l-0.6-0.9l0,0l-0.9-1.5
		l-0.7-1.1l-0.5-0.8l-1.3-2.1l-1.3-2.1l-0.5-0.8l-0.7-1.1l-0.9-1.5l0,0l-0.6-0.9l-0.2-0.3l-0.5-0.7l-0.8-1.3l-0.3-0.4L110.5,354.6z
		 M377.1,114c-12.5,0.1-19.8,1.5-20.9,1.7c-0.1,0-0.2,0.1-0.2,0.1c-0.3,0.3-1.5,1.1-2.7,1.5c-1.1,0.3-2.8,0.5-3.4,0.6
		c-0.2,0-0.3,0.1-0.4,0.3c-0.2,0.3-0.6,0.9-1.2,1.1c-0.5,0.2-1,0.3-1.4,0.3c-0.3,0-0.5,0.2-0.5,0.5c-0.1,1.1-0.3,4-1.5,6.7
		c-1.3,2.9-3.9,4.2-4.8,4.5c-0.2,0.1-0.3,0.2-0.3,0.4l-7.6,26.2c-1,3.5,1.7,19.8,2.3,27.6c0.7,7.7,3.2,16.3,3.2,16.3
		s2,10.4,3.1,13.2s6.8,15.1-4.4,16.5c-17.6,2.2-22.8-22.2-22.8-22.2s-3.5-20.4-5.9-28.6c-2.5-8.2-5.3-8.7-6.1-8.5
		c-0.8,0.1-6.9,6-6.9,6s-0.5,8-1.1,12c-0.4,3,0.5,6.7,0.9,10.9c0.4,4.2-0.8,5.2-0.7,7.7c0.1,2.5,6.3,26.2-5.4,26.7
		c-8.5,0.4-6.6-12.4-8.7-17.4c-2.1-5-3.1-18.5-4.8-21.7s0.1-14.8-0.5-14.6c-1.5,0.4-6.9,0.4-8.4,1.6c-0.3,0.3-2,7.1-4.3,11
		c-3.1,5.3-7.4,9.1-7.4,9.1s-10.3,20.1-11.7,22.9c-1.5,2.8-5.9,27.4-17.7,22.9c-5.8-2.2-2.5-7-0.9-15.6c1.5-7.8,6-20.7,6-20.7
		s3.2-8.8,4.4-12.2s1.5-7.6,2.2-10c0.7-2.4,4-7.2,3.5-7.5c-0.3-0.2-5.5,4.6-10.7,7.5c-4.8,2.7-9.4,3.9-10.9,4.9
		c-1.4,1-5.3,5.3-8.4,11.1c-3.1,5.8-9.2,9.7-9.2,9.7s-6,13.1-11.2,18.6c-4.3,4.6-10.8,5-14.2,2.4c-6.9-5.4,2.2-12.7,2.2-12.7
		l5.5-14.7c0,0-13.4,10.3-21.8,5.9c-11.3-5.9,6.5-15.1,6.5-15.1s32.3-28.4,34.9-31.6c1.4-1.6,7.1-3.5,11.9-5.8
		c4.6-2.2,8.2-4.9,11.2-6.5c6.2-3.3,18.2-11.4,18.2-11.4s15.5-14.1,31.4-29.7c15.3-14.9,21.7-24.2,36-35.2c5.4-4.2,9.3-6.9,13-9
		l68.4,39.5C383.7,113.3,377.1,114,377.1,114z"/>
</g>
</svg>
