<?xml version="1.0" encoding="utf-8"?>
<!-- Generator: Adobe Illustrator 19.2.1, SVG Export Plug-In . SVG Version: 6.00 Build 0)  -->
<svg version="1.1" id="Layer_3_copy" xmlns="http://www.w3.org/2000/svg" xmlns:xlink="http://www.w3.org/1999/xlink" x="0px"
	 y="0px" viewBox="0 0 512 512" style="enable-background:new 0 0 512 512;" xml:space="preserve">
<style type="text/css">
	.st0{fill:#FFFFFF;}
</style>
<g>
	<g>
		
			<ellipse transform="matrix(0.9589 -0.2836 0.2836 0.9589 -95.1117 70.5554)" class="st0" cx="196.1" cy="363.7" rx="10.1" ry="10.1"/>
	</g>
	<g>
		<path class="st0" d="M373.6,52.3H138.4L20.8,256l117.6,203.7h235.2L491.2,256L373.6,52.3z M128,155.3l83.1-24.6l-32.5,59.8
			l27.2,14.8l-23.6,43.5l27.7,15.1l-22.4,41.3l23.6,12.8l-11.3,20.8c-3.5-0.5-7.2-0.3-10.8,0.8c-2,0.6-3.9,1.4-5.7,2.5L128,155.3z
			 M201.6,382.4c-10.3,3.1-21.2-2.8-24.2-13.2s2.8-21.2,13.2-24.2c8.3-2.4,16.8,0.8,21.5,7.5l14.3-26.3l23.6,12.8l22.4-41.3
			l27.7,15.1l23.6-43.5l27.2,14.8l32.5-59.8l24.6,83.1l-192.4,56.9C215.3,372.5,209.9,380,201.6,382.4z"/>
	</g>
</g>
</svg>
