<?xml version="1.0" encoding="utf-8"?>
<!-- Generator: Adobe Illustrator 19.2.1, SVG Export Plug-In . SVG Version: 6.00 Build 0)  -->
<svg version="1.1" id="Layer_3_copy" xmlns="http://www.w3.org/2000/svg" xmlns:xlink="http://www.w3.org/1999/xlink" x="0px"
	 y="0px" viewBox="0 0 512 512" style="enable-background:new 0 0 512 512;" xml:space="preserve">
<style type="text/css">
	.st0{fill:#FFFFFF;}
</style>
<g>
	<g>
		<circle class="st0" cx="142.8" cy="271.8" r="11.4"/>
	</g>
	<g>
		<circle class="st0" cx="255.8" cy="214.7" r="26.1"/>
	</g>
	<g>
		<circle class="st0" cx="383.4" cy="209.6" r="11.4"/>
	</g>
	<g>
		<path class="st0" d="M256,20.8L52.3,138.4v235.2L256,491.2l203.7-117.6V138.4L256,20.8z M142.8,344.6c0,0-26.1-58.3-26.1-74.5
			s11.7-29.3,26.1-29.3c14.4,0,26.1,13.1,26.1,29.3S142.8,344.6,142.8,344.6z M255.8,380.9c0,0-59.6-133.2-59.6-170.2
			c0-36.9,26.7-66.9,59.6-66.9c32.9,0,59.6,29.9,59.6,66.9C315.4,247.7,255.8,380.9,255.8,380.9z M383.4,282.3
			c0,0-26.1-58.3-26.1-74.5s11.7-29.3,26.1-29.3c14.4,0,26.1,13.1,26.1,29.3S383.4,282.3,383.4,282.3z"/>
	</g>
</g>
</svg>
