<?xml version="1.0" encoding="utf-8"?>
<!-- Generator: Adobe Illustrator 19.2.1, SVG Export Plug-In . SVG Version: 6.00 Build 0)  -->
<svg version="1.1" id="Layer_3_copy" xmlns="http://www.w3.org/2000/svg" xmlns:xlink="http://www.w3.org/1999/xlink" x="0px"
	 y="0px" viewBox="0 0 512 512" style="enable-background:new 0 0 512 512;" xml:space="preserve">
<style type="text/css">
	.st0{fill:#FFFFFF;}
</style>
<g>
	<g>
		<path class="st0" d="M218.9,247.4L218.9,247.4L218.9,247.4L218.9,247.4L218.9,247.4l0,1.3c0,0.1,0,0.1,0,0.2l0,0l0,0l0,0l0,0
			c0,0,0,0,0,0l0,0c0,0,0,0,0,0l0,0l0,0l0,0l0,0l0,0l0,0l0,0l0,0l0,0l0,0c0,0,0,0,0,0c0,0,0,0.1,0,0.1l0.6,1.2
			c0,0.1,0.1,0.1,0.1,0.2c0,0,0,0,0,0c0,0,0.1,0.1,0.1,0.1l1.1,0.8c0.1,0.1,0.2,0.1,0.3,0.1l0,0l0,0l0,0l0,0l0,0l0,0l0,0l0,0l0,0
			l0,0l0,0l1.2,0.3l0,0c0,0,0,0,0,0c0,0,0,0,0,0s0,0,0,0l0,0c0,0,0,0,0,0l0,0l0,0l0,0l0,0l0,0c0,0,0,0,0,0l0,0l0,0l0,0c0,0,0,0,0,0
			l0,0l0,0l0,0c0,0,0,0,0,0c0,0,0,0,0,0l0,0l0,0c0,0,0,0,0,0l0,0l0,0c0,0,0,0,0,0h0l0,0l0,0l0,0l0,0c0,0,0,0,0,0l0,0l0,0
			c0,0,0,0,0,0c0,0,0,0,0,0l0,0c0,0,0,0,0,0l0,0l0,0c0,0,0,0,0,0l0,0c0,0,0,0,0,0c0,0,0,0,0,0c0,0,0,0,0,0l0,0l0,0c0,0,0,0,0,0
			c0,0,0,0,0,0c0,0,0,0,0,0l0,0l0,0c0,0,0,0,0,0c0,0,0,0,0,0l0,0l0,0l0,0c0,0,0,0,0,0l0,0l0,0l0,0l0,0c0,0,0,0,0,0l0,0l0,0l0,0
			c0,0,0,0,0,0c0,0,0,0,0,0s0,0,0,0l0,0c0,0,0,0,0,0c0,0,0,0,0,0s0,0,0,0c0,0,0,0,0,0s0,0,0,0l0,0l0,0c0,0,0,0,0,0l0,0l0,0
			c0,0,0,0,0,0c0,0,0,0,0,0c0,0,0,0,0,0l1.4-0.2c0.1,0,0.1,0,0.2-0.1l1.2-0.6l0,0c0.1,0,0.1,0,0.2-0.1l0.6-0.4
			c0.1-0.1,0.2-0.2,0.2-0.3l26.8-21.2l1-1l0.9-1.1c0-0.1,0.1-0.1,0.1-0.2l0.5-1.3c0-0.1,0.1-0.2,0.1-0.3l0-1.2c0-0.1,0-0.2-0.1-0.3
			l-0.6-1.2c0-0.1-0.1-0.2-0.2-0.3l-1.1-0.8c-0.1-0.1-0.2-0.1-0.3-0.1l-1.2-0.3c-0.1,0-0.2,0-0.3,0l-1.4,0.2c-0.1,0-0.1,0-0.2,0.1
			l-1.4,0.7l-1.2,0.8l-26.5,21.1l-1,1l-0.9,1.1c0,0,0,0,0,0l0,0l0,0l0,0l0,0l0,0l0,0c0,0,0,0,0,0l0,0l0,0l0,0l0,0
			c0,0-0.1,0.1-0.1,0.1l-0.5,1.3c0,0,0,0.1,0,0.1l0,0l0,0c0,0,0,0,0,0l0,0c0,0,0,0,0,0l0,0l0,0l0,0l0,0l0,0l0,0l0,0c0,0,0,0,0,0l0,0
			l0,0l0,0c0,0,0,0,0,0c0,0,0,0,0,0l0,0l0,0l0,0l0,0l0,0c0,0,0,0,0,0c0,0,0,0,0,0s0,0,0,0l0,0l0,0l0,0l0,0l0,0l0,0l0,0l0,0l0,0
			C218.9,247.3,218.9,247.3,218.9,247.4L218.9,247.4C218.9,247.3,218.9,247.3,218.9,247.4L218.9,247.4L218.9,247.4L218.9,247.4
			L218.9,247.4L218.9,247.4C218.9,247.3,218.9,247.3,218.9,247.4C218.9,247.3,218.9,247.3,218.9,247.4L218.9,247.4L218.9,247.4
			L218.9,247.4L218.9,247.4C218.9,247.3,218.9,247.3,218.9,247.4L218.9,247.4L218.9,247.4L218.9,247.4L218.9,247.4L218.9,247.4
			L218.9,247.4L218.9,247.4L218.9,247.4L218.9,247.4L218.9,247.4L218.9,247.4C218.9,247.3,218.9,247.3,218.9,247.4L218.9,247.4
			L218.9,247.4C218.9,247.3,218.9,247.3,218.9,247.4L218.9,247.4L218.9,247.4L218.9,247.4L218.9,247.4L218.9,247.4
			C218.9,247.3,218.9,247.3,218.9,247.4C218.9,247.3,218.9,247.3,218.9,247.4L218.9,247.4L218.9,247.4L218.9,247.4L218.9,247.4
			L218.9,247.4L218.9,247.4C218.9,247.4,218.9,247.4,218.9,247.4L218.9,247.4L218.9,247.4L218.9,247.4L218.9,247.4L218.9,247.4
			L218.9,247.4L218.9,247.4L218.9,247.4L218.9,247.4C218.9,247.4,218.9,247.4,218.9,247.4L218.9,247.4L218.9,247.4L218.9,247.4
			L218.9,247.4L218.9,247.4L218.9,247.4z"/>
	</g>
	<g>
		<path class="st0" d="M266.8,237.3l-0.6-1.2c0-0.1-0.1-0.2-0.2-0.3l-1.1-0.8c-0.1-0.1-0.2-0.1-0.3-0.1l-1.2-0.3c-0.1,0-0.2,0-0.3,0
			l-1.4,0.2c-0.1,0-0.1,0-0.2,0.1l-1.4,0.7l-1.2,0.8L145,327.2c0.4,0.6,0.8,1.3,1.2,1.8c1.1,1.5,2.5,3,4.1,4.5l114-90.8l1-1l0.9-1.1
			c0-0.1,0.1-0.1,0.1-0.2l0.5-1.3c0-0.1,0.1-0.2,0.1-0.3l0-1.2C266.9,237.5,266.9,237.4,266.8,237.3z"/>
	</g>
	<g>
		<path class="st0" d="M258.2,218l0.6,1.1c0,0.1,0.1,0.2,0.2,0.2l0.9,0.8c0.1,0.1,0.2,0.1,0.2,0.1l1.2,0.4c0.1,0,0.2,0,0.3,0
			l1.2-0.1c0.1,0,0.2,0,0.3-0.1l1.1-0.6c0,0,0.1,0,0.1-0.1c0,0,0.1-0.1,0.1-0.1l0.8-0.9c0.1-0.1,0.1-0.2,0.1-0.2l0.4-1.2
			c0-0.1,0-0.2,0-0.3l-0.1-1.2c0-0.1,0-0.2-0.1-0.3l-0.6-1.1c0-0.1-0.1-0.2-0.2-0.2l-0.9-0.8c-0.1-0.1-0.2-0.1-0.2-0.1l-1.2-0.4
			c-0.1,0-0.2,0-0.3,0l-1.2,0.1c-0.1,0-0.2,0-0.3,0.1l-1.1,0.6c-0.1,0-0.2,0.1-0.2,0.2l-0.8,0.9c-0.1,0.1-0.1,0.2-0.1,0.2l-0.4,1.2
			c0,0.1,0,0.2,0,0.3l0.1,1.2C258.1,217.8,258.1,217.9,258.2,218z"/>
	</g>
	<g>
		<path class="st0" d="M379.7,135.4l-2.8-1.8c-0.2-0.1-0.4-0.2-0.6-0.1l-2.7,0.9c-0.2,0.1-0.3,0.2-0.4,0.4l-1.3,2.5
			c-0.1,0.2-0.1,0.4-0.1,0.5l0.6,2.1c0,0.2,0.1,0.3,0.3,0.4l2.1,1.7c0.2,0.1,0.4,0.2,0.6,0.1l2.2-0.4c0.1,0,0.2-0.1,0.3-0.1
			c0,0,0,0,0.1-0.1l2.1-2.1c0.2-0.2,0.2-0.4,0.2-0.6l-0.3-2.8C380,135.8,379.9,135.6,379.7,135.4z M377.2,140.3l-1.7,0.3l-1.7-1.3
			l-0.4-1.6l1-2l2.1-0.7l2.2,1.4l0.2,2.2L377.2,140.3z"/>
	</g>
	<g>
		<path class="st0" d="M256,20.8L52.3,138.4v235.2L256,491.2l203.7-117.6V138.4L256,20.8z M302.7,234.8c0,0.1-0.1,0.1-0.1,0.2
			l-4.6,11.3l-7.7,6.1l-15.1,12.2l-72,57.3l-30.8,23.6l-1.8,1.2c29.7,15.3,72.9,27,72.9,27s-30.9,7.4-63.5,6.6
			c41.5,17.4,88.2,27.1,88.2,27.1s-98.9,8.2-148.5-39.1l-0.7,0.1l-9.1,1.1l-8.7,0.5l2-2.1l7.9-9.1c-1.4-1.8-2.8-3.7-4.1-5.7
			c-42.5-64.1,1.1-164.3,1.1-164.3s-6.5,53.4-1.2,100.1c7.8-34.8,25.9-66.4,25.9-66.4s-2.5,59.8,7,92.1l67.6-53.8
			c0.1-0.1,0.2-0.2,0.2-0.4l3.8-13.3l53.4-42.5l8.8-0.7l3.8-0.6c0.1,0,0.1,0,0.2,0l1.9-0.8l24.4,30.4L302.7,234.8z M322.2,245.2
			l-9.4-4.3l-1.1-0.7l-38.3-47.8l-1.2-1l-8.1-5l1-1.6l8.4,5l0.9,0.6l0.7,0.7l37.9,47.6c0.1,0.1,0.1,0.1,0.2,0.2l1.5,0.8l8.2,3.8
			L322.2,245.2z M403.3,161.9l-6.9,0.5c-0.1,0-0.1,0-0.2,0l-8.6,2.9c-0.1,0-0.2,0.1-0.2,0.1l-6.7,5.8c-0.1,0.1-0.1,0.1-0.2,0.2
			l-4.4,8l-0.9,0.5l-6.6-0.1c-0.1,0-0.2,0-0.3,0.1l-6.9,2.8c-0.1,0-0.2,0.1-0.2,0.2l-5.7,5.9c-0.1,0.1-0.1,0.2-0.2,0.3l-2.2,6.1
			l-0.8,1l-4.3,1.2c-0.1,0-0.1,0-0.2,0.1l-5.9,3.4c-0.1,0-0.1,0.1-0.2,0.1l-5.2,5.4c-0.1,0.1-0.1,0.1-0.1,0.2l-3.4,7.1l-0.8,0.9
			l-6.3,1.8c-0.1,0-0.1,0.1-0.2,0.1l-7.6,5.1c-0.1,0-0.1,0.1-0.2,0.2l-5.6,7.4l-1.8,2.7c-0.1,0.2-0.1,0.4-0.1,0.5l0.2,0.9l-0.1,0.1
			l-30-37.7l0.3-0.1l0.8,1.1c0.2,0.3,0.5,0.4,0.8,0.3l5.2-1.7l7.2-2c0.1,0,0.1,0,0.2-0.1l7.1-3.8l6-5l5.3-5.2l5.7-6.2l5-5.6
			l9.9-10.4l6.2-5.6l6.3-5.4l5.9-4.7l5.9-4.6l5.7-4.4l5.8-3.6l5.9-3.5l7.4-3.7l5.6-2.3l4.9-1.8c0.1,0,0.1-0.1,0.2-0.1l0.2-0.2
			l6.8,10.3l2.1,9.2l2.3,11.3l-1.6,13.2l0.2,0.6L403.3,161.9z"/>
	</g>
</g>
</svg>
