<?xml version="1.0" encoding="utf-8"?>
<!-- Generator: Adobe Illustrator 19.2.1, SVG Export Plug-In . SVG Version: 6.00 Build 0)  -->
<svg version="1.1" id="Layer_3_copy" xmlns="http://www.w3.org/2000/svg" xmlns:xlink="http://www.w3.org/1999/xlink" x="0px"
	 y="0px" viewBox="0 0 512 512" style="enable-background:new 0 0 512 512;" xml:space="preserve">
<style type="text/css">
	.st0{fill:#FFFFFF;}
</style>
<g>
	<g>
		<path class="st0" d="M234,176.8c0.3-5,0.6-9.8,0.9-14.6c-3.1,1.7-6.2,3.4-9.4,5.2C229.5,169.5,230.9,173.9,234,176.8z"/>
	</g>
	<g>
		<path class="st0" d="M248.1,7.1L44.4,124.7v235.2l203.7,117.6l203.7-117.6V124.7L248.1,7.1z M340.5,199.2
			c-0.5,1.8-1.7,2.6-3.3,3.1c-2.9,0.8-5.9,1.4-8.9,0.6c-2.1-0.5-4-1.3-6.1-1.8c-4.4-1.2-8.7-0.8-13.1,0.1c-4.2,0.8-8.4,1.7-12.8,1.3
			c-5.8-0.5-11.1-2-16.1-4.9c-2-1.2-3.8-2.7-4.7-5c-0.9-2.2-1.7-4.3-2.8-6.9c-1.1,1.7-2.2,3-3,4.5c-0.8,1.5-1.4,3.2-2.2,4.7
			c-1.2,2.2-3,4.1-3.5,6.6c-0.3,1.6-1.3,2.5-2.6,3.2c-1.3,0.7-2,1.9-2.4,3.3c0.3,0.1,0.5,0.3,0.8,0.3c3.6,0.5,7.2,0.8,10.8,1.4
			c1.4,0.2,3,0.6,3.9,1.5c1.1,1,2.3,1.4,3.6,1.7c3.9,0.8,7.8,1.7,11.3,3.7c1.2,0.7,2.6,1.1,4,1.6c1.8,0.7,3.7,1.5,5.5,2.2
			c0.9,0.3,1.8,0.7,2.6,1.1c1.7,0.7,3.6,0.7,5.1,2c2,1.7,2.9,3.7,3.4,6.1c0.2,1,0.1,1.8-0.4,2.6c-0.9,1.6-1.7,3.2-2.6,4.8
			c-0.2,0.4-0.5,0.8-0.9,1.1c-4.1,3.1-7.6,6.8-10.6,11.1c-3.1,4.4-6.4,8.5-10.2,12.4c-2.5,2.6-5.3,5-7.8,7.6
			c-2.6,2.7-5.2,5.5-7.6,8.4c-1.1,1.4-2.6,2.7-2.5,4.8c0.9,0.5,1.7,1,2.5,1.4c1.4,0.6,2.8,1,4.2,1.7c2,1,3.8,2.3,5.7,3.3
			c3.2,1.7,6.5,3.4,10,4.3c0.8,0.2,1.5,0.5,2.3,0.2c0.6-0.3,1.4-0.5,1.7,0.3c0.2,0.7,0.2,1.8-0.2,2.1c-1.4,1.2-3.1,2.1-5.1,1.8
			c-1.4-0.2-2.8-0.3-4.2-0.5c-1.1-0.1-2.3-0.1-3.4-0.4c-4.5-1.3-9.1-1.6-13.7-2c-3.4-0.3-6.9-0.2-10.3-0.3c-1.1,0-2.3-0.1-3.4-0.3
			c-3.3-0.6-4.2-1.9-3.4-5.2c0.2-0.9,0.4-1.9,0.6-2.8c0.5-3.1,1.5-6.1,3.1-8.8c2.2-3.7,4.7-7.3,6.8-11.1c3-5.4,5.7-11,8.5-16.5
			c0.3-0.5,0.4-1,0.6-1.6c0.5-2.1,1-4.2,2.6-5.9c0.5-0.5,0.8-1.2,1.2-2c-0.7,0.1-1.2,0.3-1.7,0.2c-4.5-0.3-9-0.7-13.5-1
			c-1.1-0.1-1.9,0.3-2.5,1.4c-0.8,1.3-1.9,2.4-3.5,2.6c-1.7,0.2-3.4,0.4-4.9,0.6c-1.5,4.6-3,9-4.5,13.4c-0.9,2.5-1.8,5-2.8,7.5
			c-0.1,0.4-0.5,0.6-0.8,0.9c-0.3,0.3-0.8,0.5-0.9,0.9c-1.5,3.9-4,7.2-6.2,10.7c-1.2,2-2.6,3.8-3.8,5.8c-0.8,1.2-1.4,2.5-2.1,3.7
			c-0.8,1.5-2.3,2.7-2.2,4.6c0,0.6,0,1.2-0.2,1.7c-1.1,2.3-2.1,4.7-3.4,6.8c-1.8,2.8-4.4,5-7.4,6.2c-2.5,1-4.3,2.8-5.9,4.7
			c-2.7,3.4-5.2,7-7.6,10.6c-4.1,6-9.1,11.2-14,16.5c-2.1,2.3-4.4,4.5-6.4,7c-2.1,2.5-4,5.2-4.6,8.5c-0.4,2.3-0.8,4.6,0.6,6.7
			c2.5,3.9,5.1,7.8,7.7,11.6c0.8,1.2,1.7,2.5,2.9,3.3c2.1,1.4,4.4,2.4,6.6,3.5c0.9,0.4,1.1,1,0.7,1.9c-0.6,1.5-1.9,1.8-3.3,2.1
			c-0.2,1.9-0.7,2.1-2.4,1.2c-1,1.5-2.1,0.6-2.9,0.1c-0.6,0.4-1,0.9-1.4,0.9c-0.5,0-0.9-0.5-1.3-0.9c-0.5-0.4-0.9-1-1.2-1.3
			c-0.2,0.7-0.3,1.4-0.6,1.8c-0.5,0.7-1.1,0.5-1.8,0c-0.6-0.5-1.4-0.7-2.1-1.1c-1.3-0.6-2.9-1-4-1.9c-3.3-2.7-6.4-5.7-9.7-8.5
			c-2.7-2.4-5.5-4.7-8.4-7c-2-1.6-3.2-4.3-2.3-6.2c0.6-1.3,1.3-2.8,2.3-3.8c4.4-4.3,7.4-9.5,10.1-14.9c2.5-4.9,4.7-10,7-15
			c1.1-2.4,2.2-4.8,3.2-7.3c1.1-2.5,1.8-5.3,3.2-7.6c1.4-2.5,3.1-4.9,5.1-6.9c2-2.1,4.4-3.8,6.8-5.5c2.9-2.2,6-4.2,9-6.2
			c2-1.2,3.4-2.8,4-5.1c0.3-1.3,0.7-2.5,1.1-3.7c1.4-4.4,3.2-8.8,3.1-13.5c0-1.2,0.1-2.4,0.3-3.5c0.6-3.1,1.2-6.1,1.9-9.2
			c0.7-3,1.5-6.1,2.4-9c1-3.2,1.4-6.3,0.5-9.7c-0.7-2.5-0.7-5.2-0.8-7.8c-0.1-1.9,0.3-3.8,0.5-5.8c0.3-2.3,0.5-4.7,1-7
			c0.8-3.7,3.2-6.7,4.9-10c0.5-0.9,0.9-1.8,1.5-2.6c1-1.2,2.3-2.2,3.3-3.4c1.9-2.3,3.8-4.6,4.8-7.6c0.3-1,1.1-2,1.7-2.9
			c0.8-1.2,1.7-2.3,2.6-3.6c-2.5-1.2-4.8-2.5-7.2-3.4c-4.7-1.8-8.7-4.7-12.2-8.1c-2.8-2.7-4.9-6-6.8-9.4c-1.3-2.3-2.2-4.7-0.6-7.3
			c0.3-0.5,0.7-1.1,1.2-1.4c1.9-1.1,3.9-2.2,5.9-3.1c2.4-1.2,4.6-2.5,6.4-4.6c1.3-1.5,3.2-2.5,4.6-3.9c2.8-3,6.3-4.4,10.1-5.4
			c2.3-0.6,4.4-1.4,5.9-3.5c2.4-3.7,6-5.4,10.3-5.8c1.8-0.2,3.6-0.5,5-1.9c0.5-0.6,1.4-1.1,2.1-1.2c4.2-0.7,8.3-1.7,12.6-1.4
			c0.9,0.1,1.8-0.2,2.7-0.3c1.4-0.2,2.7-0.5,4.1-0.7c1-0.2,2.1-0.5,2.1-1.7c0.1-1.6,0.1-3.2-0.2-4.8c-0.9-3.8-1.8-7.6-0.9-11.6
			c1.5-6.5,4.6-11.7,10.7-14.6c3.1-1.5,6.4-1.8,9.6-0.1c2.7,1.5,5.3,3.1,7.9,4.8c1.3,0.8,2.5,1.8,3.5,3c2.1,2.6,3.1,5.5,2.3,8.9
			c-0.1,0.4,0.1,1,0.1,1.4c0.2,1.9,0.5,3.7-1,5.3c-0.6,0.7-0.9,1.7-0.5,2.7c0.8,1.8,1.5,3.6,2.2,5.4c0.1,0.4,0.1,1.1-0.2,1.4
			c-0.7,0.6-1.5,0.9-2.3,1.4c-0.4,0.3-1,0.7-1,1c0.1,1.1-0.5,1.7-1.2,2.3c-0.2,0.1-0.4,0.4-0.4,0.5c0.2,1.1-0.3,1.7-1.2,2.2
			c-0.3,0.2-0.6,0.8-0.7,1.2c-0.2,1.9-1.4,3-3.1,3.5c-0.9,0.3-2,0.2-3.1,0.3c1.2,2.1,1.5,4.4,1.1,6.6c-0.7,3.5-2,6.8-3.9,9.9
			c-1.5,2.4-2.8,4.9-2.4,7.8c0.2,1.4,0.5,2.9,0.5,4.3c0,3.5-0.2,7-0.2,10.5c0,0.9,0,1.8,0,2.8c3.8-0.7,7.2-0.2,10.6,0.9
			c3.5,1.2,6.7,2.9,10.4,3.5c2,0.3,4,1.2,5.9,2c1.2,0.5,2,0.5,3.1-0.3c1.2-0.9,2.6-1.6,4.4-1.2c1.4,0.4,2.9,0.2,4.4,0.1
			c1.4-0.2,2.8-0.6,4.2-0.9c1.7-0.4,2.9,0.4,3.4,2c0.1,0.5,0.3,1.1,0.7,1.3c1.6,1.3,1.8,3,1.7,4.8c0,0.6,0.1,1.3,0.2,1.9
			C342,197,340.8,197.9,340.5,199.2z"/>
	</g>
</g>
</svg>
