<?xml version="1.0" encoding="utf-8"?>
<!-- Generator: Adobe Illustrator 19.2.1, SVG Export Plug-In . SVG Version: 6.00 Build 0)  -->
<svg version="1.1" id="Layer_3_copy" xmlns="http://www.w3.org/2000/svg" xmlns:xlink="http://www.w3.org/1999/xlink" x="0px"
	 y="0px" viewBox="0 0 512 512" style="enable-background:new 0 0 512 512;" xml:space="preserve">
<style type="text/css">
	.st0{fill:#FFFFFF;}
</style>
<g>
	<g>
		<path class="st0" d="M255.5,291.2c-9.6,0-17.4,7.8-17.4,17.4c0,6.4,3.5,12,8.6,15v19.2c0,3.5,2.9,6.4,6.4,6.4h4.7
			c3.5,0,6.4-2.9,6.4-6.4v-19.2c5.2-3,8.6-8.6,8.6-15C272.9,298.9,265.1,291.2,255.5,291.2z"/>
	</g>
	<g>
		<path class="st0" d="M256,20.8L52.3,138.4v235.2L256,491.2l203.7-117.6V138.4L256,20.8z M196.9,182c0-32.6,27.9-46.1,57.5-46.2v0
			c0.1,0,0.2,0,0.2,0c0.1,0,0.2,0,0.2,0v0c29.6,0.1,57.5,13.6,57.5,46.2V251c0,1.8-1.4,3.2-3.2,3.2h-18.7c-1.8,0-3.2-1.4-3.2-3.2
			V182c0-12.5-18.4-20.8-32.6-20.9c-14.2,0.1-32.6,8.4-32.6,20.9v5.8c0,4.2-3.5,7.7-7.7,7.7h-9.7c-4.2,0-7.7-3.5-7.7-7.7V182z
			 M331.2,364.5c0,6.4-5.3,11.7-11.7,11.7H192.5c-6.4,0-11.7-5.3-11.7-11.7V276c0-6.4,5.3-11.7,11.7-11.7h126.9
			c6.4,0,11.7,5.3,11.7,11.7V364.5z"/>
	</g>
</g>
</svg>
