<?xml version="1.0" encoding="utf-8"?>
<!-- Generator: Adobe Illustrator 19.2.1, SVG Export Plug-In . SVG Version: 6.00 Build 0)  -->
<svg version="1.1" id="Layer_3_copy" xmlns="http://www.w3.org/2000/svg" xmlns:xlink="http://www.w3.org/1999/xlink" x="0px"
	 y="0px" viewBox="0 0 512 512" style="enable-background:new 0 0 512 512;" xml:space="preserve">
<style type="text/css">
	.st0{fill:#FFFFFF;}
</style>
<g>
	<g>
		<path class="st0" d="M256,143.4c-30.1,0-58.3,11.7-79.6,33s-33,49.5-33,79.6c0,30.1,11.7,58.3,33,79.6s49.5,33,79.6,33
			c30.1,0,58.3-11.7,79.6-33s33-49.5,33-79.6c0-30.1-11.7-58.3-33-79.6S286.1,143.4,256,143.4z M256,349.7
			c-51.7,0-93.7-41.9-93.7-93.7c0-51.7,41.9-93.7,93.7-93.7c51.7,0,93.7,41.9,93.7,93.7C349.7,307.7,307.7,349.7,256,349.7z"/>
	</g>
	<g>
		<path class="st0" d="M256,172.3c-46.1,0-83.7,37.5-83.7,83.7c0,46.1,37.5,83.7,83.7,83.7c46.1,0,83.7-37.5,83.7-83.7
			C339.7,209.9,302.1,172.3,256,172.3z M256,293.5c-20.7,0-37.5-16.8-37.5-37.5s16.8-37.5,37.5-37.5s37.5,16.8,37.5,37.5
			S276.7,293.5,256,293.5z"/>
	</g>
	<g>
		<path class="st0" d="M256,20.8L52.3,138.4v235.2L256,491.2l203.7-117.6V138.4L256,20.8z M256,388.6
			c-73.2,0-132.6-59.4-132.6-132.6c0-73.2,59.4-132.6,132.6-132.6c73.2,0,132.6,59.4,132.6,132.6C388.6,329.2,329.2,388.6,256,388.6
			z"/>
	</g>
</g>
</svg>
