<?xml version="1.0" encoding="utf-8"?>
<!-- Generator: Adobe Illustrator 19.2.1, SVG Export Plug-In . SVG Version: 6.00 Build 0)  -->
<svg version="1.1" id="Layer_3_copy" xmlns="http://www.w3.org/2000/svg" xmlns:xlink="http://www.w3.org/1999/xlink" x="0px"
	 y="0px" viewBox="0 0 512 512" style="enable-background:new 0 0 512 512;" xml:space="preserve">
<style type="text/css">
	.st0{fill:#FFFFFF;}
</style>
<g>
	<g>
		<path class="st0" d="M332.2,216.8c-2.4-0.7-5-1.2-7.9-1.2c-7.9,0-14.8,3.1-19.8,7.9l-37.3,64.7L332.2,216.8z"/>
	</g>
	<g>
		<path class="st0" d="M213.3,224l40.6,73.3v-72.8c-5.3-5.5-12.4-8.8-20.5-8.8C225.4,215.6,218.5,219,213.3,224z"/>
	</g>
	<g>
		<path class="st0" d="M187.7,215.6c-2.4,0-4.8,0.2-7.2,1l63.5,71.6l-35.6-63.5C203.2,219.2,195.8,215.6,187.7,215.6z"/>
	</g>
	<g>
		<path class="st0" d="M256,20.8L52.3,138.4v235.2L256,491.2l203.7-117.6V138.4L256,20.8z M347.9,379.5h-2.6v3.6H166.2v-3.6h-2.1
			v-69.7h2.1v-3.6h34.4l1.4-4.8h11.7l1.2,4.8h35.8l1-2.9L176.2,218c-0.7,0.2-1.4,0.7-2.1,1c-0.2-2.6-0.5-5.3-0.5-7.9
			c0-45.4,36.8-82.1,82.4-82.1s82.4,37,82.4,82.4c0,2.6-0.2,5.3-0.5,7.9c-0.5-0.2-1-0.5-1.4-0.7l-76.2,83.8l1,3.8h35.8l1.4-4.8h11.7
			l1.2,4.8h33.9v3.6h2.6V379.5z"/>
	</g>
	<g>
		<path class="st0" d="M278.7,215.9c-8.1,0-15.3,3.3-20.5,8.6v70.9l41.1-71.2C294,219,286.8,215.6,278.7,215.9z"/>
	</g>
</g>
</svg>
