<?xml version="1.0" encoding="utf-8"?>
<!-- Generator: Adobe Illustrator 19.2.1, SVG Export Plug-In . SVG Version: 6.00 Build 0)  -->
<svg version="1.1" id="Layer_3_copy" xmlns="http://www.w3.org/2000/svg" xmlns:xlink="http://www.w3.org/1999/xlink" x="0px"
	 y="0px" viewBox="0 0 512 512" style="enable-background:new 0 0 512 512;" xml:space="preserve">
<style type="text/css">
	.st0{fill:#FFFFFF;}
</style>
<g>
	<g>
		<path class="st0" d="M256,20.8L52.3,138.4v235.2L256,491.2l203.7-117.6V138.4L256,20.8z M341.5,381c-4.2-2.1-32.3-15.8-54.5-19.3
			c-22.7-3.6-77.2-27-94.5-35.1c-13-6.1-32.4-11.1-42.9-12.3c-8.6-1-15.5-1.2-17.3-1.2c-0.7-2.2-3.1-12.6,6.2-19.7
			c7-5.3,15.3-8.3,23.1-8.3c5.7,0,11.2,1.5,16.4,4.4c11.7,6.7,22.9,8.3,33.9,9.8c2.1,0.3,4,0.7,5,1c1.1,0.3,5.8,4.8,8,7.2
			c8,10.5,20.4,29.1,22,28.7c1.6-0.4-5.5-12.3-20.9-29.5c-5.7-7.4-6-7.4-7.1-8.4c-1.1-1-23-21-36.5-31.2
			c-47.2-40.2-68.6-62.3-62.2-79.5c1.8-4.8,4.2-7.1,7.4-7.1c5.5,0,12.5,6.8,17.6,11.7c1.2,1.2,2.4,2.3,3.4,3.2
			c4.3,3.9,12.6,9.8,22.2,16.8c7.9,5.7,16.8,12.2,25.4,18.7c18.8,14.5,35.6,23.7,35.8,23.8c0,0,2.1,1.3,2.2,1.2
			c0.1-0.1-1.3-2.1-1.3-2.1c-0.2-0.3-17.1-27.7-45.1-52.8c-32-26.2-47.7-43.5-48.1-52.9c-0.1-1.9,0.5-3.4,1.8-4.6
			c1-1,4.8-2.6,10.9,0.1c10.4,4.7,21.3,12.9,25.7,16c4.3,3.2,9.8,6.8,18,11.5c6.5,3.8,15.7,9.4,20.9,13.2
			c5.2,3.8,45.7,43.6,45.9,43.5s0.8-1.1-11.1-12.2c-7.6-7.1-22.5-23.7-23.1-24.4c-0.7-0.7-2-1.3-3.6-2.8c-0.7-0.7-8.7-6.6-8.7-6.6
			s-38.2-24.5-39.4-25.4s-3-2.2-4.1-3.1c-4.2-3.4-20-13.8-10.1-17.5c0.2-0.1,0.5-0.1,0.9-0.1c5.7,0,23.3,8.2,38.8,15.4
			c3.5,1.6,6.9,3.2,10,4.6c16.9,7.7,37.5,18.3,45.7,31.6c6.4,10.3,17.3,16.2,21.4,18.4c0.4,0.2,0.8,0.4,1,0.6c0,0,1.1,0.5,1.3,0.4
			c0.2-0.1-0.2-1.3-0.2-1.3c-1.1-2.6-7.9-18.3-15.7-31.2l-0.1-0.2l-0.2-0.1c-6.4-2.6-40.6-30.4-36.9-41.1c0.4-1.2,1.5-1.7,3.3-1.7
			c12.3,0,49.1,25.7,51.2,27.1c1.7,2.3,33.1,46.7,51.3,70.3c17.7,23,55,65.1,58.8,69.5L341.5,381z"/>
	</g>
</g>
</svg>
