<?xml version="1.0" encoding="utf-8"?>
<!-- Generator: Adobe Illustrator 19.2.1, SVG Export Plug-In . SVG Version: 6.00 Build 0)  -->
<svg version="1.1" id="Layer_3_copy" xmlns="http://www.w3.org/2000/svg" xmlns:xlink="http://www.w3.org/1999/xlink" x="0px"
	 y="0px" viewBox="0 0 512 512" style="enable-background:new 0 0 512 512;" xml:space="preserve">
<style type="text/css">
	.st0{fill:#FFFFFF;}
</style>
<g>
	<g>
		<path class="st0" d="M256,149.2c-58.9,0-106.8,47.9-106.8,106.8c0,58.9,47.9,106.8,106.8,106.8S362.8,314.9,362.8,256
			C362.8,197.1,314.9,149.2,256,149.2z M210.1,333.8l-15.2-15.2l50.8-50.8V163.2h21.5v113.3l0.1,0.1L210.1,333.8z"/>
	</g>
	<g>
		<path class="st0" d="M256,20.8L52.3,138.4v235.2L256,491.2l203.7-117.6V138.4L256,20.8z M256,382.1
			c-69.7,0-126.1-56.5-126.1-126.1c0-69.7,56.5-126.1,126.1-126.1S382.1,186.3,382.1,256C382.1,325.7,325.7,382.1,256,382.1z"/>
	</g>
</g>
</svg>
