<?xml version="1.0" encoding="utf-8"?>
<!-- Generator: Adobe Illustrator 19.2.1, SVG Export Plug-In . SVG Version: 6.00 Build 0)  -->
<svg version="1.1" id="Layer_3_copy" xmlns="http://www.w3.org/2000/svg" xmlns:xlink="http://www.w3.org/1999/xlink" x="0px"
	 y="0px" viewBox="0 0 512 512" style="enable-background:new 0 0 512 512;" xml:space="preserve">
<style type="text/css">
	.st0{fill:#FFFFFF;}
</style>
<g>
	<path class="st0" d="M373.6,52.3H138.4L20.8,256l117.6,203.7h235.2L491.2,256L373.6,52.3z M349.8,294.5c-1.5,2.6-3.6,4.8-6,6.6
		l-7.7-13.3c0.2-0.3,0.5-0.6,0.6-0.9c1.7-3,1-7.7-2-12.9l-58.7-101.6l8.8-15.1l62.9,109.1C353.6,276.5,354.3,286.7,349.8,294.5z
		 M303.5,99.5l-4.7,59l-15.4-8.9l-79,137.1h-17.4l83.4-144.7l-15.6-9L303.5,99.5z M217.8,173.1c5.8-10,14.2-15.7,23.2-15.7
		c4.4,0,8.6,1.4,12.5,3.9l-7.5,13.1c-1.6-1.3-3.3-1.9-5-1.9c-3.5,0-7.2,3-10.2,8.2l-61.2,106.1h-17.7L217.8,173.1z M146.3,324.7
		l-53.5-25.4l53.5-25.4v17.8h163.2l8.8,15.1H146.3V324.7z M179.2,324.7c-2.2-3.9-3.2-8.3-2.9-13.1h15.1c-0.3,2.2-0.1,4,0.8,5.5
		c1.7,3,6.2,4.7,12.1,4.7l122.8-0.1l8.9,15.1H204.4C192.9,337,183.7,332.5,179.2,324.7z M328.4,350.1l15.5-8.9L261.3,198l8.7-15.1
		l87,150.7l15.4-8.9l4.7,59L328.4,350.1z"/>
</g>
</svg>
