<?xml version="1.0" encoding="utf-8"?>
<!-- Generator: Adobe Illustrator 19.2.1, SVG Export Plug-In . SVG Version: 6.00 Build 0)  -->
<svg version="1.1" id="Layer_3_copy" xmlns="http://www.w3.org/2000/svg" xmlns:xlink="http://www.w3.org/1999/xlink" x="0px"
	 y="0px" viewBox="0 0 512 512" style="enable-background:new 0 0 512 512;" xml:space="preserve">
<style type="text/css">
	.st0{fill:#FFFFFF;}
</style>
<g>
	<g>
		<ellipse transform="matrix(0.5471 -0.8371 0.8371 0.5471 -98.3429 330.2503)" class="st0" cx="256" cy="256" rx="74" ry="74"/>
	</g>
	<g>
		<path class="st0" d="M256,20.8L52.3,138.4v235.2L256,491.2l203.7-117.6V138.4L256,20.8z M371.2,298.2l-18.4,3.5
			c-2.1,4.4-4.5,8.7-7.2,12.9c-2.7,4.2-5.7,8.1-8.9,11.8l4.2,18.3c-5.2,4.9-10.7,9.4-16.5,13.3l-16.9-8c-8.7,4.7-17.9,8.3-27.5,10.4
			l-7.3,17.2c-7,1-14.1,1.3-21.2,1.1l-9-16.4c-9.6-1.2-19.2-3.8-28.4-7.7l-16,9.6c-3.1-1.7-6.1-3.5-9.1-5.4c-3-2-5.9-4-8.6-6.2
			l2.4-18.6c-7.3-6.9-13.5-14.6-18.5-22.9l-18.7-1.6c-3.1-6.4-5.6-13-7.5-19.8l12.9-13.6c-1.8-9.6-2.3-19.5-1.5-29.4l-14.1-12.3
			c1.2-6.9,3.1-13.7,5.5-20.4l18.4-3.5c2.1-4.4,4.5-8.7,7.2-12.9c2.7-4.2,5.7-8.1,8.9-11.8l-4.2-18.3c5.2-4.9,10.7-9.4,16.5-13.3
			l16.9,8c8.7-4.7,17.9-8.3,27.5-10.4l7.3-17.2c7-1,14.1-1.3,21.2-1.1l9,16.4c9.6,1.2,19.2,3.8,28.4,7.7l16-9.6
			c3.1,1.7,6.1,3.5,9.1,5.4c3,2,5.9,4,8.6,6.2l-2.4,18.6c7.3,6.9,13.5,14.6,18.5,22.9l18.7,1.6c3.1,6.4,5.6,13,7.5,19.8l-12.9,13.6
			c1.8,9.6,2.3,19.5,1.5,29.4l14.1,12.3C375.5,284.7,373.7,291.5,371.2,298.2z"/>
	</g>
</g>
</svg>
