<?xml version="1.0" encoding="utf-8"?>
<!-- Generator: Adobe Illustrator 19.2.1, SVG Export Plug-In . SVG Version: 6.00 Build 0)  -->
<svg version="1.1" id="Layer_3_copy" xmlns="http://www.w3.org/2000/svg" xmlns:xlink="http://www.w3.org/1999/xlink" x="0px"
	 y="0px" viewBox="0 0 512 512" style="enable-background:new 0 0 512 512;" xml:space="preserve">
<style type="text/css">
	.st0{fill:#FFFFFF;}
</style>
<g>
	<path class="st0" d="M256,20.8L52.3,138.4v235.2L256,491.2l203.7-117.6V138.4L256,20.8z M207.4,365.1L185.1,378l-14.9-12.9l1.2-4.4
		h37.2L207.4,365.1z M289.3,352.2H131.8l-7.2-21.3h121.8l-123.1-91.7v-33.8h81l-9,33.8H166l127.4,97.9L289.3,352.2z M181.6,322.5
		l6.5-24.4l31,23.1l-0.4,1.3H181.6z M366.6,168.3H260.1l-9.9,37.2h78.5l-22,33.8h-65.6l-10.4,39l-30.8-23.6l1.8-6.9h0.2l1.7-6.3
		l9-33.8l2.8-10.6h0l16.9-63h156.4L366.6,168.3z"/>
</g>
</svg>
