<?xml version="1.0" encoding="utf-8"?>
<!-- Generator: Adobe Illustrator 19.2.1, SVG Export Plug-In . SVG Version: 6.00 Build 0)  -->
<svg version="1.1" id="Layer_3_copy" xmlns="http://www.w3.org/2000/svg" xmlns:xlink="http://www.w3.org/1999/xlink" x="0px"
	 y="0px" viewBox="0 0 512 512" style="enable-background:new 0 0 512 512;" xml:space="preserve">
<style type="text/css">
	.st0{fill:#FFFFFF;}
</style>
<g>
	<g>
		<polygon class="st0" points="385.7,348.1 385.2,343.1 383.4,338 382.5,336.5 378.6,331.7 374.1,328.4 369.2,326.2 359.9,322.5 
			349.9,318.2 339.7,313.2 330.2,307.3 321.1,300.4 313.5,293.2 307.1,286.3 301.1,281.2 294.6,279.4 289.3,279.9 285.5,281.2 
			282,282.1 281.2,280.7 279,284.1 277.6,286.9 276.5,289.7 276.2,293 277.2,296.8 279,301.4 281.5,305.8 284.1,309.9 287.2,313.9 
			291.3,317.5 296.3,321 350.6,356.6 355.6,359.7 360.8,362.2 364.6,362.8 368.6,362.4 376.6,360.8 390.3,357 385.3,353.8 		"/>
	</g>
	<g>
		<g>
			<path class="st0" d="M256,20.8L52.3,138.4v235.2L256,491.2l203.7-117.6V138.4L256,20.8z M390,167.3l-21.1,7l-162.6-32.4
				L390,167.3z M401.5,193.1l-15.7,18.8l-234.7-66.5L401.5,193.1z M196.4,352.9l-96.4-188l107.4,164.7L196.4,352.9z M303.1,412.1
				L129.4,192.5l175.9,182.7L303.1,412.1z M419,324.5l-0.2,0.4l-10.2,15.6l-12.8,19.6l-17.5,5.3l-9.7,2.3l-4.8,0.8l-4.6-0.5
				l-5.3-2.5l-5.1-3.2l-56.3-36.8l-5.3-3.6l-4.2-3.8l-3.5-4.5l-2.9-4.7l-2.6-4.9l-2.1-5.2l-1.4-5.6l0.1-4.6l0.6-3.7l1.1-3.4l0.7-2.9
				l0.4-2.7l0-3.7l-0.8-6.2l2.4-3.6l-4.7-1.4l-6.8-0.7l-5.1,0l-6,0.8l-14.2-9.1l-45.7-30L152,195.4l-34.4-22.5l-5.2-9.9l-4.1-10.3
				l-3-10.2l-2.5-10.2l0.2-0.2l23.8,9.5l53.6,21.6l6.9,4.6l0.2,2.9l0.5,0.6l0.8,0.2l2.7-1l4.5,2.9l0.2,2.9l0.5,0.6l0.8,0.2l2.7-1
				l4.5,2.9l0.2,2.9l0.5,0.6l0.8,0.2l2.7-1l4.5,2.9l0.2,2.9l0.5,0.6l0.8,0.2l2.7-1l4.5,2.9l0.2,2.9l0.5,0.6l0.8,0.2l2.7-1l4.5,2.9
				l0.2,2.9l0.5,0.6l0.8,0.2l2.7-1l4.5,2.9l0.2,2.9l0.5,0.6l0.8,0.2l2.7-1l4.5,2.9l0.2,2.9l0.5,0.6l0.8,0.2l2.7-1l4.5,2.9l0.2,2.9
				l0.5,0.6l0.8,0.2l2.7-1l6.9,4.5l6.8,4.4l3.8,2.5l3.5,2.5l5.1,3.3l2.7,1.7l0.2-2.7l0.5-4.7l1.2-5.6l1.4-2.9l0.4-0.9l1.2-0.3
				l3.9,2.5l0.5,1.4l-0.3,0.8l-0.8,2.5l-0.6,4l-0.3,4.3l0.5,4.2l1.1,3.1l0.2,0.1l0.9,0.9l3.8,5.4l6,4.6l7.4,4l7,3.8l7.8,4.3l9,5.3
				l9.7,5.8l10.5,6.7l9.4,6.3l7.7,5.6l10.9,8.6l9.8,8.2l1.4,0.7l10.6,6.9l1.6,1.3l1,0.3l0.5,0.8l1.1-0.1l3.3,2.2l0.4,1.1L419,324.5z
				 M405.7,249.7c0,0-190.8-75.7-205.5-80.6l-0.9-0.2c0.1,0,0.4,0.1,0.9,0.2l246.2,70L405.7,249.7z"/>
		</g>
	</g>
</g>
</svg>
